<?xml version="1.0" encoding="UTF-8" standalone="no"?>
<!DOCTYPE svg PUBLIC "-//W3C//DTD SVG 1.1//EN" "http://www.w3.org/Graphics/SVG/1.1/DTD/svg11.dtd">
<!-- Created with Vectornator (http://vectornator.io/) -->
<svg height="163.0pt" stroke-miterlimit="10" style="fill-rule:nonzero;clip-rule:evenodd;stroke-linecap:round;stroke-linejoin:round;" version="1.1" viewBox="0 0 363.606 163" width="363.6062801453446pt" xml:space="preserve" xmlns="http://www.w3.org/2000/svg" xmlns:xlink="http://www.w3.org/1999/xlink">
<defs>
<linearGradient gradientTransform="matrix(-262.409 -151.91 151.91 -262.409 149.112 156.631)" gradientUnits="userSpaceOnUse" id="LinearGradient" x1="0" x2="1" y1="0" y2="0">
<stop offset="0" stop-color="#f0efeb"/>
<stop offset="1" stop-color="#ffffff"/>
</linearGradient>
</defs>
<clipPath id="ArtboardFrame">
<rect height="163" width="363.606" x="0" y="0"/>
</clipPath>
<g clip-path="url(#ArtboardFrame)" id="Untitled">
<path d="M335.576 156.631C347.056 156.631 356.377 147.608 356.377 136.494C356.377 125.377 347.056 116.354 335.576 116.354C331.076 116.354 326.908 117.741 323.502 120.096C327.763 102.815 315.615 83.5339 294.998 75.8972C282.193 71.155 268.943 71.948 258.818 77.0339C256.56 58.6472 241.275 40.5886 218.732 32.2371C195.33 23.573 171.052 27.9363 157.619 41.5769C130.99 18.655 95.9122 4.72147 57.4942 4.72147C8.87321 4.72147-34.4008 27.0379-61.9588 61.6433C-71.8618 58.8308-82.3498 57.323-93.1898 57.323C-124.682 57.323-153.1 70.0457-173.182 90.4285C-182.28 85.9949-192.53 83.5066-203.37 83.5066C-222.401 83.5066-239.631 91.1941-251.99 103.584C-257.272 99.2019-264.069 96.5613-271.479 96.5613C-284.6 96.5613-295.779 104.815-300.022 116.358C-311.381 116.491-320.561 125.463-320.561 136.494C-320.561 146.932-312.338 155.526-301.83 156.534L-301.83 156.631L335.576 156.631Z" fill="url(#LinearGradient)" fill-rule="evenodd" opacity="0.9" stroke="none"/>
</g>
</svg>
