<?xml version="1.0" encoding="UTF-8" standalone="no"?>
<!DOCTYPE svg PUBLIC "-//W3C//DTD SVG 1.1//EN" "http://www.w3.org/Graphics/SVG/1.1/DTD/svg11.dtd">
<!-- Created with Vectornator (http://vectornator.io/) -->
<svg height="118.0pt" stroke-miterlimit="10" style="fill-rule:nonzero;clip-rule:evenodd;stroke-linecap:round;stroke-linejoin:round;" version="1.1" viewBox="0 0 281.489 118" width="281.489495pt" xml:space="preserve" xmlns="http://www.w3.org/2000/svg" xmlns:xlink="http://www.w3.org/1999/xlink">
<defs>
<linearGradient gradientTransform="matrix(-108.621 -106.891 106.891 -108.621 54.3105 112.446)" gradientUnits="userSpaceOnUse" id="LinearGradient" x1="0" x2="1" y1="0" y2="0">
<stop offset="0" stop-color="#f0efeb"/>
<stop offset="1" stop-color="#ffffff"/>
</linearGradient>
</defs>
<clipPath id="ArtboardFrame">
<rect height="118" width="281.489" x="0" y="0"/>
</clipPath>
<g clip-path="url(#ArtboardFrame)" id="Untitled">
<path d="M-265.111 112.184C-271.432 110.953-276.19 105.532-276.19 99.035C-276.19 91.6326-270.01 85.6248-262.389 85.6248C-259.732 85.6248-257.252 86.3592-255.139 87.6248C-241.361 66.0389-216.471 51.6092-188.092 51.6092C-180.599 51.6092-173.361 52.6131-166.502 54.4881C-158.048 38.7303-143.662 25.6053-125.138 18.6717C-99.8105 9.19512-73.0725 13.6678-54.2095 28.1873C-45.8495 14.6131-30.8305 5.5545-13.7015 5.5545C2.04851 5.5545 16.0175 13.2186 24.6695 25.0076C38.5875 12.824 56.1305 5.5545 75.1775 5.5545C104.998 5.5545 131.131 23.3748 145.452 49.9803C148.268 49.6365 151.139 49.4607 154.049 49.4607C171.979 49.4607 188.338 56.1326 200.741 67.1053C203.631 66.6678 206.588 66.4412 209.612 66.4412C226.959 66.4412 242.471 73.9607 252.659 85.7342C255.131 83.7732 258.229 82.6092 261.588 82.6092C269.651 82.6092 276.19 89.2928 276.19 97.5271C276.19 104.668 271.268 110.645 264.702 112.106C264.721 112.219 264.729 112.332 264.748 112.446L-265.17 112.446C-265.15 112.36-265.131 112.27-265.111 112.184Z" fill="url(#LinearGradient)" fill-rule="evenodd" opacity="0.9" stroke="none"/>
</g>
</svg>
