<svg width="93" height="222" viewBox="0 0 93 222" fill="none" xmlns="http://www.w3.org/2000/svg">
<g clip-path="url(#clip0_64_1379)">
<path d="M38.5449 15.9377L38.3799 25.2397L41.2346 27.068L39.1101 49.6728L42.7289 52.4695L42.2205 62.4956L49.1856 69.2717L57.0819 65.5449L49.6336 69.7308L48.1704 77.519L54.5189 84.88L63.8288 79.5728L66.2212 81.3591L69.6101 79.2948L68.6652 77.3952C69.7264 76.0824 70.573 74.0319 71.2059 71.2463L76.36 68.3901L71.4777 71.8292C71.0621 74.1491 70.4401 75.8565 69.6122 76.9531L70.4762 78.4991L70.077 83.0511L79.3442 87.5456L89.7198 90.1874L80.1374 88.5206C80.1886 89.423 79.6553 89.8889 78.5374 89.9171L77.7305 95.6947L77.466 91.1679L74.6069 89.109C72.7798 89.3944 70.6658 88.5664 68.2655 86.6243L62.7237 85.7652L54.5362 89.9221L49.3179 97.5233L47.3338 113.24L43.8832 118.63L42.6855 125.158L50.8286 125.99L57.4924 121.037L58.1363 118.057L62.2895 115.561L58.7151 118.233L57.927 128.203L61.9522 132.136L70.4457 137.064L61.3194 132.658L56.9036 127.982L57.8381 123.621L51.1422 127.606L42.6244 130.756L41.5081 132.646L43.1627 134.731L39.9148 136.853L39.2711 139.276L40.838 141.281L36.3356 144.651L35.4957 164.571L31.7817 168.021L29.9145 194.878L36.0029 199.871L34.1641 201.543L30.7313 199.832L28.275 219.763L28.2656 200.37L24.4013 199.779L27.6515 197.059L29.0376 180.887L27.0247 179.192L27.3376 177.597L25.4221 175.186L23.8111 175.214L23.293 176.479L14.8253 174.857L21.8448 175.607L22.588 174.351C23.6013 174.802 25.7443 174.146 29.0165 172.383L28.5438 169.223L30.5994 167.875L30.7288 154.099L28.4004 152.342L29.063 141.808L36.1122 136.566L38.0072 129.099L35.9015 129.011L34.5426 126.784C31.6554 129.103 27.1912 131.828 21.1529 134.958L14.4929 135.563L14.1582 137.258L12.5951 137.83L11.4554 157.554L12.0752 137.524L9.67158 136.304C9.5747 137.176 7.35803 136.688 3.02158 134.841L12.2306 135.776L14.155 131.538L20.8316 133.12L27.7225 129.179L28.2463 124.829L27.4138 123.013L28.5047 111.622L28.1107 123.181L29.0684 124.393L28.863 128.062L34.6132 125.29L38.5261 126.936L42.7038 107.733L39.954 98.3017L43.8208 81.7634L41.2793 80.1083L42.168 73.2632L38.4552 69.2152L40.3848 65.1951L36.7982 62.9457L37.3217 53.3351L33.4448 49.8537L36.2389 26.7754L38.5449 15.9377Z" fill="#360C1F"/>
<path d="M20.4694 0.679704L19.8547 9.404L20.0939 13.5053L26.281 21.2128L26.4539 27.5864L24.8212 21.0487L20.4566 15.765L19.8348 20.9903L21.2942 25.0126L20.9046 27.3546L18.5967 26.6816L14.5313 68.2705L16.6515 34.7722L14.0276 37.5592L17.0012 32.528L17.5935 24.7497L18.865 14.4678L18.7177 8.66886L20.4694 0.679704Z" fill="#360C1F"/>
<path d="M24.4808 56.5455L24.8895 57.3702L24.3997 60.4924L25.9749 62.4552L24.8605 71.6159L23.4129 71.9407L23.1988 77.3457L22.3592 83.5422L22.0531 81.878L21.0414 81.8937L19.6436 82.3559L20.9024 81.4185L22.0731 81.3902L22.6369 76.5513L22.7974 71.4278L23.9269 70.9929L24.9393 62.5593L23.806 60.6739L24.4808 56.5455Z" fill="#360C1F"/>
</g>
<defs>
<clipPath id="clip0_64_1379">
<rect width="85.3576" height="219.19" fill="white" transform="translate(85.3073 221.992) rotate(-178.032)"/>
</clipPath>
</defs>
</svg>
