<svg width="144" height="169" viewBox="0 0 144 169" fill="none" xmlns="http://www.w3.org/2000/svg">
<g clip-path="url(#clip0_64_1387)">
<path d="M109.512 135.469L106.728 130.032L103.441 130.347L98.3115 116.308L93.9935 116.43L91.3065 110.412L82.555 109.845L76.24 115.775L81.9847 109.795L80.9112 104.608L72.56 103.409L65.4031 110.926L62.5683 111.044L60.0049 113.856L61.5021 114.498C60.9101 115.762 60.7549 117.349 61.0349 119.257L57.0468 123.371L60.5927 119.051C60.2537 117.516 60.3042 116.234 60.7432 115.206L59.4346 114.729L58.3745 111.916L48.1597 113.767L37.4788 117.216L47.0988 113.585C46.7649 113.09 47.1237 112.566 48.1756 112.014L47.1149 108.3L48.7968 110.78L52.1609 110.597C53.8045 109.557 56.0722 109.021 58.9639 108.99L64.4943 106.83L70.9497 100.513L73.4986 93.6349L70.413 83.631L71.9836 78.8732L71.0564 74.5391L63.0663 77.9613L58.3082 84.0062L58.6393 86.0313L55.4872 89.4587L58.0344 86.2072L55.6305 80.0866L50.5677 79.7497L40.9503 80.9802L51.0032 79.1457L56.6717 79.7238L57.1634 82.6833L62.2577 77.1802L69.345 71.2856L69.8066 69.6619L67.5774 69.2535L69.9887 66.4751L69.8336 64.7711L67.7127 64.3666L70.9201 60.2689L65.4199 48.3918L67.8537 44.6254L61.1356 28.2606L53.7798 28.3016L54.9962 26.4574L58.7945 25.7983L54.8246 13.1406L60.9642 24.3071L64.8179 22.7961L62.5934 25.9199L66.3906 35.8998L68.8366 35.912L69.0438 36.9806L71.6237 37.4517L73.1436 36.6638L73.2351 35.6866L81.7833 32.5646L74.8852 35.4955L74.5768 36.5748C73.4729 36.8006 71.6466 38.205 69.0989 40.7882L70.5463 42.382L69.0218 44.1431L73.2539 52.1405L76.0189 52.0374L78.7199 58.4222L73.6879 64.819L74.25 70.0277L76.2761 69.0699L78.2695 69.7014C80.2764 66.9828 83.6513 63.2747 88.3916 58.5787L94.5202 55.0395L94.302 53.9027L95.6047 52.8249L90.4508 40.917L96.1947 52.7521L98.8612 52.3031C98.6774 51.7544 100.935 50.9734 105.634 49.9601L96.5996 53.833L96.1132 57.1961L89.2774 59.4833L83.9842 65.0545L84.8623 67.8115L86.2263 68.4585L88.7921 75.5427L85.5121 68.6961L84.2199 68.4562L83.255 66.2444L78.6749 70.5961L74.4416 71.5227L76.5476 84.5854L82.1383 88.7006L83.697 100.08L86.6319 99.8154L87.9525 104.184L92.7554 104.737L92.1951 107.977L96.3096 107.555L98.851 113.341L103.63 113.49L108.274 128.122L109.512 135.469Z" fill="#360C1F"/>
<path d="M131.488 135.599L129.313 130.279L127.79 128.031L119.482 126.555L117.303 122.967L120.919 125.951L126.731 126.903L125.67 123.596L123.013 121.978L122.643 120.442L125.045 119.724L115.756 93.8202L124.334 114.132L125.943 111.269L124.711 115.592L126.608 120.356L128.652 126.888L130.625 130.158L131.488 135.599Z" fill="#360C1F"/>
<path d="M110.021 105.341L109.373 105.061L108.85 103.028L106.735 102.652L104.897 96.8416L106.168 95.961L104.662 92.745L103.5 88.7734L104.317 89.5854L105.272 89.0917L106.452 88.1559L105.554 89.2989L104.452 89.876L105.447 92.9334L106.914 95.9616L105.98 96.7532L107.685 102.096L109.356 102.639L110.021 105.341Z" fill="#360C1F"/>
</g>
<defs>
<clipPath id="clip0_64_1387">
<rect width="90.7688" height="143.884" fill="white" transform="translate(0 39.1787) rotate(-25.5712)"/>
</clipPath>
</defs>
</svg>
