<svg width="109" height="138" viewBox="0 0 109 138" fill="none" xmlns="http://www.w3.org/2000/svg">
<g clip-path="url(#clip0_64_1383)">
<path d="M35.8505 122.226L36.6395 116.864L39.9768 116.233L39.9944 102.949L44.275 101.875L44.761 96.0464L53.1454 93.1796L61.4599 96.4769L53.6871 92.9818L52.8872 88.2975L60.6528 85.0045L70.3606 89.4163L73.1839 88.7421L76.7038 90.424L75.4641 91.3756C76.4967 92.2847 77.2159 93.5857 77.6228 95.2772L83.0057 97.6726L77.9832 94.9826C77.7672 93.5902 77.2598 92.519 76.4618 91.7683L77.5755 91.0078L77.6105 88.3368L88.2941 87.1171L100.006 87.1234L89.2702 86.674C89.4208 86.1636 88.8816 85.818 87.6524 85.6378L87.366 82.2037L86.602 84.7628L83.2357 85.5249C81.2516 85.093 78.8352 85.2581 75.9867 86.0204L69.7888 85.7004L61.1981 82.1135L56.2397 76.9855L55.6932 67.6746L52.4523 64.075L51.8136 60.1529L60.8758 60.8705L67.7041 64.6903L68.1027 66.4951L72.4199 68.5368L68.7591 66.4789L68.931 60.6415L73.7781 58.9752L83.6541 57.3935L73.1351 58.5827L67.7798 60.6183L68.3547 63.258L61.3902 59.9887L52.3304 56.9316L51.2974 55.6829L53.3387 54.7291L49.9802 53.0346L49.5236 51.5497L51.46 50.6288L46.849 48.0345L48.0023 36.4791L44.2687 33.9543L45.0136 18.2673L52.2455 16.2955L50.3932 15.066L46.4309 15.5441L45.8038 3.74518L43.7693 14.8735L39.4483 14.6455L42.7469 16.6833L42.5868 26.1681L40.1912 26.8456L40.3697 27.8068L38.0067 28.9094L36.2339 28.657L35.795 27.8546L26.2924 27.5434L34.1077 28.143L34.7959 28.9726C35.9597 28.8627 38.2534 29.5534 41.6761 31.0454L40.8252 32.7895L42.9502 33.8646L41.6551 41.7897L38.9053 42.4566L38.5363 48.5987L45.7589 52.6417L47.0684 57.2046L44.7382 56.9465L43.008 58.0249C40.0676 56.2707 35.4314 54.052 29.1026 51.3695L21.8249 50.045L21.6329 49.0231L19.9697 48.4659L20.7721 36.9788L19.3647 48.5653L16.5881 48.9125C16.5723 48.3979 14.0781 48.3525 9.10558 48.7765L19.3536 49.5908L21.0324 52.3053L28.5567 52.377L35.7406 55.6497L35.864 58.2233L34.7569 59.1431L34.7704 65.8404L35.5425 59.1494L36.7247 58.5938L36.8812 56.4581L42.9298 58.8929L47.4145 58.5226L50.015 70.156L45.9999 75.1649L48.5359 85.2235L45.5619 85.8005L45.827 89.8592L41.3121 91.6376L43.0195 94.2278L38.8314 94.9925L38.4054 100.585L33.7688 102.014L34.44 115.668L35.8505 122.226Z" fill="#360C1F"/>
<path d="M14.3349 128.331L14.5678 123.234L15.2596 120.915L22.8835 117.4L23.7394 113.767L21.2574 117.28L15.8952 119.672L15.7551 116.582L17.7835 114.487L17.5986 113.086L14.9845 113.134L14.8441 88.6696L13.6849 108.205L11.0836 106.221L13.836 109.544L13.6772 114.095L14.0055 120.183L13.2379 123.489L14.3349 128.331Z" fill="#360C1F"/>
<path d="M24.5871 96.8583L25.1236 96.445L24.9096 94.5813L26.8507 93.686L26.5784 88.2652L25.0167 87.8664L25.3448 84.7331L25.0661 81.0537L24.555 81.9639L23.4416 81.8065L21.9492 81.3361L23.2388 82.0588L24.5262 82.2468L24.6426 85.1066L24.2847 88.0705L25.4843 88.4858L25.7201 93.4743L24.2741 94.39L24.5871 96.8583Z" fill="#360C1F"/>
</g>
<defs>
<clipPath id="clip0_64_1383">
<rect width="94.9538" height="127.656" fill="white" transform="matrix(-0.99347 -0.114097 -0.114097 0.99347 108.899 10.8339)"/>
</clipPath>
</defs>
</svg>
