<svg width="300" height="399" viewBox="0 0 300 399" fill="none" xmlns="http://www.w3.org/2000/svg">
<path d="M298.936 224.582C298.936 337.065 230.412 398.409 149.582 398.409C68.7576 398.409 0.227295 337.065 0.227295 224.582C0.227295 112.078 71.4916 0.387756 149.582 0.387756C227.676 0.387756 298.936 112.078 298.936 224.582Z" fill="#692B5F"/>
<path d="M297.523 223.839C297.523 335.566 229.457 396.501 149.167 396.501C68.8811 396.501 0.809326 335.566 0.809326 223.839C0.809326 112.091 71.5974 1.15182 149.167 1.15182C226.736 1.15182 297.523 112.091 297.523 223.839Z" fill="#692C60"/>
<path d="M296.109 223.095C296.109 334.067 228.5 394.593 148.752 394.593C69.0057 394.593 1.39258 334.067 1.39258 223.095C1.39258 112.103 71.7032 1.91708 148.752 1.91708C225.8 1.91708 296.109 112.103 296.109 223.095Z" fill="#6A2D60"/>
<path d="M294.698 222.352C294.698 332.572 227.547 392.685 148.335 392.685C69.1303 392.685 1.97461 332.572 1.97461 222.352C1.97461 112.115 71.809 2.67764 148.335 2.67764C224.864 2.67764 294.698 112.115 294.698 222.352Z" fill="#6B2D61"/>
<path d="M293.282 221.609C293.282 331.073 226.592 390.777 147.92 390.777C69.2539 390.777 2.55676 331.073 2.55676 221.609C2.55676 112.124 71.9149 3.44174 147.92 3.44174C223.928 3.44174 293.282 112.124 293.282 221.609Z" fill="#6B2D61"/>
<path d="M291.871 220.865C291.871 329.574 225.635 388.869 147.505 388.869C69.3785 388.869 3.13879 329.574 3.13879 220.865C3.13879 112.136 72.0207 4.207 147.505 4.207C222.991 4.207 291.871 112.136 291.871 220.865Z" fill="#6C2E62"/>
<path d="M290.458 220.122C290.458 328.075 224.681 386.965 147.09 386.965C69.5031 386.965 3.72083 328.075 3.72083 220.122C3.72083 112.147 72.1253 4.97107 147.09 4.97107C222.055 4.97107 290.458 112.147 290.458 220.122Z" fill="#6D2E62"/>
<path d="M289.044 219.379C289.044 326.577 223.726 385.057 146.674 385.057C69.6277 385.057 4.30408 326.577 4.30408 219.379C4.30408 112.16 72.2312 5.73282 146.674 5.73282C221.119 5.73282 289.044 112.16 289.044 219.379Z" fill="#6E2F63"/>
<path d="M287.632 218.636C287.632 325.078 222.772 383.149 146.259 383.149C69.7525 383.149 4.88623 325.078 4.88623 218.636C4.88623 112.172 72.3371 6.49689 146.259 6.49689C220.183 6.49689 287.632 112.172 287.632 218.636Z" fill="#6E3063"/>
<path d="M286.217 217.892C286.217 323.579 221.814 381.242 145.844 381.242C69.8759 381.242 5.46826 323.579 5.46826 217.892C5.46826 112.184 72.4429 7.26099 145.844 7.26099C219.247 7.26099 286.217 112.184 286.217 217.892Z" fill="#6F3064"/>
<path d="M284.805 217.149C284.805 322.081 220.86 379.334 145.427 379.334C70.0005 379.334 6.05029 322.081 6.05029 217.149C6.05029 112.196 72.5487 8.02271 145.427 8.02271C218.311 8.02271 284.805 112.196 284.805 217.149Z" fill="#703164"/>
<path d="M283.39 216.406C283.39 320.583 219.906 377.425 145.012 377.425C70.1252 377.425 6.63354 320.583 6.63354 216.406C6.63354 112.209 72.6545 8.7868 145.012 8.7868C217.374 8.7868 283.39 112.209 283.39 216.406Z" fill="#713165"/>
<path d="M281.979 215.662C281.979 319.084 218.948 375.52 144.597 375.52C70.2499 375.52 7.2157 319.084 7.2157 215.662C7.2157 112.22 72.7604 9.55087 144.597 9.55087C216.436 9.55087 281.979 112.22 281.979 215.662Z" fill="#713165"/>
<path d="M280.567 214.919C280.567 317.585 217.995 373.612 144.182 373.612C70.3733 373.612 7.79773 317.585 7.79773 214.919C7.79773 112.232 72.8662 10.3161 144.182 10.3161C215.499 10.3161 280.567 112.232 280.567 214.919Z" fill="#723265"/>
<path d="M279.152 214.176C279.152 316.09 217.04 371.705 143.766 371.705C70.4979 371.705 8.37976 316.09 8.37976 214.176C8.37976 112.244 72.972 11.0767 143.766 11.0767C214.562 11.0767 279.152 112.244 279.152 214.176Z" fill="#733366"/>
<path d="M277.74 213.432C277.74 314.591 216.086 369.797 143.351 369.797C70.6225 369.797 8.96179 314.591 8.96179 213.432C8.96179 112.257 73.0778 11.8408 143.351 11.8408C213.626 11.8408 277.74 112.257 277.74 213.432Z" fill="#743366"/>
<path d="M276.325 212.689C276.325 313.092 215.129 367.889 142.936 367.889C70.746 367.889 9.54504 313.092 9.54504 212.689C9.54504 112.269 73.1836 12.606 142.936 12.606C212.69 12.606 276.325 112.269 276.325 212.689Z" fill="#753467"/>
<path d="M274.913 211.946C274.913 311.593 214.174 365.981 142.52 365.981C70.8707 365.981 10.1272 311.593 10.1272 211.946C10.1272 112.28 73.2895 13.3666 142.52 13.3666C211.754 13.3666 274.913 112.28 274.913 211.946Z" fill="#753468"/>
<path d="M273.502 211.202C273.502 310.095 213.221 364.073 142.104 364.073C70.9953 364.073 10.7092 310.095 10.7092 211.202C10.7092 112.292 73.3953 14.1319 142.104 14.1319C210.818 14.1319 273.502 112.292 273.502 211.202Z" fill="#763568"/>
<path d="M272.086 210.459C272.086 308.596 212.266 362.168 141.689 362.168C71.1201 362.168 11.2914 308.596 11.2914 210.459C11.2914 112.304 73.5013 14.8959 141.689 14.8959C209.882 14.8959 272.086 112.304 272.086 210.459Z" fill="#773568"/>
<path d="M270.675 209.716C270.675 307.097 211.309 360.26 141.274 360.26C71.2447 360.26 11.8746 307.097 11.8746 209.716C11.8746 112.317 73.6059 15.66 141.274 15.66C208.945 15.66 270.675 112.317 270.675 209.716Z" fill="#783669"/>
<path d="M269.261 208.972C269.261 305.598 210.355 358.352 140.858 358.352C71.3681 358.352 12.4567 305.598 12.4567 208.972C12.4567 112.328 73.7117 16.4218 140.858 16.4218C208.009 16.4218 269.261 112.328 269.261 208.972Z" fill="#783769"/>
<path d="M267.848 208.229C267.848 304.101 209.4 356.444 140.444 356.444C71.4927 356.444 13.0387 304.101 13.0387 208.229C13.0387 112.34 73.8175 17.1859 140.444 17.1859C207.071 17.1859 267.848 112.34 267.848 208.229Z" fill="#79376A"/>
<path d="M266.436 207.486C266.436 302.602 208.443 354.536 140.029 354.536C71.6173 354.536 13.6207 302.602 13.6207 207.486C13.6207 112.352 73.9233 17.95 140.029 17.95C206.133 17.95 266.436 112.352 266.436 207.486Z" fill="#7A386B"/>
<path d="M265.021 206.742C265.021 301.103 207.488 352.628 139.614 352.628C71.7421 352.628 14.2029 301.103 14.2029 206.742C14.2029 112.365 74.0292 18.714 139.614 18.714C205.197 18.714 265.021 112.365 265.021 206.742Z" fill="#7B386B"/>
<path d="M263.609 205.999C263.609 299.607 206.534 350.721 139.199 350.721C71.8655 350.721 14.7861 299.607 14.7861 205.999C14.7861 112.377 74.135 19.4757 139.199 19.4757C204.261 19.4757 263.609 112.377 263.609 205.999Z" fill="#7C396C"/>
<path d="M262.194 205.256C262.194 298.109 205.58 348.816 138.783 348.816C71.9902 348.816 15.3682 298.109 15.3682 205.256C15.3682 112.388 74.2408 20.2398 138.783 20.2398C203.325 20.2398 262.194 112.388 262.194 205.256Z" fill="#7C396C"/>
<path d="M260.783 204.512C260.783 296.61 204.622 346.908 138.367 346.908C72.1147 346.908 15.9502 296.61 15.9502 204.512C15.9502 112.4 74.3466 21.0051 138.367 21.0051C202.389 21.0051 260.783 112.4 260.783 204.512Z" fill="#7D3A6D"/>
<path d="M259.368 203.769C259.368 295.112 203.669 344.999 137.952 344.999C72.2383 344.999 16.5323 295.112 16.5323 203.769C16.5323 112.413 74.4525 21.7692 137.952 21.7692C201.453 21.7692 259.368 112.413 259.368 203.769Z" fill="#7E3B6D"/>
<path d="M257.957 203.027C257.957 293.613 202.714 343.091 137.537 343.091C72.3629 343.091 17.1144 293.613 17.1144 203.027C17.1144 112.425 74.5583 22.5309 137.537 22.5309C200.516 22.5309 257.957 112.425 257.957 203.027Z" fill="#7F3B6E"/>
<path d="M256.544 202.282C256.544 292.114 201.757 341.184 137.121 341.184C72.4876 341.184 17.6976 292.114 17.6976 202.282C17.6976 112.437 74.6642 23.295 137.121 23.295C199.58 23.295 256.544 112.437 256.544 202.282Z" fill="#803C6E"/>
<path d="M255.13 201.539C255.13 290.615 200.803 339.276 136.706 339.276C72.6122 339.276 18.2797 290.615 18.2797 201.539C18.2797 112.448 74.7699 24.0591 136.706 24.0591C198.644 24.0591 255.13 112.448 255.13 201.539Z" fill="#813D6F"/>
<path d="M253.717 200.797C253.717 289.117 199.848 337.371 136.291 337.371C72.7369 337.371 18.8618 289.117 18.8618 200.797C18.8618 112.461 74.8759 24.8208 136.291 24.8208C197.708 24.8208 253.717 112.461 253.717 200.797Z" fill="#813D6F"/>
<path d="M252.303 200.054C252.303 287.618 198.895 335.464 135.876 335.464C72.8603 335.464 19.4438 287.618 19.4438 200.054C19.4438 112.473 74.9817 25.5849 135.876 25.5849C196.769 25.5849 252.303 112.473 252.303 200.054Z" fill="#823E70"/>
<path d="M250.891 199.31C250.891 286.12 197.937 333.556 135.459 333.556C72.9849 333.556 20.0259 286.12 20.0259 199.31C20.0259 112.485 75.0863 26.349 135.459 26.349C195.832 26.349 250.891 112.485 250.891 199.31Z" fill="#833E70"/>
<path d="M249.479 198.567C249.479 284.621 196.983 331.648 135.044 331.648C73.1096 331.648 20.6091 284.621 20.6091 198.567C20.6091 112.497 75.1921 27.1131 135.044 27.1131C194.896 27.1131 249.479 112.497 249.479 198.567Z" fill="#843F71"/>
<path d="M248.065 197.824C248.065 283.125 196.028 329.74 134.629 329.74C73.2331 329.74 21.1913 283.125 21.1913 197.824C21.1913 112.51 75.298 27.8748 134.629 27.8748C193.961 27.8748 248.065 112.51 248.065 197.824Z" fill="#854071"/>
<path d="M246.653 197.08C246.653 281.626 195.071 327.832 134.214 327.832C73.3577 327.832 21.7733 281.626 21.7733 197.08C21.7733 112.521 75.4038 28.6389 134.214 28.6389C193.024 28.6389 246.653 112.521 246.653 197.08Z" fill="#864072"/>
<path d="M245.238 196.337C245.238 280.129 194.117 325.924 133.798 325.924C73.4823 325.924 22.3553 280.129 22.3553 196.337C22.3553 112.533 75.5096 29.4041 133.798 29.4041C192.087 29.4041 245.238 112.533 245.238 196.337Z" fill="#864172"/>
<path d="M243.826 195.594C243.826 278.63 193.162 324.019 133.383 324.019C73.607 324.019 22.9386 278.63 22.9386 195.594C22.9386 112.542 75.6154 30.1682 133.383 30.1682C191.151 30.1682 243.826 112.542 243.826 195.594Z" fill="#874273"/>
<path d="M242.415 194.85C242.415 277.131 192.208 322.111 132.968 322.111C73.7304 322.111 23.5206 277.131 23.5206 194.85C23.5206 112.554 75.7212 30.93 132.968 30.93C190.215 30.93 242.415 112.554 242.415 194.85Z" fill="#884274"/>
<path d="M240.999 194.107C240.999 275.632 191.251 320.203 132.553 320.203C73.8552 320.203 24.1028 275.632 24.1028 194.107C24.1028 112.569 75.8271 31.6941 132.553 31.6941C189.279 31.6941 240.999 112.569 240.999 194.107Z" fill="#894374"/>
<path d="M239.588 193.364C239.588 274.133 190.296 318.295 132.137 318.295C73.9798 318.295 24.6848 274.133 24.6848 193.364C24.6848 112.578 75.9329 32.4581 132.137 32.4581C188.343 32.4581 239.588 112.578 239.588 193.364Z" fill="#8A4375"/>
<path d="M238.172 192.62C238.172 272.635 189.343 316.387 131.721 316.387C74.1044 316.387 25.2668 272.635 25.2668 192.62C25.2668 112.591 76.0387 33.2199 131.721 33.2199C187.404 33.2199 238.172 112.591 238.172 192.62Z" fill="#8B4475"/>
<path d="M236.761 191.88C236.761 271.136 188.385 314.479 131.306 314.479C74.229 314.479 25.8501 271.136 25.8501 191.88C25.8501 112.602 76.1446 33.9839 131.306 33.9839C186.468 33.9839 236.761 112.602 236.761 191.88Z" fill="#8B4576"/>
<path d="M235.346 191.134C235.346 269.637 187.431 312.572 130.891 312.572C74.3526 312.572 26.4323 269.637 26.4323 191.134C26.4323 112.614 76.2505 34.748 130.891 34.748C185.532 34.748 235.346 112.614 235.346 191.134Z" fill="#8C4676"/>
<path d="M233.934 190.39C233.934 268.139 186.477 310.666 130.475 310.666C74.4772 310.666 27.0143 268.139 27.0143 190.39C27.0143 112.626 76.3563 35.5121 130.475 35.5121C184.596 35.5121 233.934 112.626 233.934 190.39Z" fill="#8D4677"/>
<path d="M232.522 189.647C232.522 266.643 185.522 308.758 130.06 308.758C74.6018 308.758 27.5963 266.643 27.5963 189.647C27.5963 112.639 76.4621 36.2739 130.06 36.2739C183.658 36.2739 232.522 112.639 232.522 189.647Z" fill="#8E4778"/>
<path d="M231.107 188.904C231.107 265.144 184.565 306.85 129.645 306.85C74.7253 306.85 28.1796 265.144 28.1796 188.904C28.1796 112.651 76.5667 37.038 129.645 37.038C182.722 37.038 231.107 112.651 231.107 188.904Z" fill="#8F4878"/>
<path d="M229.696 188.163C229.696 263.645 183.61 304.942 129.23 304.942C74.85 304.942 28.7617 263.645 28.7617 188.163C28.7617 112.662 76.6738 37.8032 129.23 37.8032C181.786 37.8032 229.696 112.662 229.696 188.163Z" fill="#904879"/>
<path d="M228.28 187.417C228.28 262.148 182.657 303.035 128.814 303.035C74.9746 303.035 29.3438 262.148 29.3438 187.417C29.3438 112.674 76.7784 38.5673 128.814 38.5673C180.85 38.5673 228.28 112.674 228.28 187.417Z" fill="#914979"/>
<path d="M226.869 186.674C226.869 260.649 181.702 301.127 128.398 301.127C75.0992 301.127 29.9258 260.649 29.9258 186.674C29.9258 112.687 76.8842 39.3279 128.398 39.3279C179.914 39.3279 226.869 112.687 226.869 186.674Z" fill="#924A7A"/>
<path d="M225.457 185.93C225.457 259.15 180.745 299.219 127.983 299.219C75.2227 299.219 30.5079 259.15 30.5079 185.93C30.5079 112.699 76.9901 40.0931 127.983 40.0931C178.978 40.0931 225.457 112.699 225.457 185.93Z" fill="#934B7A"/>
<path d="M224.042 185.187C224.042 257.652 179.791 297.315 127.568 297.315C75.3474 297.315 31.0912 257.652 31.0912 185.187C31.0912 112.711 77.096 40.8572 127.568 40.8572C178.041 40.8572 224.042 112.711 224.042 185.187Z" fill="#934B7B"/>
<path d="M222.63 184.446C222.63 256.153 178.836 295.407 127.152 295.407C75.472 295.407 31.6732 256.153 31.6732 184.446C31.6732 112.722 77.2018 41.6189 127.152 41.6189C177.103 41.6189 222.63 112.722 222.63 184.446Z" fill="#944C7C"/>
<path d="M221.216 183.7C221.216 254.654 177.879 293.499 126.737 293.499C75.5966 293.499 32.2552 254.654 32.2552 183.7C32.2552 112.735 77.3075 42.383 126.737 42.383C176.167 42.383 221.216 112.735 221.216 183.7Z" fill="#954D7C"/>
<path d="M219.803 182.96C219.803 253.155 176.925 291.591 126.321 291.591C75.7212 291.591 32.8373 253.155 32.8373 182.96C32.8373 112.747 77.4133 43.1471 126.321 43.1471C175.23 43.1471 219.803 112.747 219.803 182.96Z" fill="#964D7D"/>
<path d="M218.392 182.216C218.392 251.66 175.97 289.683 125.906 289.683C75.8448 289.683 33.4194 251.66 33.4194 182.216C33.4194 112.759 77.5192 43.9112 125.906 43.9112C174.294 43.9112 218.392 112.759 218.392 182.216Z" fill="#974E7D"/>
<path d="M216.978 181.473C216.978 250.161 175.017 287.775 125.491 287.775C75.9694 287.775 34.0027 250.161 34.0027 181.473C34.0027 112.77 77.6251 44.6729 125.491 44.6729C173.358 44.6729 216.978 112.77 216.978 181.473Z" fill="#984F7E"/>
<path d="M215.565 180.731C215.565 248.662 174.06 285.866 125.075 285.866C76.094 285.866 34.5847 248.662 34.5847 180.731C34.5847 112.783 77.7309 45.437 125.075 45.437C172.421 45.437 215.565 112.783 215.565 180.731Z" fill="#99507F"/>
<path d="M214.151 179.986C214.151 247.164 173.105 283.962 124.66 283.962C76.2176 283.962 35.1669 247.164 35.1669 179.986C35.1669 112.795 77.8368 46.2023 124.66 46.2023C171.486 46.2023 214.151 112.795 214.151 179.986Z" fill="#9A507F"/>
<path d="M212.738 179.243C212.738 245.665 172.151 282.054 124.245 282.054C76.3422 282.054 35.7489 245.665 35.7489 179.243C35.7489 112.807 77.9426 46.9663 124.245 46.9663C170.549 46.9663 212.738 112.807 212.738 179.243Z" fill="#9B5180"/>
<path d="M211.324 178.501C211.324 244.167 171.193 280.146 123.829 280.146C76.4668 280.146 36.3322 244.167 36.3322 178.501C36.3322 112.819 78.0472 47.7269 123.829 47.7269C169.612 47.7269 211.324 112.819 211.324 178.501Z" fill="#9C5280"/>
<path d="M209.912 177.756C209.912 242.668 170.239 278.238 123.413 278.238C76.5914 278.238 36.9142 242.668 36.9142 177.756C36.9142 112.83 78.1542 48.4922 123.413 48.4922C168.676 48.4922 209.912 112.83 209.912 177.756Z" fill="#9D5281"/>
<path d="M208.5 177.014C208.5 241.17 169.284 276.33 122.998 276.33C76.7149 276.33 37.4962 241.17 37.4962 177.014C37.4962 112.843 78.2588 49.2563 122.998 49.2563C167.738 49.2563 208.5 112.843 208.5 177.014Z" fill="#9E5382"/>
<path d="M207.085 176.271C207.085 239.671 168.331 274.423 122.583 274.423C76.8396 274.423 38.0784 239.671 38.0784 176.271C38.0784 112.855 78.3647 50.0203 122.583 50.0203C166.801 50.0203 207.085 112.855 207.085 176.271Z" fill="#9F5482"/>
<path d="M205.674 175.528C205.674 238.172 167.373 272.517 122.168 272.517C76.9642 272.517 38.6604 238.172 38.6604 175.528C38.6604 112.867 78.4705 50.7821 122.168 50.7821C165.865 50.7821 205.674 112.867 205.674 175.528Z" fill="#9F5583"/>
<path d="M204.259 174.784C204.259 236.673 166.419 270.609 121.752 270.609C77.0889 270.609 39.2437 236.673 39.2437 174.784C39.2437 112.879 78.5764 51.5461 121.752 51.5461C164.929 51.5461 204.259 112.879 204.259 174.784Z" fill="#A05684"/>
<path d="M202.847 174.041C202.847 235.174 165.465 268.701 121.337 268.701C77.2123 268.701 39.8257 235.174 39.8257 174.041C39.8257 112.892 78.6822 52.3102 121.337 52.3102C163.993 52.3102 202.847 112.892 202.847 174.041Z" fill="#A15784"/>
<path d="M201.435 173.298C201.435 233.679 164.508 266.793 120.922 266.793C77.337 266.793 40.4078 233.679 40.4078 173.298C40.4078 112.903 78.7881 53.0755 120.922 53.0755C163.057 53.0755 201.435 112.903 201.435 173.298Z" fill="#A25785"/>
<path d="M200.02 172.554C200.02 232.18 163.553 264.886 120.507 264.886C77.4616 264.886 40.9899 232.18 40.9899 172.554C40.9899 112.915 78.8939 53.8361 120.507 53.8361C162.121 53.8361 200.02 112.915 200.02 172.554Z" fill="#A35885"/>
<path d="M198.608 171.811C198.608 230.682 162.599 262.978 120.09 262.978C77.5863 262.978 41.5731 230.682 41.5731 171.811C41.5731 112.927 78.9997 54.6001 120.09 54.6001C161.183 54.6001 198.608 112.927 198.608 171.811Z" fill="#A45986"/>
<path d="M197.193 171.068C197.193 229.183 161.644 261.07 119.675 261.07C77.7097 261.07 42.1552 229.183 42.1552 171.068C42.1552 112.94 79.1055 55.3654 119.675 55.3654C160.247 55.3654 197.193 112.94 197.193 171.068Z" fill="#A55A87"/>
<path d="M195.782 170.324C195.782 227.684 160.687 259.166 119.26 259.166C77.8344 259.166 42.7373 227.684 42.7373 170.324C42.7373 112.952 79.2114 56.1259 119.26 56.1259C159.311 56.1259 195.782 112.952 195.782 170.324Z" fill="#A65B87"/>
<path d="M194.37 169.581C194.37 226.186 159.734 257.258 118.845 257.258C77.959 257.258 43.3193 226.186 43.3193 169.581C43.3193 112.963 79.3172 56.8912 118.845 56.8912C158.375 56.8912 194.37 112.963 194.37 169.581Z" fill="#A75B88"/>
<path d="M192.955 168.838C192.955 224.688 158.779 255.35 118.429 255.35C78.0837 255.35 43.9026 224.688 43.9026 168.838C43.9026 112.975 79.423 57.6553 118.429 57.6553C157.436 57.6553 192.955 112.975 192.955 168.838Z" fill="#A85C89"/>
<path d="M191.543 168.094C191.543 223.189 157.825 253.441 118.014 253.441C78.2071 253.441 44.4846 223.189 44.4846 168.094C44.4846 112.984 79.5276 58.4194 118.014 58.4194C156.5 58.4194 191.543 112.984 191.543 168.094Z" fill="#A95D89"/>
<path d="M190.128 167.351C190.128 221.69 156.867 251.533 117.599 251.533C78.3318 251.533 45.0668 221.69 45.0668 167.351C45.0668 112.996 79.6347 59.1811 117.599 59.1811C155.564 59.1811 190.128 112.996 190.128 167.351Z" fill="#AA5E8A"/>
<path d="M188.716 166.608C188.716 220.191 155.913 249.625 117.184 249.625C78.4564 249.625 45.6488 220.191 45.6488 166.608C45.6488 113.009 79.7393 59.9452 117.184 59.9452C154.628 59.9452 188.716 113.009 188.716 166.608Z" fill="#AB5F8B"/>
<path d="M187.301 165.864C187.301 218.693 154.958 247.717 116.767 247.717C78.581 247.717 46.2308 218.693 46.2308 165.864C46.2308 113.021 79.8451 60.7093 116.767 60.7093C153.692 60.7093 187.301 113.021 187.301 165.864Z" fill="#AC5F8B"/>
<path d="M185.889 165.121C185.889 217.197 154.001 245.813 116.352 245.813C78.7045 245.813 46.8141 217.197 46.8141 165.121C46.8141 113.033 79.951 61.4745 116.352 61.4745C152.755 61.4745 185.889 113.033 185.889 165.121Z" fill="#AD608C"/>
<path d="M184.478 164.378C184.478 215.699 153.047 243.905 115.937 243.905C78.8291 243.905 47.3961 215.699 47.3961 164.378C47.3961 113.044 80.0568 62.2351 115.937 62.2351C151.818 62.2351 184.478 113.044 184.478 164.378Z" fill="#AE618D"/>
<path d="M183.063 163.634C183.063 214.2 152.093 241.997 115.522 241.997C78.9539 241.997 47.9783 214.2 47.9783 163.634C47.9783 113.056 80.1627 62.9992 115.522 62.9992C150.883 62.9992 183.063 113.056 183.063 163.634Z" fill="#AF628D"/>
<path d="M181.651 162.891C181.651 212.701 151.139 240.089 115.106 240.089C79.0785 240.089 48.5603 212.701 48.5603 162.891C48.5603 113.069 80.2685 63.7644 115.106 63.7644C149.946 63.7644 181.651 113.069 181.651 162.891Z" fill="#B0638E"/>
<path d="M180.237 162.148C180.237 211.202 150.182 238.181 114.691 238.181C79.2019 238.181 49.1436 211.202 49.1436 162.148C49.1436 113.081 80.3743 64.525 114.691 64.525C149.01 64.525 180.237 113.081 180.237 162.148Z" fill="#B1648F"/>
<path d="M178.824 161.404C178.824 209.703 149.227 236.274 114.275 236.274C79.3265 236.274 49.7256 209.703 49.7256 161.404C49.7256 113.093 80.4801 65.2903 114.275 65.2903C148.071 65.2903 178.824 113.093 178.824 161.404Z" fill="#B2658F"/>
<path d="M177.412 160.661C177.412 208.206 148.273 234.366 113.86 234.366C79.4513 234.366 50.3077 208.206 50.3077 160.661C50.3077 113.104 80.586 66.0544 113.86 66.0544C147.135 66.0544 177.412 113.104 177.412 160.661Z" fill="#B36690"/>
<path d="M175.997 159.918C175.997 206.707 147.316 232.46 113.444 232.46C79.5759 232.46 50.8898 206.707 50.8898 159.918C50.8898 113.117 80.6918 66.8184 113.444 66.8184C146.199 66.8184 175.997 113.117 175.997 159.918Z" fill="#B46691"/>
<path d="M174.586 159.174C174.586 205.208 146.361 230.552 113.029 230.552C79.6993 230.552 51.4718 205.208 51.4718 159.174C51.4718 113.129 80.7976 67.5802 113.029 67.5802C145.263 67.5802 174.586 113.129 174.586 159.174Z" fill="#B56791"/>
<path d="M173.171 158.431C173.171 203.709 145.407 228.644 112.614 228.644C79.824 228.644 52.0551 203.709 52.0551 158.431C52.0551 113.141 80.9034 68.3442 112.614 68.3442C144.326 68.3442 173.171 113.141 173.171 158.431Z" fill="#B66892"/>
<path d="M171.76 157.688C171.76 202.211 144.453 226.737 112.199 226.737C79.9487 226.737 52.6372 202.211 52.6372 157.688C52.6372 113.153 81.0093 69.1083 112.199 69.1083C143.39 69.1083 171.76 113.153 171.76 157.688Z" fill="#B76993"/>
<path d="M170.347 156.945C170.347 200.715 143.496 224.829 111.784 224.829C80.0733 224.829 53.2192 200.715 53.2192 156.945C53.2192 113.165 81.1151 69.8724 111.784 69.8724C142.454 69.8724 170.347 113.165 170.347 156.945Z" fill="#B86A94"/>
<path d="M168.933 156.201C168.933 199.217 142.541 222.921 111.368 222.921C80.1967 222.921 53.8013 199.217 53.8013 156.201C53.8013 113.177 81.2198 70.6342 111.368 70.6342C141.518 70.6342 168.933 113.177 168.933 156.201Z" fill="#B96B94"/>
<path d="M167.52 155.458C167.52 197.718 141.587 221.015 110.952 221.015C80.3214 221.015 54.3845 197.718 54.3845 155.458C54.3845 113.189 81.3256 71.3983 110.952 71.3983C140.582 71.3983 167.52 113.189 167.52 155.458Z" fill="#BA6C95"/>
<path d="M166.106 154.715C166.106 196.219 140.63 219.108 110.537 219.108C80.4461 219.108 54.9667 196.219 54.9667 154.715C54.9667 113.201 81.4315 72.1635 110.537 72.1635C139.644 72.1635 166.106 113.201 166.106 154.715Z" fill="#BB6D96"/>
<path d="M164.693 153.971C164.693 194.72 139.676 217.2 110.121 217.2C80.5707 217.2 55.5487 194.72 55.5487 153.971C55.5487 113.214 81.5373 72.9241 110.121 72.9241C138.707 72.9241 164.693 113.214 164.693 153.971Z" fill="#BC6E96"/>
<path d="M163.279 153.228C163.279 193.222 138.721 215.292 109.706 215.292C80.6941 215.292 56.1307 193.222 56.1307 153.228C56.1307 113.225 81.6431 73.6893 109.706 73.6893C137.771 73.6893 163.279 113.225 163.279 153.228Z" fill="#BD6F97"/>
<path d="M161.868 152.485C161.868 191.723 137.765 213.384 109.291 213.384C80.8189 213.384 56.7129 191.723 56.7129 152.485C56.7129 113.237 81.749 74.4534 109.291 74.4534C136.834 74.4534 161.868 113.237 161.868 152.485Z" fill="#BF7098"/>
<path d="M160.456 151.741C160.456 190.225 136.811 211.476 108.876 211.476C80.9435 211.476 57.2961 190.225 57.2961 151.741C57.2961 113.249 81.8548 75.2175 108.876 75.2175C135.898 75.2175 160.456 113.249 160.456 151.741Z" fill="#C07199"/>
<path d="M159.041 150.998C159.041 188.726 135.856 209.568 108.461 209.568C81.0681 209.568 57.8782 188.726 57.8782 150.998C57.8782 113.262 81.9606 75.9792 108.461 75.9792C134.962 75.9792 159.041 113.262 159.041 150.998Z" fill="#C17299"/>
<path d="M157.629 150.255C157.629 187.228 134.901 207.664 108.044 207.664C81.1915 207.664 58.4602 187.228 58.4602 150.255C58.4602 113.274 82.0664 76.7433 108.044 76.7433C134.025 76.7433 157.629 113.274 157.629 150.255Z" fill="#C2729A"/>
<path d="M156.214 149.511C156.214 185.729 133.945 205.756 107.629 205.756C81.3162 205.756 59.0422 185.729 59.0422 149.511C59.0422 113.285 82.1722 77.5074 107.629 77.5074C133.089 77.5074 156.214 113.285 156.214 149.511Z" fill="#C3739B"/>
<path d="M154.802 148.768C154.802 184.234 132.99 203.848 107.214 203.848C81.4409 203.848 59.6244 184.234 59.6244 148.768C59.6244 113.297 82.2781 78.2715 107.214 78.2715C132.153 78.2715 154.802 113.297 154.802 148.768Z" fill="#C4759B"/>
<path d="M153.391 148.025C153.391 182.735 132.035 201.94 106.798 201.94C81.5655 201.94 60.2076 182.735 60.2076 148.025C60.2076 113.31 82.384 79.0332 106.798 79.0332C131.216 79.0332 153.391 113.31 153.391 148.025Z" fill="#C5769C"/>
<path d="M151.975 147.281C151.975 181.236 131.079 200.032 106.383 200.032C81.689 200.032 60.7897 181.236 60.7897 147.281C60.7897 113.322 82.4897 79.7973 106.383 79.7973C130.28 79.7973 151.975 113.322 151.975 147.281Z" fill="#C6779D"/>
<path d="M150.564 146.538C150.564 179.737 130.124 198.125 105.968 198.125C81.8137 198.125 61.3718 179.737 61.3718 146.538C61.3718 113.334 82.5957 80.5626 105.968 80.5626C129.342 80.5626 150.564 113.334 150.564 146.538Z" fill="#C7789E"/>
<path d="M149.149 145.795C149.149 178.238 129.17 196.217 105.553 196.217C81.9383 196.217 61.9539 178.238 61.9539 145.795C61.9539 113.345 82.7003 81.3231 105.553 81.3231C128.406 81.3231 149.149 113.345 149.149 145.795Z" fill="#C8799E"/>
<path d="M147.737 145.051C147.737 176.74 128.215 194.311 105.136 194.311C82.0629 194.311 62.5371 176.74 62.5371 145.051C62.5371 113.357 82.8061 82.0884 105.136 82.0884C127.47 82.0884 147.737 113.357 147.737 145.051Z" fill="#C97A9F"/>
<path d="M146.325 144.308C146.325 175.241 127.26 192.403 104.721 192.403C82.1864 192.403 63.1191 175.241 63.1191 144.308C63.1191 113.37 82.9119 82.8525 104.721 82.8525C126.533 82.8525 146.325 113.37 146.325 144.308Z" fill="#CA7AA0"/>
<path d="M144.91 143.565C144.91 173.742 126.304 190.496 104.306 190.496C82.311 190.496 63.7012 173.742 63.7012 143.565C63.7012 113.382 83.0177 83.6165 104.306 83.6165C125.597 83.6165 144.91 113.382 144.91 143.565Z" fill="#CC7CA1"/>
<path d="M143.498 142.821C143.498 172.244 125.349 188.588 103.891 188.588C82.4357 188.588 64.2833 172.244 64.2833 142.821C64.2833 113.391 83.1236 84.3783 103.891 84.3783C124.66 84.3783 143.498 113.391 143.498 142.821Z" fill="#CD7DA1"/>
<path d="M142.083 142.078C142.083 170.746 124.394 186.68 103.476 186.68C82.5603 186.68 64.8654 170.746 64.8654 142.078C64.8654 113.403 83.2294 85.1424 103.476 85.1424C123.724 85.1424 142.083 113.403 142.083 142.078Z" fill="#CE7EA2"/>
<path d="M140.672 141.335C140.672 169.249 123.439 184.772 103.06 184.772C82.6838 184.772 65.4486 169.249 65.4486 141.335C65.4486 113.415 83.3352 85.9064 103.06 85.9064C122.787 85.9064 140.672 113.415 140.672 141.335Z" fill="#CF7FA3"/>
<path d="M139.259 140.591C139.259 167.75 122.483 182.866 102.645 182.866C82.8084 182.866 66.0306 167.75 66.0306 140.591C66.0306 113.426 83.441 86.6705 102.645 86.6705C121.851 86.6705 139.259 113.426 139.259 140.591Z" fill="#D080A4"/>
<path d="M137.845 139.848C137.845 166.253 121.529 180.959 102.23 180.959C82.9331 180.959 66.6128 166.253 66.6128 139.848C66.6128 113.439 83.5469 87.4323 102.23 87.4323C120.915 87.4323 137.845 113.439 137.845 139.848Z" fill="#D181A5"/>
<path d="M136.432 139.106C136.432 164.754 120.574 179.051 101.815 179.051C83.0577 179.051 67.1948 164.754 67.1948 139.106C67.1948 113.451 83.6527 88.1964 101.815 88.1964C119.977 88.1964 136.432 113.451 136.432 139.106Z" fill="#D282A5"/>
<path d="M135.02 138.363C135.02 163.255 119.619 177.143 101.398 177.143C83.1813 177.143 67.777 163.255 67.777 138.363C67.777 113.463 83.7586 88.9616 101.398 88.9616C119.042 88.9616 135.02 113.463 135.02 138.363Z" fill="#D383A6"/>
<path d="M133.606 137.619C133.606 161.757 118.663 175.235 100.983 175.235C83.3058 175.235 68.3601 161.757 68.3601 137.619C68.3601 113.475 83.8644 89.7222 100.983 89.7222C118.104 89.7222 133.606 113.475 133.606 137.619Z" fill="#D484A7"/>
<path d="M132.193 136.876C132.193 160.258 117.708 173.327 100.568 173.327C83.4304 173.327 68.9421 160.258 68.9421 136.876C68.9421 113.488 83.9702 90.4863 100.568 90.4863C117.168 90.4863 132.193 113.488 132.193 136.876Z" fill="#D685A8"/>
<path d="M130.779 136.133C130.779 158.759 116.753 171.419 100.153 171.419C83.5551 171.419 69.5243 158.759 69.5243 136.133C69.5243 113.499 84.0761 91.2515 100.153 91.2515C116.232 91.2515 130.779 113.499 130.779 136.133Z" fill="#D786A9"/>
<path d="M129.367 135.389C129.367 157.26 115.798 169.515 99.7367 169.515C83.6786 169.515 70.1063 157.26 70.1063 135.389C70.1063 113.511 84.1807 92.0156 99.7367 92.0156C115.295 92.0156 129.367 113.511 129.367 135.389Z" fill="#D887A9"/>
<path d="M127.954 134.646C127.954 155.761 114.843 167.607 99.3216 167.607C83.8032 167.607 70.6896 155.761 70.6896 134.646C70.6896 113.523 84.2865 92.7773 99.3216 92.7773C114.359 92.7773 127.954 113.523 127.954 134.646Z" fill="#D988AA"/>
<path d="M126.54 133.903C126.54 154.264 113.888 165.699 98.9066 165.699C83.928 165.699 71.2717 154.264 71.2717 133.903C71.2717 113.536 84.3924 93.5414 98.9066 93.5414C113.422 93.5414 126.54 113.536 126.54 133.903Z" fill="#DA89AB"/>
<path d="M125.128 133.159C125.128 152.765 112.933 163.791 98.4914 163.791C84.0526 163.791 71.8538 152.765 71.8538 133.159C71.8538 113.547 84.4982 94.3055 98.4914 94.3055C112.486 94.3055 125.128 113.547 125.128 133.159Z" fill="#DB8AAC"/>
<path d="M123.714 132.416C123.714 151.269 111.978 161.882 98.0751 161.882C84.176 161.882 72.4358 151.269 72.4358 132.416C72.4358 113.559 84.604 95.0696 98.0751 95.0696C111.549 95.0696 123.714 113.559 123.714 132.416Z" fill="#DD8BAD"/>
<path d="M122.301 131.673C122.301 149.77 111.022 159.974 97.66 159.974C84.3006 159.974 73.0178 149.77 73.0178 131.673C73.0178 113.571 84.7098 95.8313 97.66 95.8313C110.613 95.8313 122.301 113.571 122.301 131.673Z" fill="#DE8DAE"/>
<path d="M120.889 130.929C120.889 148.272 110.067 158.07 97.245 158.07C84.4254 158.07 73.6012 148.272 73.6012 130.929C73.6012 113.583 84.8158 96.5954 97.245 96.5954C109.677 96.5954 120.889 113.583 120.889 130.929Z" fill="#DF8EAE"/>
<path d="M119.475 130.186C119.475 146.773 109.112 156.162 96.8299 156.162C84.55 156.162 74.1832 146.773 74.1832 130.186C74.1832 113.596 84.9216 97.3607 96.8299 97.3607C108.739 97.3607 119.475 113.596 119.475 130.186Z" fill="#E08FAF"/>
<path d="M118.062 129.443C118.062 145.275 108.157 154.254 96.4136 154.254C84.6734 154.254 74.7653 145.275 74.7653 129.443C74.7653 113.607 85.0273 98.1247 96.4136 98.1247C107.803 98.1247 118.062 113.607 118.062 129.443Z" fill="#E190B0"/>
<path d="M116.65 128.699C116.65 143.776 107.203 152.347 95.9986 152.347C84.7981 152.347 75.3474 143.776 75.3474 128.699C75.3474 113.619 85.1333 98.8853 95.9986 98.8853C106.867 98.8853 116.65 113.619 116.65 128.699Z" fill="#E291B1"/>
<path d="M115.236 127.956C115.236 142.277 106.247 150.439 95.5835 150.439C84.9227 150.439 75.9294 142.277 75.9294 127.956C75.9294 113.631 85.2391 99.6506 95.5835 99.6506C105.93 99.6506 115.236 113.631 115.236 127.956Z" fill="#E492B2"/>
<path d="M113.823 127.213C113.823 140.778 105.292 148.531 95.1684 148.531C85.0474 148.531 76.5127 140.778 76.5127 127.213C76.5127 113.644 85.3449 100.415 95.1684 100.415C104.994 100.415 113.823 113.644 113.823 127.213Z" fill="#E593B3"/>
<path d="M112.411 126.469C112.411 139.28 104.337 146.623 94.7521 146.623C85.1708 146.623 77.0947 139.28 77.0947 126.469C77.0947 113.656 85.4507 101.179 94.7521 101.179C104.057 101.179 112.411 113.656 112.411 126.469Z" fill="#E694B3"/>
<path d="M110.997 125.726C110.997 137.781 103.382 144.715 94.3369 144.715C85.2954 144.715 77.6768 137.781 77.6768 125.726C77.6768 113.667 85.5565 101.94 94.3369 101.94C103.121 101.94 110.997 113.667 110.997 125.726Z" fill="#E796B4"/>
<path d="M109.584 124.983C109.584 136.283 102.426 142.81 93.9219 142.81C85.4201 142.81 78.2589 136.283 78.2589 124.983C78.2589 113.679 85.6612 102.705 93.9219 102.705C102.185 102.705 109.584 113.679 109.584 124.983Z" fill="#E897B5"/>
<path d="M108.171 124.239C108.171 134.787 101.471 140.902 93.5068 140.902C85.5448 140.902 78.8422 134.787 78.8422 124.239C78.8422 113.692 85.767 103.469 93.5068 103.469C101.248 103.469 108.171 113.692 108.171 124.239Z" fill="#EA98B6"/>
<path d="M106.758 123.496C106.758 133.288 100.516 138.994 93.0917 138.994C85.6682 138.994 79.4242 133.288 79.4242 123.496C79.4242 113.704 85.8728 104.23 93.0917 104.23C100.312 104.23 106.758 113.704 106.758 123.496Z" fill="#EB99B7"/>
<path d="M105.345 122.753C105.345 131.789 99.5615 137.086 92.6754 137.086C85.7928 137.086 80.0062 131.789 80.0062 122.753C80.0062 113.716 85.9786 104.994 92.6754 104.994C99.3745 104.994 105.345 113.716 105.345 122.753Z" fill="#EC9AB8"/>
<path d="M103.931 122.009C103.931 130.292 98.6055 135.178 92.2604 135.178C85.9176 135.178 80.5884 130.292 80.5884 122.009C80.5884 113.727 86.0845 105.759 92.2604 105.759C98.4386 105.759 103.931 113.727 103.931 122.009Z" fill="#ED9CB9"/>
<path d="M102.519 121.266C102.519 128.793 97.6507 133.27 91.8452 133.27C86.0422 133.27 81.1704 128.793 81.1704 121.266C81.1704 113.74 86.1903 106.524 91.8452 106.524C97.5013 106.524 102.519 113.74 102.519 121.266Z" fill="#EE9DBA"/>
<path d="M101.105 120.523C101.105 127.294 96.6958 131.366 91.429 131.366C86.1656 131.366 81.7537 127.294 81.7537 120.523C81.7537 113.752 86.2962 107.284 91.429 107.284C96.5653 107.284 101.105 113.752 101.105 120.523Z" fill="#F09EBB"/>
<path d="M99.692 119.78C99.692 125.795 95.741 129.457 91.0138 129.457C86.2902 129.457 82.3357 125.795 82.3357 119.78C82.3357 113.764 86.402 108.05 91.0138 108.05C95.6293 108.05 99.692 113.764 99.692 119.78Z" fill="#F19FBB"/>
<path d="M98.2798 119.036C98.2798 124.296 94.7862 127.549 90.5988 127.549C86.415 127.549 82.9178 124.296 82.9178 119.036C82.9178 113.776 86.5079 108.814 90.5988 108.814C94.6921 108.814 98.2798 113.776 98.2798 119.036Z" fill="#F2A0BC"/>
<path d="M96.8663 118.293C96.8663 122.798 93.8302 125.641 90.1837 125.641C86.5396 125.641 83.4999 122.798 83.4999 118.293C83.4999 113.788 86.6137 109.578 90.1837 109.578C93.7561 109.578 96.8663 113.788 96.8663 118.293Z" fill="#F3A2BD"/>
<path d="M95.4529 117.55C95.4529 121.299 92.8753 123.733 89.7686 123.733C86.6631 123.733 84.0831 121.299 84.0831 117.55C84.0831 113.797 86.7195 110.34 89.7686 110.34C92.8201 110.34 95.4529 113.797 95.4529 117.55Z" fill="#F5A3BE"/>
<path d="M94.0394 116.806C94.0394 119.8 91.9205 121.825 89.3523 121.825C86.7877 121.825 84.6652 119.8 84.6652 116.806C84.6652 113.808 86.8253 111.104 89.3523 111.104C91.8828 111.104 94.0394 113.808 94.0394 116.806Z" fill="#F6A4BF"/>
<path d="M92.6273 116.063C92.6273 118.305 90.9645 119.918 88.9373 119.918C86.9124 119.918 85.2473 118.305 85.2473 116.063C85.2473 113.821 86.9312 111.868 88.9373 111.868C90.9469 111.868 92.6273 113.821 92.6273 116.063Z" fill="#F7A5C0"/>
<path d="M91.2138 115.32C91.2138 116.806 90.0097 118.013 88.5222 118.013C87.037 118.013 85.8293 116.806 85.8293 115.32C85.8293 113.833 87.037 112.629 88.5222 112.629C90.0097 112.629 91.2138 113.833 91.2138 115.32Z" fill="#F8A6C1"/>
</svg>
