<svg width="45" height="60" viewBox="0 0 45 60" fill="none" xmlns="http://www.w3.org/2000/svg">
<g clip-path="url(#clip0_56_4090)">
<path d="M44.8403 33.7717C44.8403 50.6864 34.5618 59.9111 22.4373 59.9111C10.3136 59.9111 0.0340881 50.6864 0.0340881 33.7717C0.0340881 16.8538 10.7237 0.0583038 22.4373 0.0583038C34.1514 0.0583038 44.8403 16.8538 44.8403 33.7717Z" fill="#692B5F"/>
<path d="M44.6285 33.66C44.6285 50.461 34.4186 59.6242 22.375 59.6242C10.3322 59.6242 0.121399 50.461 0.121399 33.66C0.121399 16.8558 10.7396 0.173203 22.375 0.173203C34.0105 0.173203 44.6285 16.8558 44.6285 33.66Z" fill="#692C60"/>
<path d="M44.4163 33.5481C44.4163 50.2356 34.275 59.3373 22.3128 59.3373C10.3509 59.3373 0.208893 50.2356 0.208893 33.5481C0.208893 16.8576 10.7555 0.288284 22.3128 0.288284C33.8701 0.288284 44.4163 16.8576 44.4163 33.5481Z" fill="#6A2D60"/>
<path d="M44.2046 33.4364C44.2046 50.0108 34.132 59.0504 22.2503 59.0504C10.3696 59.0504 0.296204 50.0108 0.296204 33.4364C0.296204 16.8593 10.7714 0.402649 22.2503 0.402649C33.7297 0.402649 44.2046 16.8593 44.2046 33.4364Z" fill="#6B2D61"/>
<path d="M43.9923 33.3247C43.9923 49.7854 33.9888 58.7635 22.1881 58.7635C10.3881 58.7635 0.383514 49.7854 0.383514 33.3247C0.383514 16.8607 10.7872 0.517548 22.1881 0.517548C33.5893 0.517548 43.9923 16.8607 43.9923 33.3247Z" fill="#6B2D61"/>
<path d="M43.7806 33.2128C43.7806 49.56 33.8452 58.4766 22.1258 58.4766C10.4068 58.4766 0.470825 49.56 0.470825 33.2128C0.470825 16.8625 10.8031 0.632629 22.1258 0.632629C33.4487 0.632629 43.7806 16.8625 43.7806 33.2128Z" fill="#6C2E62"/>
<path d="M43.5688 33.1011C43.5688 49.3346 33.7021 58.1902 22.0635 58.1902C10.4255 58.1902 0.558136 49.3346 0.558136 33.1011C0.558136 16.8643 10.8188 0.747528 22.0635 0.747528C33.3083 0.747528 43.5688 16.8643 43.5688 33.1011Z" fill="#6D2E62"/>
<path d="M43.3566 32.9893C43.3566 49.1093 33.5589 57.9033 22.0011 57.9033C10.4442 57.9033 0.64563 49.1093 0.64563 32.9893C0.64563 16.8662 10.8347 0.862076 22.0011 0.862076C33.1679 0.862076 43.3566 16.8662 43.3566 32.9893Z" fill="#6E2F63"/>
<path d="M43.1447 32.8776C43.1447 48.8839 33.4159 57.6165 21.9388 57.6165C10.4629 57.6165 0.732941 48.8839 0.732941 32.8776C0.732941 16.868 10.8506 0.976974 21.9388 0.976974C33.0275 0.976974 43.1447 16.868 43.1447 32.8776Z" fill="#6E3063"/>
<path d="M42.9326 32.7657C42.9326 48.6585 33.2721 57.3296 21.8766 57.3296C10.4814 57.3296 0.820251 48.6585 0.820251 32.7657C0.820251 16.8698 10.8664 1.09187 21.8766 1.09187C32.8871 1.09187 42.9326 16.8698 42.9326 32.7657Z" fill="#6F3064"/>
<path d="M42.7207 32.654C42.7207 48.4333 33.129 57.0427 21.8141 57.0427C10.5001 57.0427 0.907532 48.4333 0.907532 32.654C0.907532 16.8715 10.8823 1.20642 21.8141 1.20642C32.7466 1.20642 42.7207 16.8715 42.7207 32.654Z" fill="#703164"/>
<path d="M42.5085 32.5423C42.5085 48.2079 32.9858 56.7556 21.7519 56.7556C10.5188 56.7556 0.995026 48.2079 0.995026 32.5423C0.995026 16.8735 10.8982 1.32132 21.7519 1.32132C32.6061 1.32132 42.5085 16.8735 42.5085 32.5423Z" fill="#713165"/>
<path d="M42.2968 32.4304C42.2968 47.9825 32.8422 56.4692 21.6896 56.4692C10.5375 56.4692 1.08234 47.9825 1.08234 32.4304C1.08234 16.8752 10.914 1.43622 21.6896 1.43622C32.4653 1.43622 42.2968 16.8752 42.2968 32.4304Z" fill="#713165"/>
<path d="M42.085 32.3187C42.085 47.7572 32.6992 56.1823 21.6273 56.1823C10.556 56.1823 1.16965 47.7572 1.16965 32.3187C1.16965 16.877 10.9299 1.5513 21.6273 1.5513C32.3249 1.5513 42.085 16.877 42.085 32.3187Z" fill="#723265"/>
<path d="M41.8728 32.207C41.8728 47.5323 32.556 55.8954 21.5649 55.8954C10.5747 55.8954 1.25696 47.5323 1.25696 32.207C1.25696 16.8788 10.9458 1.66566 21.5649 1.66566C32.1843 1.66566 41.8728 16.8788 41.8728 32.207Z" fill="#733366"/>
<path d="M41.661 32.0951C41.661 47.3069 32.4129 55.6085 21.5026 55.6085C10.5934 55.6085 1.34427 47.3069 1.34427 32.0951C1.34427 16.8807 10.9617 1.78056 21.5026 1.78056C32.0439 1.78056 41.661 16.8807 41.661 32.0951Z" fill="#743366"/>
<path d="M41.4488 31.9833C41.4488 47.0816 32.2694 55.3216 21.4404 55.3216C10.6119 55.3216 1.43176 47.0816 1.43176 31.9833C1.43176 16.8825 10.9776 1.89565 21.4404 1.89565C31.9035 1.89565 41.4488 16.8825 41.4488 31.9833Z" fill="#753467"/>
<path d="M41.237 31.8716C41.237 46.8562 32.1261 55.0347 21.3779 55.0347C10.6306 55.0347 1.51907 46.8562 1.51907 31.8716C1.51907 16.8842 10.9934 2.01001 21.3779 2.01001C31.7631 2.01001 41.237 16.8842 41.237 31.8716Z" fill="#753468"/>
<path d="M41.0253 31.7597C41.0253 46.6308 31.9831 54.7478 21.3157 54.7478C10.6493 54.7478 1.60638 46.6308 1.60638 31.7597C1.60638 16.886 11.0093 2.12509 21.3157 2.12509C31.6227 2.12509 41.0253 16.886 41.0253 31.7597Z" fill="#763568"/>
<path d="M40.8129 31.648C40.8129 46.4054 31.8399 54.4613 21.2534 54.4613C10.668 54.4613 1.6937 46.4054 1.6937 31.648C1.6937 16.8878 11.0252 2.23999 21.2534 2.23999C31.4823 2.23999 40.8129 16.8878 40.8129 31.648Z" fill="#773568"/>
<path d="M40.6013 31.5363C40.6013 46.18 31.6963 54.1744 21.1911 54.1744C10.6867 54.1744 1.78119 46.18 1.78119 31.5363C1.78119 16.8897 11.0409 2.35489 21.1911 2.35489C31.3418 2.35489 40.6013 16.8897 40.6013 31.5363Z" fill="#783669"/>
<path d="M40.3891 31.4244C40.3891 45.9546 31.5532 53.8875 21.1287 53.8875C10.7052 53.8875 1.8685 45.9546 1.8685 31.4244C1.8685 16.8915 11.0568 2.46944 21.1287 2.46944C31.2014 2.46944 40.3891 16.8915 40.3891 31.4244Z" fill="#783769"/>
<path d="M40.1772 31.3127C40.1772 45.7294 31.41 53.6006 21.0666 53.6006C10.7239 53.6006 1.95581 45.7294 1.95581 31.3127C1.95581 16.8933 11.0726 2.58434 21.0666 2.58434C31.0606 2.58434 40.1772 16.8933 40.1772 31.3127Z" fill="#79376A"/>
<path d="M39.9654 31.201C39.9654 45.5041 31.2664 53.3137 21.0044 53.3137C10.7426 53.3137 2.04312 45.5041 2.04312 31.201C2.04312 16.895 11.0885 2.69923 21.0044 2.69923C30.92 2.69923 39.9654 16.895 39.9654 31.201Z" fill="#7A386B"/>
<path d="M39.7532 31.0891C39.7532 45.2787 31.1232 53.0268 20.9421 53.0268C10.7613 53.0268 2.13043 45.2787 2.13043 31.0891C2.13043 16.897 11.1044 2.81413 20.9421 2.81413C30.7796 2.81413 39.7532 16.897 39.7532 31.0891Z" fill="#7B386B"/>
<path d="M39.5414 30.9773C39.5414 45.0536 30.9802 52.7399 20.8798 52.7399C10.7798 52.7399 2.21793 45.0536 2.21793 30.9773C2.21793 16.8987 11.1203 2.92868 20.8798 2.92868C30.6392 2.92868 39.5414 16.8987 39.5414 30.9773Z" fill="#7C396C"/>
<path d="M39.3292 30.8656C39.3292 44.8284 30.8369 52.4536 20.8174 52.4536C10.7985 52.4536 2.30524 44.8284 2.30524 30.8656C2.30524 16.9005 11.1361 3.04358 20.8174 3.04358C30.4988 3.04358 39.3292 16.9005 39.3292 30.8656Z" fill="#7C396C"/>
<path d="M39.1175 30.7537C39.1175 44.6031 30.6934 52.1667 20.7551 52.1667C10.8172 52.1667 2.39255 44.6031 2.39255 30.7537C2.39255 16.9023 11.152 3.15866 20.7551 3.15866C30.3584 3.15866 39.1175 16.9023 39.1175 30.7537Z" fill="#7D3A6D"/>
<path d="M38.9052 30.642C38.9052 44.3777 30.5503 51.8796 20.6929 51.8796C10.8358 51.8796 2.47986 44.3777 2.47986 30.642C2.47986 16.9042 11.1679 3.27356 20.6929 3.27356C30.218 3.27356 38.9052 16.9042 38.9052 30.642Z" fill="#7E3B6D"/>
<path d="M38.6935 30.5303C38.6935 44.1523 30.4071 51.5927 20.6306 51.5927C10.8544 51.5927 2.56717 44.1523 2.56717 30.5303C2.56717 16.906 11.1838 3.38811 20.6306 3.38811C30.0774 3.38811 38.6935 16.906 38.6935 30.5303Z" fill="#7F3B6E"/>
<path d="M38.4816 30.4184C38.4816 43.9269 30.2635 51.3058 20.5681 51.3058C10.8731 51.3058 2.65463 43.9269 2.65463 30.4184C2.65463 16.9078 11.1996 3.50301 20.5681 3.50301C29.937 3.50301 38.4816 16.9078 38.4816 30.4184Z" fill="#803C6E"/>
<path d="M38.2694 30.3067C38.2694 43.7015 30.1204 51.0189 20.5059 51.0189C10.8918 51.0189 2.74194 43.7015 2.74194 30.3067C2.74194 16.9095 11.2155 3.6179 20.5059 3.6179C29.7966 3.6179 38.2694 16.9095 38.2694 30.3067Z" fill="#813D6F"/>
<path d="M38.0576 30.195C38.0576 43.4762 29.9772 50.7325 20.4436 50.7325C10.9105 50.7325 2.82925 43.4762 2.82925 30.195C2.82925 16.9115 11.2314 3.73245 20.4436 3.73245C29.6562 3.73245 38.0576 16.9115 38.0576 30.195Z" fill="#813D6F"/>
<path d="M37.8454 30.0833C37.8454 43.2508 29.8342 50.4456 20.3813 50.4456C10.929 50.4456 2.91656 43.2508 2.91656 30.0833C2.91656 16.9132 11.2472 3.84735 20.3813 3.84735C29.5153 3.84735 37.8454 16.9132 37.8454 30.0833Z" fill="#823E70"/>
<path d="M37.6336 29.9713C37.6336 43.0256 29.6906 50.1587 20.3189 50.1587C10.9477 50.1587 3.00388 43.0256 3.00388 29.9713C3.00388 16.915 11.2629 3.96225 20.3189 3.96225C29.3749 3.96225 37.6336 16.915 37.6336 29.9713Z" fill="#833E70"/>
<path d="M37.4219 29.8596C37.4219 42.8002 29.5474 49.8718 20.2566 49.8718C10.9664 49.8718 3.09137 42.8002 3.09137 29.8596C3.09137 16.9168 11.2788 4.07715 20.2566 4.07715C29.2345 4.07715 37.4219 16.9168 37.4219 29.8596Z" fill="#843F71"/>
<path d="M37.2097 29.7479C37.2097 42.5752 29.4042 49.5849 20.1944 49.5849C10.985 49.5849 3.17868 42.5752 3.17868 29.7479C3.17868 16.9187 11.2947 4.1917 20.1944 4.1917C29.0941 4.1917 37.2097 16.9187 37.2097 29.7479Z" fill="#854071"/>
<path d="M36.9979 29.636C36.9979 42.3498 29.2606 49.2981 20.1321 49.2981C11.0037 49.2981 3.26599 42.3498 3.26599 29.636C3.26599 16.9205 11.3106 4.30659 20.1321 4.30659C28.9537 4.30659 36.9979 16.9205 36.9979 29.636Z" fill="#864072"/>
<path d="M36.7857 29.5243C36.7857 42.1246 29.1175 49.0112 20.0697 49.0112C11.0224 49.0112 3.3533 42.1246 3.3533 29.5243C3.3533 16.9223 11.3264 4.42168 20.0697 4.42168C28.8131 4.42168 36.7857 16.9223 36.7857 29.5243Z" fill="#864172"/>
<path d="M36.5739 29.4126C36.5739 41.8992 28.9743 48.7246 20.0074 48.7246C11.0411 48.7246 3.4408 41.8992 3.4408 29.4126C3.4408 16.9237 11.3423 4.53658 20.0074 4.53658C28.6727 4.53658 36.5739 16.9237 36.5739 29.4126Z" fill="#874273"/>
<path d="M36.3622 29.3007C36.3622 41.6738 28.8313 48.4377 19.9452 48.4377C11.0596 48.4377 3.52811 41.6738 3.52811 29.3007C3.52811 16.9254 11.3582 4.65112 19.9452 4.65112C28.5323 4.65112 36.3622 16.9254 36.3622 29.3007Z" fill="#884274"/>
<path d="M36.1498 29.189C36.1498 41.4484 28.6877 48.1508 19.8829 48.1508C11.0783 48.1508 3.61542 41.4484 3.61542 29.189C3.61542 16.9277 11.3741 4.76602 19.8829 4.76602C28.3919 4.76602 36.1498 16.9277 36.1498 29.189Z" fill="#894374"/>
<path d="M35.9382 29.0773C35.9382 41.2231 28.5445 47.8639 19.8206 47.8639C11.097 47.8639 3.70273 41.2231 3.70273 29.0773C3.70273 16.929 11.3899 4.88092 19.8206 4.88092C28.2515 4.88092 35.9382 16.929 35.9382 29.0773Z" fill="#8A4375"/>
<path d="M35.7258 28.9654C35.7258 40.9977 28.4014 47.577 19.7582 47.577C11.1157 47.577 3.79004 40.9977 3.79004 28.9654C3.79004 16.9309 11.4058 4.99547 19.7582 4.99547C28.1106 4.99547 35.7258 16.9309 35.7258 28.9654Z" fill="#8B4475"/>
<path d="M35.5142 28.8542C35.5142 40.7723 28.2578 47.2901 19.6959 47.2901C11.1344 47.2901 3.87753 40.7723 3.87753 28.8542C3.87753 16.9327 11.4217 5.11037 19.6959 5.11037C27.9702 5.11037 35.5142 16.9327 35.5142 28.8542Z" fill="#8B4576"/>
<path d="M35.302 28.7419C35.302 40.5469 28.1146 47.0032 19.6337 47.0032C11.1529 47.0032 3.96484 40.5469 3.96484 28.7419C3.96484 16.9345 11.4376 5.22527 19.6337 5.22527C27.8298 5.22527 35.302 16.9345 35.302 28.7419Z" fill="#8C4676"/>
<path d="M35.0901 28.63C35.0901 40.3217 27.9716 46.7167 19.5712 46.7167C11.1716 46.7167 4.05215 40.3217 4.05215 28.63C4.05215 16.9362 11.4535 5.34016 19.5712 5.34016C27.6894 5.34016 35.0901 16.9362 35.0901 28.63Z" fill="#8D4677"/>
<path d="M34.8783 28.5183C34.8783 40.0967 27.8283 46.4298 19.509 46.4298C11.1903 46.4298 4.13947 40.0967 4.13947 28.5183C4.13947 16.9382 11.4693 5.45471 19.509 5.45471C27.5488 5.45471 34.8783 16.9382 34.8783 28.5183Z" fill="#8E4778"/>
<path d="M34.6661 28.4066C34.6661 39.8713 27.6847 46.1429 19.4467 46.1429C11.2088 46.1429 4.22693 39.8713 4.22693 28.4066C4.22693 16.9399 11.485 5.56961 19.4467 5.56961C27.4083 5.56961 34.6661 16.9399 34.6661 28.4066Z" fill="#8F4878"/>
<path d="M34.4544 28.2952C34.4544 39.6459 27.5415 45.856 19.3844 45.856C11.2275 45.856 4.31424 39.6459 4.31424 28.2952C4.31424 16.9417 11.5011 5.68469 19.3844 5.68469C27.2679 5.68469 34.4544 16.9417 34.4544 28.2952Z" fill="#904879"/>
<path d="M34.242 28.183C34.242 39.4207 27.3985 45.5691 19.3221 45.5691C11.2462 45.5691 4.40155 39.4207 4.40155 28.183C4.40155 16.9435 11.5168 5.79959 19.3221 5.79959C27.1275 5.79959 34.242 16.9435 34.242 28.183Z" fill="#914979"/>
<path d="M34.0304 28.0713C34.0304 39.1953 27.2552 45.2822 19.2597 45.2822C11.2649 45.2822 4.48886 39.1953 4.48886 28.0713C4.48886 16.9454 11.5326 5.91396 19.2597 5.91396C26.9871 5.91396 34.0304 16.9454 34.0304 28.0713Z" fill="#924A7A"/>
<path d="M33.8185 27.9594C33.8185 38.97 27.1117 44.9953 19.1974 44.9953C11.2834 44.9953 4.57617 38.97 4.57617 27.9594C4.57617 16.9472 11.5485 6.02904 19.1974 6.02904C26.8467 6.02904 33.8185 16.9472 33.8185 27.9594Z" fill="#934B7A"/>
<path d="M33.6063 27.8477C33.6063 38.7446 26.9686 44.709 19.1352 44.709C11.3021 44.709 4.66367 38.7446 4.66367 27.8477C4.66367 16.9489 11.5644 6.14394 19.1352 6.14394C26.7062 6.14394 33.6063 16.9489 33.6063 27.8477Z" fill="#934B7B"/>
<path d="M33.3945 27.7363C33.3945 38.5192 26.8254 44.4221 19.0727 44.4221C11.3208 44.4221 4.75098 38.5192 4.75098 27.7363C4.75098 16.9507 11.5803 6.25848 19.0727 6.25848C26.5654 6.25848 33.3945 16.9507 33.3945 27.7363Z" fill="#944C7C"/>
<path d="M33.1823 27.624C33.1823 38.2938 26.6818 44.1352 19.0105 44.1352C11.3395 44.1352 4.83829 38.2938 4.83829 27.624C4.83829 16.9527 11.5961 6.37338 19.0105 6.37338C26.425 6.37338 33.1823 16.9527 33.1823 27.624Z" fill="#954D7C"/>
<path d="M32.9705 27.5128C32.9705 38.0684 26.5388 43.8483 18.9482 43.8483C11.3582 43.8483 4.9256 38.0684 4.9256 27.5128C4.9256 16.9544 11.612 6.48828 18.9482 6.48828C26.2844 6.48828 32.9705 16.9544 32.9705 27.5128Z" fill="#964D7D"/>
<path d="M32.7588 27.401C32.7588 37.8436 26.3956 43.5614 18.886 43.5614C11.3767 43.5614 5.01291 37.8436 5.01291 27.401C5.01291 16.9562 11.6279 6.60318 18.886 6.60318C26.144 6.60318 32.7588 16.9562 32.7588 27.401Z" fill="#974E7D"/>
<path d="M32.5466 27.2892C32.5466 37.6182 26.2525 43.2745 18.8237 43.2745C11.3954 43.2745 5.1004 37.6182 5.1004 27.2892C5.1004 16.958 11.6438 6.71773 18.8237 6.71773C26.0036 6.71773 32.5466 16.958 32.5466 27.2892Z" fill="#984F7E"/>
<path d="M32.3348 27.1775C32.3348 37.3928 26.1089 42.9874 18.7613 42.9874C11.4141 42.9874 5.18771 37.3928 5.18771 27.1775C5.18771 16.9599 11.6596 6.83263 18.7613 6.83263C25.8632 6.83263 32.3348 16.9599 32.3348 27.1775Z" fill="#99507F"/>
<path d="M32.1226 27.0656C32.1226 37.1675 25.9657 42.701 18.699 42.701C11.4326 42.701 5.27502 37.1675 5.27502 27.0656C5.27502 16.9617 11.6755 6.94771 18.699 6.94771C25.7228 6.94771 32.1226 16.9617 32.1226 27.0656Z" fill="#9A507F"/>
<path d="M31.9108 26.9539C31.9108 36.9421 25.8227 42.4141 18.6367 42.4141C11.4513 42.4141 5.36234 36.9421 5.36234 26.9539C5.36234 16.9634 11.6914 7.06261 18.6367 7.06261C25.5824 7.06261 31.9108 16.9634 31.9108 26.9539Z" fill="#9B5180"/>
<path d="M31.6986 26.8422C31.6986 36.7169 25.6789 42.1272 18.5743 42.1272C11.47 42.1272 5.44983 36.7169 5.44983 26.8422C5.44983 16.9652 11.7071 7.17697 18.5743 7.17697C25.4419 7.17697 31.6986 16.9652 31.6986 26.8422Z" fill="#9C5280"/>
<path d="M31.4867 26.7303C31.4867 36.4915 25.5359 41.8403 18.512 41.8403C11.4887 41.8403 5.53714 36.4915 5.53714 26.7303C5.53714 16.967 11.7231 7.29205 18.512 7.29205C25.3014 7.29205 31.4867 16.967 31.4867 26.7303Z" fill="#9D5281"/>
<path d="M31.2751 26.6186C31.2751 36.2661 25.3926 41.5534 18.4498 41.5534C11.5072 41.5534 5.62445 36.2661 5.62445 26.6186C5.62445 16.9689 11.7388 7.40695 18.4498 7.40695C25.1607 7.40695 31.2751 16.9689 31.2751 26.6186Z" fill="#9E5382"/>
<path d="M31.0627 26.5069C31.0627 36.0407 25.2496 41.2665 18.3875 41.2665C11.5259 41.2665 5.71176 36.0407 5.71176 26.5069C5.71176 16.9707 11.7547 7.52185 18.3875 7.52185C25.0201 7.52185 31.0627 16.9707 31.0627 26.5069Z" fill="#9F5482"/>
<path d="M30.8511 26.3951C30.8511 35.8153 25.106 40.98 18.3252 40.98C11.5446 40.98 5.79907 35.8153 5.79907 26.3951C5.79907 16.9725 11.7706 7.6364 18.3252 7.6364C24.8797 7.6364 30.8511 16.9725 30.8511 26.3951Z" fill="#9F5583"/>
<path d="M30.6388 26.2832C30.6388 35.59 24.9628 40.6931 18.2628 40.6931C11.5633 40.6931 5.88654 35.59 5.88654 26.2832C5.88654 16.9742 11.7864 7.7513 18.2628 7.7513C24.7393 7.7513 30.6388 16.9742 30.6388 26.2832Z" fill="#A05684"/>
<path d="M30.427 26.1715C30.427 35.3646 24.8197 40.4062 18.2005 40.4062C11.5818 40.4062 5.97385 35.3646 5.97385 26.1715C5.97385 16.9762 11.8023 7.8662 18.2005 7.8662C24.5989 7.8662 30.427 16.9762 30.427 26.1715Z" fill="#A15784"/>
<path d="M30.2152 26.0598C30.2152 35.1397 24.6761 40.1193 18.1382 40.1193C11.6005 40.1193 6.06116 35.1397 6.06116 26.0598C6.06116 16.9779 11.8182 7.98128 18.1382 7.98128C24.4585 7.98128 30.2152 16.9779 30.2152 26.0598Z" fill="#A25785"/>
<path d="M30.003 25.9479C30.003 34.9143 24.5329 39.8324 18.076 39.8324C11.6192 39.8324 6.14847 34.9143 6.14847 25.9479C6.14847 16.9797 11.8341 8.09564 18.076 8.09564C24.3181 8.09564 30.003 16.9797 30.003 25.9479Z" fill="#A35885"/>
<path d="M29.7911 25.8362C29.7911 34.689 24.3899 39.5455 18.0136 39.5455C11.6379 39.5455 6.23596 34.689 6.23596 25.8362C6.23596 16.9815 11.8499 8.21054 18.0136 8.21054C24.1775 8.21054 29.7911 16.9815 29.7911 25.8362Z" fill="#A45986"/>
<path d="M29.5789 25.7245C29.5789 34.4636 24.2466 39.2586 17.9513 39.2586C11.6565 39.2586 6.32327 34.4636 6.32327 25.7245C6.32327 16.9834 11.8658 8.32562 17.9513 8.32562C24.0371 8.32562 29.5789 16.9834 29.5789 25.7245Z" fill="#A55A87"/>
<path d="M29.3673 25.6126C29.3673 34.2382 24.1031 38.9723 17.889 38.9723C11.6752 38.9723 6.41058 34.2382 6.41058 25.6126C6.41058 16.9852 11.8817 8.43999 17.889 8.43999C23.8967 8.43999 29.3673 16.9852 29.3673 25.6126Z" fill="#A65B87"/>
<path d="M29.1554 25.5009C29.1554 34.013 23.96 38.6854 17.8268 38.6854C11.6938 38.6854 6.49789 34.013 6.49789 25.5009C6.49789 16.987 11.8976 8.55507 17.8268 8.55507C23.7563 8.55507 29.1554 16.987 29.1554 25.5009Z" fill="#A75B88"/>
<path d="M28.9433 25.3891C28.9433 33.7876 23.8168 38.3985 17.7643 38.3985C11.7126 38.3985 6.58539 33.7876 6.58539 25.3891C6.58539 16.9887 11.9135 8.66997 17.7643 8.66997C23.6154 8.66997 28.9433 16.9887 28.9433 25.3891Z" fill="#A85C89"/>
<path d="M28.7314 25.2773C28.7314 33.5622 23.6738 38.1114 17.7021 38.1114C11.7311 38.1114 6.6727 33.5622 6.6727 25.2773C6.6727 16.9901 11.9292 8.78487 17.7021 8.78487C23.475 8.78487 28.7314 16.9901 28.7314 25.2773Z" fill="#A95D89"/>
<path d="M28.5192 25.1655C28.5192 33.3369 23.53 37.8245 17.6398 37.8245C11.7498 37.8245 6.76001 33.3369 6.76001 25.1655C6.76001 16.9919 11.9452 8.89941 17.6398 8.89941C23.3346 8.89941 28.5192 16.9919 28.5192 25.1655Z" fill="#AA5E8A"/>
<path d="M28.3074 25.0538C28.3074 33.1115 23.387 37.5376 17.5775 37.5376C11.7685 37.5376 6.84732 33.1115 6.84732 25.0538C6.84732 16.9938 11.9609 9.01431 17.5775 9.01431C23.1942 9.01431 28.3074 16.9938 28.3074 25.0538Z" fill="#AB5F8B"/>
<path d="M28.0952 24.9419C28.0952 32.8861 23.2437 37.2507 17.5151 37.2507C11.7872 37.2507 6.93463 32.8861 6.93463 24.9419C6.93463 16.9956 11.9768 9.12921 17.5151 9.12921C23.0538 9.12921 28.0952 16.9956 28.0952 24.9419Z" fill="#AC5F8B"/>
<path d="M27.8834 24.8302C27.8834 32.6613 23.1002 36.9643 17.4528 36.9643C11.8057 36.9643 7.02213 32.6613 7.02213 24.8302C7.02213 16.9974 11.9927 9.24429 17.4528 9.24429C22.9132 9.24429 27.8834 16.9974 27.8834 24.8302Z" fill="#AD608C"/>
<path d="M27.6717 24.7185C27.6717 32.4359 22.9571 36.6774 17.3906 36.6774C11.8244 36.6774 7.10944 32.4359 7.10944 24.7185C7.10944 16.9992 12.0085 9.35866 17.3906 9.35866C22.7728 9.35866 27.6717 16.9992 27.6717 24.7185Z" fill="#AE618D"/>
<path d="M27.4595 24.6066C27.4595 32.2105 22.8139 36.3905 17.3283 36.3905C11.8431 36.3905 7.19675 32.2105 7.19675 24.6066C7.19675 17.0009 12.0244 9.47356 17.3283 9.47356C22.6324 9.47356 27.4595 17.0009 27.4595 24.6066Z" fill="#AF628D"/>
<path d="M27.2477 24.4949C27.2477 31.9851 22.6708 36.1037 17.2659 36.1037C11.8618 36.1037 7.28406 31.9851 7.28406 24.4949C7.28406 17.0029 12.0403 9.58864 17.2659 9.58864C22.492 9.58864 27.2477 17.0029 27.2477 24.4949Z" fill="#B0638E"/>
<path d="M27.0355 24.3831C27.0355 31.7597 22.5272 35.8168 17.2036 35.8168C11.8803 35.8168 7.37152 31.7597 7.37152 24.3831C7.37152 17.0046 12.0561 9.703 17.2036 9.703C22.3516 9.703 27.0355 17.0046 27.0355 24.3831Z" fill="#B1648F"/>
<path d="M26.8236 24.2713C26.8236 31.5344 22.384 35.5299 17.1413 35.5299C11.899 35.5299 7.45883 31.5344 7.45883 24.2713C7.45883 17.0064 12.072 9.81808 17.1413 9.81808C22.2106 9.81808 26.8236 17.0064 26.8236 24.2713Z" fill="#B2658F"/>
<path d="M26.6118 24.1595C26.6118 31.3091 22.241 35.243 17.0791 35.243C11.9177 35.243 7.54614 31.3091 7.54614 24.1595C7.54614 17.0082 12.0879 9.93298 17.0791 9.93298C22.0702 9.93298 26.6118 17.0082 26.6118 24.1595Z" fill="#B36690"/>
<path d="M26.3996 24.0478C26.3996 31.0838 22.0974 34.9564 17.0166 34.9564C11.9364 34.9564 7.63345 31.0838 7.63345 24.0478C7.63345 17.0101 12.1038 10.0479 17.0166 10.0479C21.9298 10.0479 26.3996 17.0101 26.3996 24.0478Z" fill="#B46691"/>
<path d="M26.1879 23.9359C26.1879 30.8584 21.9542 34.6695 16.9544 34.6695C11.9549 34.6695 7.72076 30.8584 7.72076 23.9359C7.72076 17.0119 12.1196 10.1624 16.9544 10.1624C21.7894 10.1624 26.1879 17.0119 26.1879 23.9359Z" fill="#B56791"/>
<path d="M25.9756 23.8242C25.9756 30.633 21.8111 34.3826 16.8921 34.3826C11.9736 34.3826 7.80826 30.633 7.80826 23.8242C7.80826 17.0136 12.1355 10.2773 16.8921 10.2773C21.6489 10.2773 25.9756 17.0136 25.9756 23.8242Z" fill="#B66892"/>
<path d="M25.7639 23.7125C25.7639 30.4076 21.6679 34.0957 16.8298 34.0957C11.9923 34.0957 7.89557 30.4076 7.89557 23.7125C7.89557 17.0154 12.1514 10.3922 16.8298 10.3922C21.5084 10.3922 25.7639 17.0154 25.7639 23.7125Z" fill="#B76993"/>
<path d="M25.5521 23.6008C25.5521 30.1828 21.5243 33.8088 16.7676 33.8088C12.011 33.8088 7.98288 30.1828 7.98288 23.6008C7.98288 17.0174 12.1673 10.5071 16.7676 10.5071C21.368 10.5071 25.5521 17.0174 25.5521 23.6008Z" fill="#B86A94"/>
<path d="M25.3399 23.4889C25.3399 29.9574 21.3811 33.5219 16.7051 33.5219C12.0295 33.5219 8.07019 29.9574 8.07019 23.4889C8.07019 17.0191 12.183 10.6217 16.7051 10.6217C21.2276 10.6217 25.3399 17.0191 25.3399 23.4889Z" fill="#B96B94"/>
<path d="M25.1281 23.3772C25.1281 29.732 21.2381 33.2354 16.6429 33.2354C12.0482 33.2354 8.15768 29.732 8.15768 23.3772C8.15768 17.0209 12.1988 10.7366 16.6429 10.7366C21.0872 10.7366 25.1281 17.0209 25.1281 23.3772Z" fill="#BA6C95"/>
<path d="M24.9159 23.2654C24.9159 29.5066 21.0945 32.9485 16.5806 32.9485C12.0669 32.9485 8.245 29.5066 8.245 23.2654C8.245 17.0227 12.2147 10.8517 16.5806 10.8517C20.9467 10.8517 24.9159 17.0227 24.9159 23.2654Z" fill="#BB6D96"/>
<path d="M24.704 23.1536C24.704 29.2813 20.9514 32.6616 16.5182 32.6616C12.0856 32.6616 8.33231 29.2813 8.33231 23.1536C8.33231 17.0246 12.2306 10.966 16.5182 10.966C20.8061 10.966 24.704 17.0246 24.704 23.1536Z" fill="#BC6E96"/>
<path d="M24.4918 23.0418C24.4918 29.0559 20.8082 32.3747 16.4559 32.3747C12.1041 32.3747 8.41962 29.0559 8.41962 23.0418C8.41962 17.0264 12.2465 11.0811 16.4559 11.0811C20.6657 11.0811 24.4918 17.0264 24.4918 23.0418Z" fill="#BD6F97"/>
<path d="M24.2802 22.9301C24.2802 28.8305 20.6648 32.0878 16.3936 32.0878C12.1228 32.0878 8.50693 28.8305 8.50693 22.9301C8.50693 17.0281 12.2623 11.196 16.3936 11.196C20.5251 11.196 24.2802 17.0281 24.2802 22.9301Z" fill="#BF7098"/>
<path d="M24.0683 22.8182C24.0683 28.6053 20.5216 31.8009 16.3314 31.8009C12.1415 31.8009 8.59442 28.6053 8.59442 22.8182C8.59442 17.0299 12.2782 11.3109 16.3314 11.3109C20.3847 11.3109 24.0683 17.0299 24.0683 22.8182Z" fill="#C07199"/>
<path d="M23.8561 22.7065C23.8561 28.3799 20.3784 31.514 16.2691 31.514C12.1602 31.514 8.68173 28.3799 8.68173 22.7065C8.68173 17.0319 12.2941 11.4254 16.2691 11.4254C20.2443 11.4254 23.8561 17.0319 23.8561 22.7065Z" fill="#C17299"/>
<path d="M23.6443 22.5948C23.6443 28.1545 20.2351 31.2277 16.2067 31.2277C12.1787 31.2277 8.76904 28.1545 8.76904 22.5948C8.76904 17.0336 12.31 11.5403 16.2067 11.5403C20.1037 11.5403 23.6443 17.0336 23.6443 22.5948Z" fill="#C2729A"/>
<path d="M23.4321 22.4829C23.4321 27.9291 20.0917 30.9408 16.1444 30.9408C12.1974 30.9408 8.85635 27.9291 8.85635 22.4829C8.85635 17.0354 12.3259 11.6552 16.1444 11.6552C19.9633 11.6552 23.4321 17.0354 23.4321 22.4829Z" fill="#C3739B"/>
<path d="M23.2203 22.3712C23.2203 27.7043 19.9485 30.6539 16.0821 30.6539C12.2161 30.6539 8.94366 27.7043 8.94366 22.3712C8.94366 17.0372 12.3417 11.7701 16.0821 11.7701C19.8229 11.7701 23.2203 17.0372 23.2203 22.3712Z" fill="#C4759B"/>
<path d="M23.0086 22.2594C23.0086 27.4789 19.8053 30.367 16.0197 30.367C12.2348 30.367 9.03116 27.4789 9.03116 22.2594C9.03116 17.0391 12.3576 11.8847 16.0197 11.8847C19.6824 11.8847 23.0086 17.0391 23.0086 22.2594Z" fill="#C5769C"/>
<path d="M22.7962 22.1476C22.7962 27.2535 19.6619 30.0801 15.9574 30.0801C12.2533 30.0801 9.11844 27.2535 9.11844 22.1476C9.11844 17.0409 12.3735 11.9996 15.9574 11.9996C19.5419 11.9996 22.7962 17.0409 22.7962 22.1476Z" fill="#C6779D"/>
<path d="M22.5846 22.0358C22.5846 27.0282 19.5186 29.7932 15.8952 29.7932C12.272 29.7932 9.20575 27.0282 9.20575 22.0358C9.20575 17.0426 12.3893 12.1147 15.8952 12.1147C19.4013 12.1147 22.5846 17.0426 22.5846 22.0358Z" fill="#C7789E"/>
<path d="M22.3724 21.9241C22.3724 26.8028 19.3754 29.5063 15.8329 29.5063C12.2907 29.5063 9.29306 26.8028 9.29306 21.9241C9.29306 17.0444 12.405 12.229 15.8329 12.229C19.2609 12.229 22.3724 17.0444 22.3724 21.9241Z" fill="#C8799E"/>
<path d="M22.1605 21.8122C22.1605 26.5774 19.2322 29.2197 15.7705 29.2197C12.3094 29.2197 9.38055 26.5774 9.38055 21.8122C9.38055 17.0462 12.4209 12.3441 15.7705 12.3441C19.1205 12.3441 22.1605 17.0462 22.1605 21.8122Z" fill="#C97A9F"/>
<path d="M21.9487 21.7005C21.9487 26.352 19.089 28.9328 15.7082 28.9328C12.328 28.9328 9.46786 26.352 9.46786 21.7005C9.46786 17.0481 12.4368 12.459 15.7082 12.459C18.98 12.459 21.9487 17.0481 21.9487 21.7005Z" fill="#CA7AA0"/>
<path d="M21.7365 21.5888C21.7365 26.1266 18.9456 28.6459 15.6459 28.6459C12.3466 28.6459 9.55518 26.1266 9.55518 21.5888C9.55518 17.0499 12.4527 12.5739 15.6459 12.5739C18.8396 12.5739 21.7365 17.0499 21.7365 21.5888Z" fill="#CC7CA1"/>
<path d="M21.5247 21.4769C21.5247 25.9014 18.8023 28.359 15.5837 28.359C12.3653 28.359 9.64249 25.9014 9.64249 21.4769C9.64249 17.0513 12.4685 12.6885 15.5837 12.6885C18.699 12.6885 21.5247 17.0513 21.5247 21.4769Z" fill="#CD7DA1"/>
<path d="M21.3125 21.3652C21.3125 25.676 18.6591 28.0721 15.5214 28.0721C12.384 28.0721 9.7298 25.676 9.7298 21.3652C9.7298 17.0531 12.4844 12.8034 15.5214 12.8034C18.5586 12.8034 21.3125 17.0531 21.3125 21.3652Z" fill="#CE7EA2"/>
<path d="M21.1008 21.2535C21.1008 25.451 18.5159 27.7852 15.459 27.7852C12.4026 27.7852 9.81729 25.451 9.81729 21.2535C9.81729 17.0548 12.5003 12.9183 15.459 12.9183C18.418 12.9183 21.1008 17.0548 21.1008 21.2535Z" fill="#CF7FA3"/>
<path d="M20.8888 21.1416C20.8888 25.2256 18.3725 27.4987 15.3967 27.4987C12.4213 27.4987 9.9046 25.2256 9.9046 21.1416C9.9046 17.0566 12.5162 13.0332 15.3967 13.0332C18.2776 13.0332 20.8888 17.0566 20.8888 21.1416Z" fill="#D080A4"/>
<path d="M20.6768 21.0298C20.6768 25.0004 18.2293 27.2118 15.3344 27.2118C12.44 27.2118 9.99191 25.0004 9.99191 21.0298C9.99191 17.0585 12.532 13.1477 15.3344 13.1477C18.1372 13.1477 20.6768 17.0585 20.6768 21.0298Z" fill="#D181A5"/>
<path d="M20.4648 20.9181C20.4648 24.775 18.0861 26.9249 15.2722 26.9249C12.4587 26.9249 10.0792 24.775 10.0792 20.9181C10.0792 17.0603 12.5479 13.2626 15.2722 13.2626C17.9966 13.2626 20.4648 17.0603 20.4648 20.9181Z" fill="#D282A5"/>
<path d="M20.2529 20.8064C20.2529 24.5497 17.9428 26.638 15.2097 26.638C12.4772 26.638 10.1665 24.5497 10.1665 20.8064C10.1665 17.0621 12.5638 13.3777 15.2097 13.3777C17.8562 13.3777 20.2529 17.0621 20.2529 20.8064Z" fill="#D383A6"/>
<path d="M20.0409 20.6945C20.0409 24.3243 17.7994 26.3511 15.1475 26.3511C12.4959 26.3511 10.254 24.3243 10.254 20.6945C10.254 17.0638 12.5797 13.4921 15.1475 13.4921C17.7156 13.4921 20.0409 17.0638 20.0409 20.6945Z" fill="#D484A7"/>
<path d="M19.8289 20.5828C19.8289 24.0989 17.6562 26.0642 15.0852 26.0642C12.5146 26.0642 10.3413 24.0989 10.3413 20.5828C10.3413 17.0658 12.5955 13.6069 15.0852 13.6069C17.5752 13.6069 19.8289 17.0658 19.8289 20.5828Z" fill="#D685A8"/>
<path d="M19.6169 20.4711C19.6169 23.8735 17.513 25.7773 15.023 25.7773C12.5333 25.7773 10.4286 23.8735 10.4286 20.4711C10.4286 17.0676 12.6114 13.722 15.023 13.722C17.4348 13.722 19.6169 17.0676 19.6169 20.4711Z" fill="#D786A9"/>
<path d="M19.4051 20.3592C19.4051 23.6481 17.3698 25.491 14.9605 25.491C12.5518 25.491 10.516 23.6481 10.516 20.3592C10.516 17.0693 12.6271 13.8369 14.9605 13.8369C17.2943 13.8369 19.4051 17.0693 19.4051 20.3592Z" fill="#D887A9"/>
<path d="M19.1931 20.2475C19.1931 23.4228 17.2265 25.2041 14.8983 25.2041C12.5705 25.2041 10.6035 23.4228 10.6035 20.2475C10.6035 17.0711 12.643 13.9515 14.8983 13.9515C17.1539 13.9515 19.1931 17.0711 19.1931 20.2475Z" fill="#D988AA"/>
<path d="M18.981 20.1357C18.981 23.1976 17.0831 24.9172 14.836 24.9172C12.5892 24.9172 10.6908 23.1976 10.6908 20.1357C10.6908 17.073 12.6589 14.0664 14.836 14.0664C17.0133 14.0664 18.981 17.073 18.981 20.1357Z" fill="#DA89AB"/>
<path d="M18.7692 20.0238C18.7692 22.9722 16.9399 24.6303 14.7737 24.6303C12.6079 24.6303 10.7781 22.9722 10.7781 20.0238C10.7781 17.0748 12.6747 14.1813 14.7737 14.1813C16.8729 14.1813 18.7692 17.0748 18.7692 20.0238Z" fill="#DB8AAC"/>
<path d="M18.5572 19.9121C18.5572 22.7472 16.7967 24.3432 14.7113 24.3432C12.6264 24.3432 10.8654 22.7472 10.8654 19.9121C10.8654 17.0766 12.6906 14.2962 14.7113 14.2962C16.7323 14.2962 18.5572 17.0766 18.5572 19.9121Z" fill="#DD8BAD"/>
<path d="M18.3451 19.8004C18.3451 22.5218 16.6533 24.0563 14.649 24.0563C12.6451 24.0563 10.9527 22.5218 10.9527 19.8004C10.9527 17.0783 12.7065 14.4107 14.649 14.4107C16.5919 14.4107 18.3451 17.0783 18.3451 19.8004Z" fill="#DE8DAE"/>
<path d="M18.1333 19.6885C18.1333 22.2966 16.51 23.7699 14.5867 23.7699C12.6638 23.7699 11.0402 22.2966 11.0402 19.6885C11.0402 17.0801 12.7223 14.5256 14.5867 14.5256C16.4515 14.5256 18.1333 17.0801 18.1333 19.6885Z" fill="#DF8EAE"/>
<path d="M17.9213 19.5768C17.9213 22.0712 16.3668 23.483 14.5245 23.483C12.6825 23.483 11.1275 22.0712 11.1275 19.5768C11.1275 17.0821 12.7382 14.6407 14.5245 14.6407C16.3109 14.6407 17.9213 17.0821 17.9213 19.5768Z" fill="#E08FAF"/>
<path d="M17.7093 19.4651C17.7093 21.8458 16.2236 23.1961 14.462 23.1961C12.701 23.1961 11.2148 21.8458 11.2148 19.4651C11.2148 17.0838 12.7541 14.7556 14.462 14.7556C16.1705 14.7556 17.7093 17.0838 17.7093 19.4651Z" fill="#E190B0"/>
<path d="M17.4974 19.3532C17.4974 21.6204 16.0804 22.9092 14.3998 22.9092C12.7197 22.9092 11.3021 21.6204 11.3021 19.3532C11.3021 17.0856 12.77 14.87 14.3998 14.87C16.0301 14.87 17.4974 17.0856 17.4974 19.3532Z" fill="#E291B1"/>
<path d="M17.2854 19.2415C17.2854 21.395 15.937 22.6224 14.3375 22.6224C12.7384 22.6224 11.3894 21.395 11.3894 19.2415C11.3894 17.0874 12.7858 14.985 14.3375 14.985C15.8895 14.985 17.2854 17.0874 17.2854 19.2415Z" fill="#E492B2"/>
<path d="M17.0734 19.1298C17.0734 21.1697 15.7937 22.3355 14.2752 22.3355C12.7571 22.3355 11.4769 21.1697 11.4769 19.1298C11.4769 17.0893 12.8017 15.0999 14.2752 15.0999C15.7491 15.0999 17.0734 17.0893 17.0734 19.1298Z" fill="#E593B3"/>
<path d="M16.8616 19.0179C16.8616 20.9443 15.6505 22.0486 14.2128 22.0486C12.7756 22.0486 11.5642 20.9443 11.5642 19.0179C11.5642 17.0911 12.8176 15.2148 14.2128 15.2148C15.6085 15.2148 16.8616 17.0911 16.8616 19.0179Z" fill="#E694B3"/>
<path d="M16.6496 18.9061C16.6496 20.7189 15.5073 21.7617 14.1505 21.7617C12.7943 21.7617 11.6515 20.7189 11.6515 18.9061C11.6515 17.0928 12.8335 15.3294 14.1505 15.3294C15.4681 15.3294 16.6496 17.0928 16.6496 18.9061Z" fill="#E796B4"/>
<path d="M16.4376 18.7944C16.4376 20.4937 15.3639 21.4751 14.0883 21.4751C12.813 21.4751 11.7388 20.4937 11.7388 18.7944C11.7388 17.0946 12.8492 15.4443 14.0883 15.4443C15.3277 15.4443 16.4376 17.0946 16.4376 18.7944Z" fill="#E897B5"/>
<path d="M16.2257 18.6825C16.2257 20.2687 15.2207 21.1882 14.026 21.1882C12.8317 21.1882 11.8263 20.2687 11.8263 18.6825C11.8263 17.0965 12.8651 15.5592 14.026 15.5592C15.1872 15.5592 16.2257 17.0965 16.2257 18.6825Z" fill="#EA98B6"/>
<path d="M16.0137 18.5708C16.0137 20.0433 15.0775 20.9013 13.9638 20.9013C12.8502 20.9013 11.9136 20.0433 11.9136 18.5708C11.9136 17.0983 12.8809 15.6737 13.9638 15.6737C15.0468 15.6737 16.0137 17.0983 16.0137 18.5708Z" fill="#EB99B7"/>
<path d="M15.8017 18.4591C15.8017 19.8179 14.9342 20.6144 13.9013 20.6144C12.8689 20.6144 12.0009 19.8179 12.0009 18.4591C12.0009 17.1001 12.8968 15.7886 13.9013 15.7886C14.9062 15.7886 15.8017 17.1001 15.8017 18.4591Z" fill="#EC9AB8"/>
<path d="M15.5897 18.3472C15.5897 19.5927 14.7908 20.3275 13.8391 20.3275C12.8876 20.3275 12.0883 19.5927 12.0883 18.3472C12.0883 17.1019 12.9127 15.9035 13.8391 15.9035C14.7658 15.9035 15.5897 17.1019 15.5897 18.3472Z" fill="#ED9CB9"/>
<path d="M15.3778 18.2355C15.3778 19.3673 14.6476 20.0406 13.7768 20.0406C12.9063 20.0406 12.1756 19.3673 12.1756 18.2355C12.1756 17.1038 12.9286 16.0186 13.7768 16.0186C14.6252 16.0186 15.3778 17.1038 15.3778 18.2355Z" fill="#EE9DBA"/>
<path d="M15.1658 18.1238C15.1658 19.1419 14.5044 19.7543 13.7144 19.7543C12.9249 19.7543 12.2631 19.1419 12.2631 18.1238C12.2631 17.1056 12.9444 16.133 13.7144 16.133C14.4848 16.133 15.1658 17.1056 15.1658 18.1238Z" fill="#F09EBB"/>
<path d="M14.9538 18.012C14.9538 18.9166 14.3612 19.4672 13.6521 19.4672C12.9436 19.4672 12.3504 18.9166 12.3504 18.012C12.3504 17.1073 12.9603 16.2481 13.6521 16.2481C14.3444 16.2481 14.9538 17.1073 14.9538 18.012Z" fill="#F19FBB"/>
<path d="M14.742 17.9001C14.742 18.6912 14.2179 19.1803 13.5898 19.1803C12.9623 19.1803 12.4377 18.6912 12.4377 17.9001C12.4377 17.1091 12.9762 16.363 13.5898 16.363C14.2038 16.363 14.742 17.1091 14.742 17.9001Z" fill="#F2A0BC"/>
<path d="M14.53 17.7884C14.53 18.4658 14.0745 18.8934 13.5276 18.8934C12.9809 18.8934 12.525 18.4658 12.525 17.7884C12.525 17.111 12.9921 16.4779 13.5276 16.4779C14.0634 16.4779 14.53 17.111 14.53 17.7884Z" fill="#F3A2BD"/>
<path d="M14.3179 17.6767C14.3179 18.2404 13.9313 18.6065 13.4653 18.6065C12.9994 18.6065 12.6125 18.2404 12.6125 17.6767C12.6125 17.1123 13.0079 16.5924 13.4653 16.5924C13.923 16.5924 14.3179 17.1123 14.3179 17.6767Z" fill="#F5A3BE"/>
<path d="M14.1059 17.5648C14.1059 18.015 13.7881 18.3196 13.4028 18.3196C13.0181 18.3196 12.6998 18.015 12.6998 17.5648C12.6998 17.1141 13.0238 16.7073 13.4028 16.7073C13.7824 16.7073 14.1059 17.1141 14.1059 17.5648Z" fill="#F6A4BF"/>
<path d="M13.8941 17.4531C13.8941 17.7902 13.6447 18.0327 13.3406 18.0327C13.0368 18.0327 12.7871 17.7902 12.7871 17.4531C12.7871 17.116 13.0397 16.8222 13.3406 16.8222C13.642 16.8222 13.8941 17.116 13.8941 17.4531Z" fill="#F7A5C0"/>
<path d="M13.6821 17.3414C13.6821 17.5648 13.5014 17.7464 13.2783 17.7464C13.0555 17.7464 12.8744 17.5648 12.8744 17.3414C12.8744 17.1178 13.0555 16.9368 13.2783 16.9368C13.5014 16.9368 13.6821 17.1178 13.6821 17.3414Z" fill="#F8A6C1"/>
</g>
<defs>
<clipPath id="clip0_56_4090">
<rect width="45" height="60" fill="white"/>
</clipPath>
</defs>
</svg>
