<svg width="50" height="50" viewBox="0 0 50 50" fill="none" xmlns="http://www.w3.org/2000/svg">
<path d="M25 0C16.7767 0 11.0078 0.308896 7.37333 0.604458C3.72 0.901131 0.901111 3.72008 0.604444 7.3735C0.308889 11.0091 0 16.777 0 24.9994C0 33.2219 0.308889 38.992 0.604444 42.6276C0.901111 46.2799 3.72 49.0989 7.37333 49.3955C11.0078 49.6911 16.7767 50 25 50C33.2233 50 38.9922 49.6911 42.6267 49.3955C46.28 49.0989 49.0989 46.2799 49.3956 42.6265C49.6911 38.992 50 33.2241 50 24.9994C50 16.7759 49.6911 11.008 49.3956 7.37239C49.0989 3.71897 46.28 0.90002 42.6267 0.603347C38.9922 0.307784 33.2244 0 25 0Z" fill="#8FBFFA"/>
<path fill-rule="evenodd" clip-rule="evenodd" d="M27.9846 38.4952C28.8133 39.1021 29.8383 39.3787 30.8598 39.271C31.8813 39.1634 32.8261 38.6793 33.5102 37.913C37.7057 33.1973 40.399 28.9906 41.7446 26.6705C42.4501 25.4561 42.6379 23.9505 41.5857 23.0204C41.3004 22.7688 40.9941 22.542 40.6701 22.3426C39.3101 21.5037 37.789 22.3382 36.7701 23.5682C35.1001 25.5861 32.4401 28.7539 30.5279 30.8128C30.3504 31.0067 30.1069 31.1274 29.8451 31.1513C29.5833 31.1751 29.322 31.1004 29.1124 30.9417C27.4124 29.6628 25.2946 27.8417 23.6035 26.3438C21.9124 24.8449 19.3646 24.7883 17.7435 26.3638C14.969 29.0606 12.1046 32.2218 9.71681 35.0185C8.19681 36.7963 8.01681 39.3964 9.76904 40.9464C10.2342 41.3557 10.7252 41.7346 11.239 42.0809C13.3024 43.4587 15.8724 42.3742 17.1768 40.263C18.2957 38.4519 19.6868 36.2796 20.9379 34.5551C21.0248 34.4369 21.1347 34.3374 21.2611 34.2626C21.3874 34.1879 21.5275 34.1395 21.673 34.1203C21.8185 34.1011 21.9664 34.1115 22.1078 34.1509C22.2491 34.1903 22.3811 34.2579 22.4957 34.3496C23.6501 35.2518 25.7846 36.9019 27.9846 38.4952Z" fill="#2859C5"/>
<path d="M10.5555 17.1881C9.96615 17.1881 9.40092 17.4222 8.98417 17.839C8.56742 18.2558 8.3333 18.821 8.3333 19.4104C8.3333 19.9998 8.56742 20.565 8.98417 20.9818C9.40092 21.3985 9.96615 21.6327 10.5555 21.6327H17.2222C17.8116 21.6327 18.3768 21.3985 18.7935 20.9818C19.2103 20.565 19.4444 19.9998 19.4444 19.4104C19.4444 18.821 19.2103 18.2558 18.7935 17.839C18.3768 17.4222 17.8116 17.1881 17.2222 17.1881H10.5555ZM8.3333 10.5213C8.3333 9.93191 8.56742 9.36667 8.98417 8.94991C9.40092 8.53316 9.96615 8.29903 10.5555 8.29903H21.6666C22.256 8.29903 22.8212 8.53316 23.238 8.94991C23.6547 9.36667 23.8889 9.93191 23.8889 10.5213C23.8889 11.1107 23.6547 11.6759 23.238 12.0927C22.8212 12.5094 22.256 12.7436 21.6666 12.7436H10.5555C9.96615 12.7436 9.40092 12.5094 8.98417 12.0927C8.56742 11.6759 8.3333 11.1107 8.3333 10.5213Z" fill="#2859C5"/>
</svg>
