<svg width="50" height="45" viewBox="0 0 50 45" fill="none" xmlns="http://www.w3.org/2000/svg">
<path d="M0 15.7956C0 25.1179 10.05 34.9777 17.405 40.9451C20.735 43.65 22.4 45 25 45C27.6 45 29.265 43.65 32.595 40.9476C39.9525 34.9752 50 25.1179 50 15.7931C50 0.21849 36.25 -5.59638 25 6.43585C13.75 -5.59638 0 0.218487 0 15.7956Z" fill="#CF1C40"/>
<path fill-rule="evenodd" clip-rule="evenodd" d="M36.25 8.12589C36.7472 8.12589 37.2242 8.32343 37.5758 8.67506C37.9274 9.02668 38.125 9.50358 38.125 10.0009V13.1258H41.25C41.7472 13.1258 42.2242 13.3233 42.5758 13.6749C42.9274 14.0266 43.125 14.5035 43.125 15.0007C43.125 15.498 42.9274 15.9749 42.5758 16.3265C42.2242 16.6782 41.7472 16.8757 41.25 16.8757H38.125V20.0006C38.125 20.4979 37.9274 20.9748 37.5758 21.3264C37.2242 21.6781 36.7472 21.8756 36.25 21.8756C35.7527 21.8756 35.2758 21.6781 34.9241 21.3264C34.5725 20.9748 34.375 20.4979 34.375 20.0006V16.8757H31.25C30.7527 16.8757 30.2758 16.6782 29.9241 16.3265C29.5725 15.9749 29.375 15.498 29.375 15.0007C29.375 14.5035 29.5725 14.0266 29.9241 13.6749C30.2758 13.3233 30.7527 13.1258 31.25 13.1258H34.375V10.0009C34.375 9.50358 34.5725 9.02668 34.9241 8.67506C35.2758 8.32343 35.7527 8.12589 36.25 8.12589Z" fill="#FFFAFA"/>
</svg>
