<svg width="50" height="52" viewBox="0 0 50 52" fill="none" xmlns="http://www.w3.org/2000/svg">
<path d="M46.0526 46.8C36.9737 46.8 25 52 25 52V23.4C25 23.4 36.8421 18.2 48.6842 18.2L46.0526 46.8Z" fill="#5C6BC0"/>
<path d="M3.94733 46.8C13.0263 46.8 25 52 25 52V23.4C25 23.4 13.1579 18.2 1.31575 18.2L3.94733 46.8Z" fill="#7986CB"/>
<path d="M24.9999 20.8C30.8135 20.8 35.5263 16.1438 35.5263 10.4C35.5263 4.65624 30.8135 0 24.9999 0C19.1864 0 14.4736 4.65624 14.4736 10.4C14.4736 16.1438 19.1864 20.8 24.9999 20.8Z" fill="#FFB74D"/>
<path d="M47.3684 36.4001H48.6842C49.4737 36.4001 50 35.8801 50 35.1001V29.9001C50 29.1201 49.4737 28.6001 48.6842 28.6001H47.3684C45.1316 28.6001 43.4211 30.2901 43.4211 32.5001C43.4211 34.7101 45.1316 36.4001 47.3684 36.4001ZM2.63158 28.6001H1.31579C0.526316 28.6001 0 29.1201 0 29.9001V35.1001C0 35.8801 0.526316 36.4001 1.31579 36.4001H2.63158C4.86842 36.4001 6.57895 34.7101 6.57895 32.5001C6.57895 30.2901 4.86842 28.6001 2.63158 28.6001Z" fill="#FFB74D"/>
</svg>
