<svg width="307" height="315" viewBox="0 0 307 315" fill="none" xmlns="http://www.w3.org/2000/svg">
<path d="M43.3549 79.6015C39.9202 61.2621 36.4881 42.9227 35.6934 31.8317C34.8973 20.7407 36.7438 16.8969 40.1012 15.1815C41.33 14.5507 42.7595 14.2084 44.6296 14.2084C47.8637 14.2084 52.4053 15.2392 59.4701 17.6024C70.6122 21.3322 88.0336 28.3865 105.455 35.4382C116.689 31.214 127.925 26.9898 139.504 26.1295C141.075 26.0128 142.65 25.959 144.226 25.959C154.263 25.959 164.225 28.1937 171.973 30.9058C180.935 34.0441 186.93 37.8185 192.926 41.5942C205.966 36.3025 219.003 31.0108 231.667 27.7452C239.049 25.8449 246.301 24.6292 252.254 24.6292C256.515 24.6292 260.107 25.2508 262.604 26.6869C268.584 30.1334 268.262 38.2605 265.294 50.061C262.329 61.8601 256.722 77.3327 251.112 92.8039C259.19 105.189 267.268 117.573 269.988 130.615C272.704 143.656 270.061 157.353 264.283 167.365C258.506 177.378 249.594 183.708 240.936 188.32C232.278 192.931 223.874 195.827 215.472 198.721C222.88 210.22 230.29 221.72 233.268 232.5C236.243 243.279 234.786 253.339 231.576 256.007C230.946 256.529 230.251 256.767 229.502 256.767C226.433 256.767 222.491 252.747 218.752 247.817C214.101 241.686 209.76 234.15 205.422 226.614C208.36 239.818 211.301 253.023 212.285 265.944C213.275 278.865 212.308 291.504 209.982 300.181C207.655 308.857 203.969 313.571 199.873 314.721C199.208 314.907 198.533 315 197.835 315C194.216 315 189.909 312.52 182.868 307.682C174.465 301.912 162.166 292.784 151.722 286.547C142.366 280.959 134.496 277.69 127.402 277.69C126.576 277.69 125.763 277.735 124.958 277.826C117.236 278.688 110.377 283.761 101.947 289.006C93.5168 294.249 83.5077 299.664 75.3426 302.725C70.565 304.515 66.4155 305.5 63.1225 305.5C60.7855 305.5 58.8786 305.005 57.4858 303.95C54.1206 301.408 53.7246 295.615 55.3836 285.896C57.0452 276.177 60.7592 262.53 63.9211 250.267C67.0804 238.002 69.6863 227.119 72.2909 216.238C60.8432 219.445 49.3941 222.651 39.0205 223.858C35.9583 224.213 32.9865 224.395 30.2443 224.395C23.704 224.395 18.4595 223.361 16.3481 221.193C13.3501 218.116 16.6497 212.756 22.6024 208.253C28.559 203.748 37.1596 200.098 44.3477 197.229C51.5358 194.36 57.3101 192.273 63.0818 190.185C50.4853 184.241 37.8848 178.299 28.7899 170.249C19.6923 162.2 14.095 152.044 13.3265 140.894C12.558 129.744 16.6195 117.6 22.428 107.218C28.2364 96.838 35.797 88.2191 43.3549 79.6015Z" fill="#FFD6BE"/>
<path d="M201.831 252.294C210.442 256.193 219.055 260.091 225.292 261.566C227.159 262.008 228.817 262.232 230.405 262.232C234.109 262.232 237.425 261.01 242.179 258.484C248.968 254.878 258.688 248.613 268.571 245.343C273.631 243.669 278.738 242.779 283.343 242.779C287.742 242.779 291.683 243.589 294.708 245.299C300.906 248.8 303.242 256.08 303.182 262.916C303.121 269.751 300.664 276.142 294.534 281.858C288.403 287.574 278.6 292.616 268.152 295.829C261.702 297.815 255.004 299.103 248.189 299.103C243.972 299.103 239.709 298.609 235.428 297.482C224.241 294.533 212.954 287.251 201.667 279.968L201.831 252.294Z" fill="#FFD6BE"/>
<path d="M168.936 192.325C163.37 208.626 157.803 224.928 149.332 237C142.34 246.967 133.368 254.051 124.636 254.051C122.792 254.051 120.956 253.735 119.157 253.064C108.82 249.211 99.5231 233.662 94.6183 220.886C89.7161 208.111 89.2033 198.11 88.6931 188.109C102.988 189.724 117.28 191.342 130.656 192.043C137.605 192.409 144.311 192.527 150.89 192.527C156.974 192.527 162.957 192.426 168.936 192.325Z" fill="#FFECE1"/>
<path d="M47.1684 55.2032C44.5599 49.4406 41.9488 43.6781 39.9777 36.5254C38.0039 29.3727 36.6636 20.8312 40.6793 18.3159C41.6327 17.7165 42.8917 17.4595 44.3488 17.4595C49.0084 17.4595 55.6902 20.0889 60.9269 22.5676C67.7963 25.8226 72.1779 28.818 76.5594 31.8147C70.0192 36.6487 63.479 41.4827 58.5807 45.3804C53.6824 49.278 50.4287 52.2406 47.1684 55.2032Z" fill="#745B54"/>
<path d="M198.332 41.3922C205.337 37.8827 212.34 34.372 220.579 31.5904C225.477 29.9366 230.808 28.5399 234.864 28.5399C237.634 28.5399 239.81 29.1917 240.841 30.8573C243.385 34.9608 238.994 45.223 235.999 52.5802C232.997 59.9388 231.389 64.3925 229.781 68.8449C224.231 63.7158 218.682 58.5854 213.438 54.0097C208.2 49.4353 203.265 45.4131 198.332 41.3922Z" fill="#745B54"/>
<path d="M182.473 29.871C172.069 27.6861 161.661 25.5026 149.769 25.5026C143.655 25.5026 137.149 26.0796 130.048 27.5301C109.135 31.8054 83.0656 43.6623 63.0055 60.8857C42.9455 78.1077 28.8946 100.698 24.6114 115.594C20.3268 130.493 25.8061 137.698 31.2893 144.904C28.7542 144.221 26.2231 143.539 24.1576 143.539C22.6337 143.539 21.3642 143.91 20.5314 144.924C18.5747 147.315 19.0547 153.282 19.5321 159.249C13.1623 152.004 6.78998 144.759 3.99396 136.782C1.20055 128.807 1.98218 120.101 4.78214 111.2C7.58341 102.299 12.4004 93.2026 19.4914 83.6814C26.5851 74.1602 35.9489 64.2155 47.3441 54.0307C58.7354 43.8459 72.1543 33.4225 88.5212 25.9327C103.203 19.2155 120.258 14.8601 135.268 14.8601C136.994 14.8601 138.694 14.9165 140.358 15.0345C156.507 16.1794 169.491 23.0252 182.473 29.871Z" fill="#DAB097"/>
<path d="M195.14 39.4434C207.099 33.391 219.061 27.3386 229.176 23.5944C234.249 21.7164 238.859 20.4194 242.549 20.4194C246.221 20.4194 248.982 21.702 250.394 24.9714C253.229 31.5287 250.623 46.078 248.018 60.626C251.455 50.8189 254.894 41.0119 256.267 33.4513C257.64 25.8895 256.949 20.5728 254.699 17.327C252.802 14.5978 249.804 13.3323 244.516 13.3323C243.516 13.3323 242.435 13.3756 241.267 13.466C233.9 14.0234 222.982 16.3198 212.491 19.2942C202.003 22.2685 191.94 25.9262 181.881 29.5838L195.14 39.4434Z" fill="#DAB097"/>
<path d="M256.032 108.076C255.632 123.615 255.232 139.155 245.362 151.526C235.492 163.897 216.154 173.099 198.218 179.452C180.284 185.805 163.76 189.309 147.234 192.812C158.059 192.532 168.882 192.254 176.961 191.769C185.038 191.284 190.373 190.594 199.864 188.134C209.355 185.673 223.006 181.444 232.611 176.539C242.213 171.633 247.769 166.051 252.432 158.848C257.093 151.644 260.86 142.819 261.314 134.087C261.763 125.354 258.899 116.716 256.032 108.076Z" fill="#DAB097"/>
<path d="M206.83 189.478C210.335 200.337 213.838 211.196 216.059 219.837C218.125 227.86 219.087 233.973 216.365 233.973C216.158 233.973 215.925 233.938 215.67 233.863C212.114 232.823 204.057 224.319 195.997 215.816C196.335 227.077 196.671 238.339 195.711 252.361C194.751 266.384 192.495 283.167 185.518 287.577C184.091 288.48 182.466 288.864 180.706 288.864C173.871 288.864 165.019 283.063 157.887 279.331C148.923 274.637 142.688 273.214 136.451 271.79C143.713 276.772 150.974 281.753 159.24 287.442C167.503 293.13 176.765 299.526 183.007 302.316C185.481 303.422 187.479 303.961 189.168 303.961C191.74 303.961 193.593 302.71 195.308 300.308C198.151 296.326 200.615 289.18 201.986 280.526C203.355 271.871 203.628 261.708 202.567 251.112C201.509 240.516 199.122 229.488 196.735 218.46C202.006 226.439 207.276 234.419 211.621 239.183C215.073 242.963 217.94 244.72 220.125 244.72C220.696 244.72 221.22 244.6 221.697 244.365C223.993 243.232 225.161 239.413 224.943 233.425C224.721 227.435 223.114 219.277 219.864 211.592C216.614 203.905 211.725 196.692 206.83 189.478Z" fill="#DAB097"/>
<path d="M42.0524 59.3971C38.8695 47.893 35.684 36.3889 33.9883 27.5497C32.2965 18.7105 32.0919 12.5362 36.5705 10.1729C38.2885 9.26672 40.6964 8.9205 43.5265 8.9205C48.0786 8.9205 53.7257 9.8136 59.3728 10.7067C52.725 7.75199 46.0773 4.79466 40.4944 3.26026C38.1207 2.60846 35.9423 2.2124 34.0184 2.2124C31.4204 2.2124 29.2906 2.93501 27.7969 4.72384C25.1989 7.8333 24.5143 14.1611 25.1281 22.2593C25.7431 30.3589 27.6526 40.225 29.3588 48.0176C31.0637 55.809 32.5614 61.5269 34.0617 67.2436L42.0524 59.3971Z" fill="#DAB097"/>
<path d="M31.3025 186.295C24.3832 192.882 17.4666 199.47 19.3236 203.369C21.1806 207.268 31.8126 208.478 42.4459 209.687C33.2159 211.218 23.9872 212.748 17.7486 212.748C17.3695 212.748 16.9997 212.742 16.6443 212.73C10.4267 212.527 7.77756 210.498 5.12842 208.468C8.04903 203.361 10.971 198.254 15.3315 194.558C19.6961 190.863 25.498 188.579 31.3025 186.295Z" fill="#DAB097"/>
<path d="M48.1087 260.93C50.8929 267.89 53.6785 274.85 58.4902 278.994C63.3006 283.138 70.1333 284.468 76.9686 285.796C69.4107 289.31 61.8567 292.825 57.0056 293.958C55.6666 294.271 54.5322 294.404 53.5473 294.404C50.969 294.404 49.4149 293.501 47.8609 292.599C46.3527 288.456 44.8458 284.315 44.8891 279.036C44.9297 273.757 46.5179 267.344 48.1087 260.93Z" fill="#DAB097"/>
<path d="M201.986 269.575C215.609 277.332 229.23 285.09 241.646 287.516C244.859 288.143 247.988 288.413 251.009 288.413C259.668 288.413 267.426 286.191 273.614 283.778C281.961 280.523 287.447 276.919 290.447 271.466C293.449 266.013 293.966 258.71 291.596 253.725C289.223 248.739 283.958 246.072 278.694 243.405C285.741 244.062 292.791 244.72 297.337 247.465C301.879 250.209 303.924 255.039 303.649 261.593C303.373 268.148 300.778 276.427 295.268 282.116C289.763 287.806 281.342 290.906 273.557 293.728C265.769 296.55 258.617 299.095 250.002 299.11C249.975 299.11 249.948 299.11 249.921 299.11C241.323 299.11 231.281 296.603 223.116 293.062C214.925 289.509 208.623 284.918 202.322 280.326L201.986 269.575Z" fill="#DAB097"/>
<path d="M130.673 195.37C130.679 195.37 122.155 194.903 117.885 194.617C108.859 194.012 99.792 193.246 90.764 192.034C66.4509 188.771 41.4217 180.22 21.8548 164.927C12.8976 157.926 3.1141 148.079 0.794137 135.856C-4.02284 110.465 13.969 84.2716 30.5904 66.6797C57.4897 38.2093 96.2865 11.6405 136.37 11.6405C137.085 11.6405 137.794 11.6471 138.509 11.6667C156.023 12.0798 172.881 20.2987 186.995 29.517C202.103 39.3896 216.231 50.9881 228.787 63.9729C247.642 83.4677 269.942 113.159 263.122 141.504C260.178 153.746 252.688 165.629 242.582 173.267C223.26 187.871 197.729 193.334 174.247 195.136C166.767 195.71 159.267 195.947 151.79 195.947C148.913 195.947 146.035 195.913 143.166 195.848C138.985 195.753 130.686 195.37 130.699 195.372L130.673 195.37ZM131.009 189.246L130.981 189.244C130.995 189.246 139.213 189.625 143.304 189.717C146.13 189.781 148.966 189.815 151.79 189.815C159.139 189.815 166.482 189.581 173.778 189.022C196.842 187.25 220.964 181.921 238.882 168.375C247.796 161.638 254.531 151.008 257.16 140.07C263.106 115.344 243.473 87.9777 224.379 68.2351C212.151 55.5887 198.377 44.2813 183.637 34.6513C169.849 25.6429 154.164 18.1716 138.361 17.7965C137.7 17.7807 137.035 17.7729 136.37 17.7729C98.8045 17.7729 61.525 42.8702 35.0494 70.8908C18.4503 88.4564 2.621 112.583 6.81766 134.713C8.69435 144.593 16.866 153.242 25.6318 160.096C44.1168 174.544 68.0286 182.795 91.5797 185.955C100.416 187.141 109.333 187.898 118.294 188.498C122.521 188.782 130.998 189.246 131.009 189.246Z" fill="black"/>
<path d="M36.1731 67.6685C36.1731 69.2619 34.9547 70.5891 33.3665 70.7229C31.7784 70.858 30.3554 69.7537 30.0866 68.1839V68.1852L30.084 68.1695V68.1682C27.7168 54.289 25.3457 40.3679 23.5909 28.6238C22.0461 18.3001 19.8703 5.46877 27.9174 1.33637C29.8715 0.33311 32.1613 0 34.455 0C41.4779 0 51.2718 3.20258 60.2527 6.4563C72.3351 10.8379 84.0989 15.7729 95.7866 20.6725C97.3472 21.3282 98.083 23.1249 97.4286 24.6869C96.7702 26.2475 94.9735 26.9832 93.4129 26.3275C81.7055 21.4187 70.0794 16.5414 58.1609 12.2241C48.9519 8.8838 40.2058 6.13106 34.455 6.13106C32.6688 6.13106 31.4702 6.40646 30.7213 6.79203C27.5988 8.39332 27.6958 14.6175 29.6538 27.7176C31.3994 39.3883 33.76 53.2399 36.1272 67.1387V67.1374L36.1298 67.1439V67.1518L30.0433 67.6685C30.0433 65.9741 31.4164 64.601 33.1082 64.601C34.8039 64.601 36.1731 65.9741 36.1731 67.6685Z" fill="black"/>
<path d="M186.992 29.2691L182.845 26.3996C195.093 21.7885 207.545 17.0974 221.489 13.8319C228.328 12.2346 235.717 10.9283 242.102 10.9283C248.397 10.9283 254.985 12.1939 258.261 17.2312C263.811 25.7622 257.234 43.1285 253.41 53.8116L253.061 54.7808C248.877 66.4843 246.417 73.9373 243.953 81.4086C243.421 83.0178 241.689 83.8912 240.081 83.3601C238.473 82.8302 237.6 81.0965 238.127 79.4887C240.598 72.0029 243.077 64.4921 247.286 52.7153V52.714L247.635 51.7435C252.144 39.1496 256.552 25.854 253.121 20.5741C251.714 18.4154 248.206 17.0594 242.102 17.0594C236.429 17.0594 229.583 18.2371 222.888 19.8043C209.392 22.9636 197.299 27.5117 185.004 32.1385C184.064 32.4939 183.007 32.3641 182.18 31.791C181.352 31.2179 180.861 30.2763 180.861 29.2691C180.861 27.576 182.232 26.2029 183.927 26.2029C185.619 26.2029 186.992 27.576 186.992 29.2691Z" fill="black"/>
<path d="M54.9413 179.113C54.9413 180.417 54.1151 181.576 52.8863 182.008C40.931 186.195 29.3548 190.262 20.6533 195.248C10.8187 200.882 7.81413 205.757 8.18003 206.911C8.44232 207.737 11.8731 209.834 20.8815 209.834C22.3857 209.834 23.9765 209.774 25.6211 209.651C36.0157 208.87 48.5584 205.615 61.4815 202.25C62.5255 201.979 63.6336 202.274 64.4021 203.027C65.1707 203.779 65.4867 204.881 65.2375 205.927C61.934 219.813 58.6213 233.732 54.0784 251.226V251.228L53.6626 252.833L53.2351 254.472V254.471C48.405 273.09 45.4739 288.057 50.3315 290.784C50.9191 291.116 51.8554 291.366 53.2731 291.366C62.1189 291.366 78.819 282.199 91.005 274.742C92.4057 273.884 93.7447 273.05 95.0102 272.264C96.1591 271.55 97.2672 270.863 98.3282 270.211C105.006 266.126 110.596 263.089 117.364 263.089C119.912 263.089 122.538 263.515 125.372 264.376C136.699 267.816 152.622 278.701 164.83 287.013C165.965 287.787 167.012 288.501 168.09 289.231C178.433 296.245 184.752 300.102 188.963 300.102C189.979 300.102 190.786 299.857 191.507 299.373C195.67 296.579 198.685 285.528 199.38 272.443C200.042 260.037 198.521 247.628 196.997 238.129C195.476 228.668 193.975 222.271 192.461 215.799C192.071 214.15 193.095 212.5 194.744 212.114C196.395 211.727 198.043 212.751 198.43 214.399C199.954 220.898 201.495 227.469 203.049 237.156C204.601 246.803 206.199 259.716 205.504 272.768C204.849 285.143 202.042 299.689 194.925 304.465C193.102 305.689 191.084 306.234 188.963 306.234C182.395 306.234 174.193 300.779 164.649 294.306C163.588 293.587 162.493 292.842 161.379 292.082C148.798 283.515 133.798 273.344 123.588 270.244C121.231 269.528 119.211 269.222 117.364 269.222C112.513 269.222 108.269 271.319 101.531 275.443C100.48 276.085 99.4128 276.75 98.2508 277.471C96.9879 278.256 95.6253 279.104 94.205 279.972C82.6196 287.063 64.2408 297.499 53.2731 297.499C51.2115 297.499 49.1329 297.144 47.3296 296.132C37.1409 290.415 43.4451 267.781 47.2994 252.93L47.7257 251.291L48.1427 249.684V249.686C52.6686 232.256 55.9682 218.393 59.2717 204.508L63.0291 208.186C50.2778 211.505 37.1409 214.936 26.0788 215.766C24.2926 215.9 22.5497 215.967 20.8815 215.967C13.2291 215.967 4.16828 214.557 2.33487 208.762C0.203753 202.031 9.44296 194.602 17.6042 189.926C26.8971 184.602 39.0674 180.35 50.8587 176.22L48.8076 179.113C48.8076 177.42 50.1807 176.047 51.8725 176.047C53.5682 176.047 54.9413 177.42 54.9413 179.113Z" fill="black"/>
<path d="M209.265 188.309L208.811 186.7C215.549 197.63 222.623 209.057 225.752 220.332C228.58 230.53 228.744 243.278 223.345 246.968C223.247 247.034 223.15 247.098 223.049 247.158H223.047C222.345 247.581 221.59 247.839 220.813 247.947C220.518 247.987 220.226 248.006 219.937 248.006C214.501 248.006 208.368 240.815 204.627 235.861C199.713 229.346 196.258 222.864 192.917 216.607C192.121 215.112 192.687 213.255 194.18 212.457C195.674 211.66 197.531 212.225 198.33 213.719C201.69 220.015 204.937 226.088 209.523 232.167C214.019 238.124 218.222 241.873 219.937 241.873C219.957 241.873 219.968 241.872 219.968 241.872C219.954 241.874 219.92 241.884 219.89 241.902C219.89 241.903 219.888 241.903 219.888 241.905C221.216 240.994 222.905 233.013 219.84 221.972C216.993 211.703 210.457 201.059 203.59 189.919C203.292 189.435 203.134 188.877 203.134 188.309C203.134 186.615 204.507 185.243 206.2 185.243C207.894 185.243 209.265 186.615 209.265 188.309Z" fill="black"/>
<path d="M206.8 253.483L205.171 250.774C213.498 255.191 220.951 259.069 228.582 259.069C229.955 259.069 231.335 258.94 232.725 258.664C237.916 257.626 243.428 254.508 249.821 250.85C254.655 248.083 259.909 245.068 265.429 242.979C271.1 240.832 277.048 239.653 282.598 239.653C289.393 239.653 295.95 241.434 300.422 245.839C308.463 253.763 308.312 268.53 300.808 279.146C293.264 289.817 278.307 296.573 265.681 299.767C259.581 301.311 253.816 302.081 248.276 302.081C242.143 302.081 236.332 301.138 230.698 299.302C220.071 295.841 210.151 289.204 200.667 282.884C199.255 281.943 198.874 280.04 199.813 278.631C200.753 277.222 202.657 276.84 204.067 277.779C213.713 284.208 222.922 290.318 232.598 293.471C237.621 295.108 242.79 295.947 248.276 295.947C253.241 295.947 258.499 295.259 264.176 293.823C276.357 290.741 289.537 284.463 295.8 275.605C302.101 266.694 301.426 255.438 296.118 250.207C293.211 247.343 288.48 245.785 282.598 245.785C277.885 245.785 272.667 246.795 267.601 248.714C262.616 250.601 257.78 253.36 252.866 256.173C246.739 259.679 240.296 263.405 233.924 264.677C232.12 265.037 230.342 265.201 228.582 265.201C219.141 265.201 210.285 260.428 202.298 256.192C201.293 255.66 200.669 254.618 200.669 253.483C200.669 251.789 202.042 250.417 203.735 250.417C205.427 250.417 206.8 251.789 206.8 253.483Z" fill="black"/>
<path d="M231.442 137.075C229.122 143.256 217.227 144.505 204.87 139.868C192.514 135.231 184.377 126.461 186.697 120.282C189.015 114.102 200.914 112.851 213.269 117.488C225.625 122.125 233.762 130.895 231.442 137.075Z" fill="#FFBBC7"/>
<path d="M67.8934 130.178C55.3782 131.774 44.5508 127.749 43.7141 121.188C42.8748 114.628 52.3461 108.014 64.8653 106.417C77.3818 104.821 88.2092 108.844 89.0485 115.406C89.8839 121.967 80.4139 128.58 67.8934 130.178Z" fill="#FFBBC7"/>
<path d="M100.02 87.9449C99.0667 95.4792 92.1842 100.817 84.6433 99.8648C77.1024 98.9139 71.7582 92.0341 72.7117 84.4997C73.6612 76.9654 80.5437 71.6278 88.0846 72.5799C95.6254 73.5307 100.97 80.4106 100.02 87.9449Z" fill="black"/>
<path d="M203.476 93.0492C203.258 100.614 196.943 106.572 189.372 106.354C181.801 106.138 175.838 99.8281 176.057 92.2623C176.272 84.6965 182.587 78.7399 190.158 78.9563C197.732 79.174 203.691 85.4834 203.476 93.0492Z" fill="black"/>
<path d="M95.4145 83.431C94.7286 86.7568 91.4788 88.8984 88.149 88.2152C84.8219 87.5319 82.6763 84.2821 83.3609 80.9563C84.0429 77.6304 87.2966 75.4888 90.6238 76.1721C93.9536 76.8553 96.0952 80.1051 95.4145 83.431Z" fill="white"/>
<path d="M86.5175 92.4432C85.9195 93.6943 84.4192 94.2255 83.1667 93.6274C81.9104 93.0307 81.3805 91.5304 81.9746 90.2793C82.5727 89.0269 84.073 88.4957 85.3254 89.0937C86.5805 89.6905 87.1142 91.1908 86.5175 92.4432Z" fill="white"/>
<path d="M198.33 91.7783C197.021 95.1907 193.186 96.8943 189.771 95.5815C186.353 94.2687 184.649 90.438 185.961 87.0242C187.274 83.6105 191.105 81.9083 194.523 83.221C197.936 84.5338 199.642 88.3646 198.33 91.7783Z" fill="white"/>
<path d="M188.755 100.237C188.17 101.755 186.377 102.478 184.749 101.853C183.121 101.227 182.275 99.4884 182.856 97.971C183.439 96.4523 185.236 95.7284 186.861 96.354C188.492 96.9808 189.338 98.7185 188.755 100.237Z" fill="white"/>
<path d="M96.1375 100.045C96.1416 100.056 96.1457 100.068 96.7013 101.66C97.257 103.253 98.3641 106.428 99.2107 109.304C100.057 112.181 100.61 114.663 100.958 116.637C101.549 119.988 101.545 122.116 101.416 123.711C101.25 125.774 100.544 127.773 99.8161 129.448C99.1516 130.977 97.67 132.428 95.507 134.036C93.0393 135.869 90.6766 136.059 89.7243 136.133C88.4307 136.233 86.8646 134.743 85.6349 133.159C84.6072 131.836 84.3827 129.994 84.1843 128.307C84.0624 127.27 84.3021 125.873 84.8896 123.68C85.4771 121.487 86.5086 118.541 87.9802 115.444C89.4518 112.347 91.3323 109.187 92.3953 107.44C94.0481 104.865 94.9756 102.799 95.8098 100.582C96.1364 99.734 96.2667 99.4468 96.2907 99.3642M85.1557 129.122C85.3326 129.574 86.2045 131.437 87.4409 133.309C87.9817 134.127 88.6974 134.428 89.4663 134.985C89.6677 135.131 89.8672 135.229 89.9849 135.2C90.1025 135.172 90.1382 135.002 90.1159 134.824C89.9992 133.89 87.2672 130.859 85.6716 128.379C85.4076 127.968 85.2826 127.405 85.3648 127.393C85.9517 127.309 87.109 129.337 88.6201 130.78C89.0806 131.22 89.5718 131.626 90.0486 131.99M90.0486 131.99C91.2591 132.915 92.3764 133.575 92.6619 133.857C93.2752 134.462 91.1591 134.547 90.8769 134.444C90.3951 134.268 90.283 133.328 90.0486 131.99ZM90.0486 131.99C89.9635 131.504 89.8621 130.965 89.721 130.391C88.953 127.268 87.6513 124.837 86.9752 124.055C86.6912 123.726 86.2422 123.814 85.9614 123.893M85.9614 123.893C85.9405 123.899 85.9206 123.905 85.9017 123.911C85.6288 123.992 85.5253 124.122 85.4783 124.284C85.3822 124.616 85.559 125.156 85.7681 125.735C86.0957 126.642 87.0392 127.056 87.9517 127.473C88.218 127.594 88.515 127.673 88.583 127.633C89.1524 127.295 87.2714 126.212 86.4949 124.979C86.2545 124.597 86.0817 124.228 85.9614 123.893ZM85.9614 123.893C85.7313 123.254 85.693 122.744 85.7406 122.525C85.7948 122.276 85.9104 122.072 86.1545 121.753M86.1545 121.753C86.1718 121.731 86.1898 121.708 86.2085 121.684M86.1545 121.753C86.5544 122.155 87.2232 122.794 88.0244 123.808C89.5148 125.693 90.5572 127.034 91.0766 128.425C92.1415 131.276 92.948 133.569 93.3169 133.485C93.6259 133.415 93.9709 133.071 94.542 132.659C94.6614 132.573 94.7771 132.485 94.89 132.395M86.1545 121.753C85.9758 121.574 85.8509 121.441 85.7918 121.344C85.7592 121.29 85.9123 121.415 86.2085 121.684M86.2085 121.684C86.5854 121.203 87.2365 120.462 88.3597 118.992M86.2085 121.684C86.9143 122.324 88.433 123.781 90.1916 125.587C92.8042 128.27 93.6462 130.854 94.0924 131.453C94.4343 131.911 94.7048 132.22 94.89 132.395M88.3597 118.992C88.7151 118.527 89.1177 117.989 89.5738 117.362C90.4692 116.133 91.3134 114.562 92.0356 113.209M88.3597 118.992C88.5746 120.101 89.0833 121.616 90.2048 123.338C92.466 126.809 94.082 129.235 94.365 129.981C94.6419 130.712 95.0304 131.636 95.1705 132.161M88.3597 118.992C88.2563 118.459 88.2209 118.02 88.218 117.697C88.2153 117.395 88.3265 117.052 88.906 115.574C89.4856 114.096 90.569 111.5 91.2054 109.966C91.8418 108.432 91.9982 108.039 92.1352 107.789C92.2722 107.539 92.3849 107.444 92.5146 107.596C92.9075 108.056 92.9652 108.732 93.0024 109.102C93.0906 109.981 92.6124 111.425 92.0356 113.209M92.0356 113.209C92.2014 112.899 92.3608 112.6 92.513 112.319C93.8518 109.849 94.5339 108.261 94.9845 106.973C95.5643 105.315 95.7708 104.132 95.9105 103.998C96.0702 103.844 96.2473 104.759 97.1224 107.417C97.8722 109.695 99.376 113.815 100.152 116.034C101.127 118.82 100.922 119.899 100.449 122.962C100.264 124.153 99.5104 125.469 98.524 127.307C97.1182 129.925 96.2576 131.209 95.1705 132.161M92.0356 113.209C91.8211 113.873 91.5931 114.583 91.3754 115.329C89.9333 120.273 90.4954 121.361 90.5429 122.647C90.5505 122.854 90.801 122.772 91.0011 122.362C91.0646 122.232 91.127 122.081 91.189 121.912M95.1705 132.161C95.0787 132.241 94.9854 132.319 94.89 132.395M95.1705 132.161C95.2477 132.45 95.2494 132.618 95.1154 132.566C95.0674 132.547 94.9915 132.491 94.89 132.395M91.189 121.912C91.2083 121.859 91.2277 121.804 91.247 121.748M91.189 121.912C91.1561 121.792 91.1414 121.689 91.247 121.748M91.189 121.912C91.1933 121.928 91.1981 121.945 91.2029 121.961C91.3512 122.467 92.1151 123.144 93.1485 123.897M91.247 121.748C91.6837 120.464 92.1046 118.234 92.7146 115.383C93.2098 113.068 93.6937 111.261 94.0829 110.02M91.247 121.748C91.2977 121.776 91.3763 121.841 91.4939 121.96C91.8876 122.357 92.7768 123.255 93.1485 123.897M94.0829 110.02C94.1317 109.865 94.1789 109.718 94.2246 109.581M94.0829 110.02C94.0217 109.552 94.0555 109.35 94.2246 109.581M94.0829 110.02C94.2296 111.143 94.9217 113.799 95.6063 115.723C95.9781 116.491 96.3064 117.166 96.5968 117.76M94.2246 109.581C94.3575 109.18 94.4765 108.856 94.5773 108.61C94.7528 108.184 94.8933 107.941 95.0135 107.89C96.705 107.175 97.398 113.562 98.0223 114.885C99.783 118.617 100.411 120.488 100.242 121.563C100.161 122.075 99.6741 122.652 98.9713 123.508C98.1374 124.523 96.7727 126.467 95.4558 128.777C94.9703 129.629 94.8901 129.856 94.7771 129.869C93.3548 130.043 93.8913 125.188 93.1525 123.904C93.1512 123.902 93.1499 123.899 93.1485 123.897M94.2246 109.581C94.2459 109.61 94.2694 109.646 94.2951 109.689C94.6283 110.248 95.3302 112.146 95.8703 113.261C96.6083 114.786 97.5032 115.956 98.4134 117.332C99.2223 118.555 100.502 120.862 99.8561 120.461C99.7066 120.368 99.4523 120.117 98.4733 119.332C97.768 118.767 97.1444 118.24 96.5968 117.76M93.1485 123.897C93.2781 123.991 93.4119 124.087 93.5492 124.184M93.5492 124.184C94.0512 124.537 94.6006 124.904 95.1643 125.276C95.3613 125.406 95.4931 125.46 95.5731 125.456M93.5492 124.184C93.2535 123.575 92.9858 122.925 92.8105 122.226C92.7187 121.861 92.7335 121.529 92.9285 121.641C93.4886 121.964 94.2313 122.413 95.1829 124.182M93.5492 124.184C94.0211 125.155 94.5644 126.019 94.9177 126.799C95.0414 127.072 95.1766 127.278 95.3042 127.43C95.4317 127.581 95.5603 127.665 95.6481 127.596C95.8864 127.409 95.821 126.897 95.7806 126.4C95.7648 126.206 95.6929 125.885 95.5731 125.456M95.5731 125.456C95.7446 125.449 95.6784 125.177 95.5077 124.822C95.3969 124.592 95.2886 124.379 95.1829 124.182M95.5731 125.456C95.4742 125.102 95.3426 124.674 95.1829 124.182M95.1829 124.182C94.9455 123.451 94.6458 122.578 94.2989 121.597M94.2989 121.597C94.0131 120.788 93.6952 119.905 93.3535 118.967C92.8518 117.59 92.7355 117.305 92.786 117.626C93.0602 119.366 93.4898 120.488 94.2989 121.597ZM94.2989 121.597C94.7313 122.189 95.2722 122.778 95.9556 123.456C96.396 123.893 96.5661 124.092 96.7357 124.2C96.9053 124.308 97.0701 124.317 97.1986 124.241C97.3272 124.165 97.4146 124.002 97.4318 123.797C97.5107 122.854 96.5054 121.612 94.9803 118.719C94.33 117.485 93.5999 115.537 93.3331 114.811C93.1319 114.264 94.0251 115.503 96.5968 117.76M96.5968 117.76C98.1004 120.835 98.5889 121.754 98.8399 122.334C98.8153 122.334 98.6577 122.066 98.4954 121.79" stroke="#2C95F7" stroke-width="7" stroke-linecap="round"/>
<path d="M175.753 102.088C175.751 102.098 175.748 102.108 175.372 103.512C174.997 104.916 174.248 107.715 173.724 110.246C173.201 112.778 172.924 114.958 172.794 116.688C172.573 119.626 172.806 121.48 173.105 122.867C173.491 124.661 174.402 126.384 175.299 127.823C176.119 129.137 177.734 130.36 180.038 131.699C182.667 133.227 185.014 133.326 185.96 133.363C187.245 133.413 188.627 132.07 189.668 130.655C190.538 129.472 190.56 127.859 190.574 126.383C190.582 125.476 190.195 124.265 189.38 122.37C188.565 120.475 187.232 117.937 185.448 115.279C183.665 112.621 181.472 109.92 180.237 108.427C178.331 106.23 177.195 104.455 176.134 102.547C175.721 101.817 175.562 101.57 175.529 101.499M176.356 104.992C176.35 105.014 176.194 105.587 175.929 106.793C175.729 107.7 175.727 108.953 175.916 110.685M175.916 110.685C176.004 111.495 176.134 112.408 176.305 113.44C176.625 115.375 177.523 117.806 178.444 120.146C179.365 122.487 180.405 124.64 181.127 126.001C182.698 128.966 183.93 129.932 184.777 131.05C185.244 131.665 185.794 131.822 186.19 131.876C186.732 131.949 187.333 131.295 187.762 130.686M175.916 110.685C175.995 110.623 176.069 110.639 176.136 110.774C176.384 111.28 177.626 113.163 178.164 115.457C178.86 118.427 179.376 120.785 179.786 121.645C180.255 122.627 181.285 124.011 182.435 125.88C183.529 127.656 184.167 128.631 184.576 128.984C185.261 129.576 185.963 130.087 186.612 130.391M175.916 110.685C175.603 110.933 175.204 112.408 174.834 112.676C174.605 112.843 174.783 113.285 175.144 114.841C175.461 116.206 175.933 118.761 176.356 120.52C177 123.198 178.027 125.061 178.989 126.65C180.269 128.762 182.414 130.499 183.076 131.203C183.776 131.948 184.281 132.522 184.225 132.788C184.163 133.078 183.315 132.843 182.55 132.606C181.573 132.305 180.214 130.753 178.658 129.411C177.965 128.812 177.48 128.166 176.864 127.397C175.689 125.931 175.423 124.717 175.241 123.979C174.98 122.929 174.62 121.714 173.806 117.938C173.636 116.959 173.652 116.548 173.733 116.06C173.788 115.793 173.872 115.487 173.915 115.055M187.762 130.686C187.859 130.548 187.947 130.413 188.023 130.289C188.595 129.363 187.98 127.353 187.512 126.007C187.114 124.861 186.556 123.812 185.671 121.868C185.045 120.495 183.726 118.501 182.887 117.009C181.571 114.669 181.18 113.583 180.876 113.035C180.772 112.847 180.669 112.667 180.567 112.494M187.762 130.686C187.921 130.683 188.072 130.657 188.214 130.604C188.384 130.541 188.579 130.468 188.669 130.245C188.878 129.728 189.056 129.012 188.918 128.315C188.603 126.719 187.716 124.243 187.194 123.146C186.769 122.252 186.45 121.413 186.145 120.572C185.553 118.943 185.126 118.127 184.815 117.455C184.395 116.547 183.669 115.726 183.117 114.344C182.431 112.627 182.006 111.346 181.238 111.137C181.084 111.095 180.868 111.043 180.799 111.187C180.646 111.512 180.511 112.001 180.567 112.494M187.762 130.686C187.429 130.691 187.061 130.593 186.674 130.419M180.567 112.494C179.398 110.506 178.389 109.436 177.928 108.67C177.904 108.631 177.881 108.59 177.859 108.548M180.567 112.494C180.572 112.535 180.578 112.576 180.585 112.617C180.766 113.619 180.935 114.748 181.2 115.334C181.638 116.301 182.65 118.025 183.311 119.998C183.717 121.212 184.366 123.387 184.899 124.931C185.853 127.693 186.526 129.844 186.674 130.419M177.859 108.548C177.654 108.158 177.544 107.711 177.476 107.426C177.457 107.347 177.618 107.586 177.859 108.548ZM177.859 108.548C177.916 108.776 177.978 109.043 178.042 109.356C178.353 110.861 178.866 113.746 179.777 116.619C180.688 119.491 181.961 122.266 183.158 124.524C185.134 128.252 186.406 130.059 186.612 130.391M186.612 130.391C186.627 130.415 186.636 130.431 186.64 130.44C186.714 130.627 186.723 130.609 186.674 130.419M186.612 130.391C186.633 130.4 186.653 130.41 186.674 130.419" stroke="#2C95F7" stroke-width="7" stroke-linecap="round"/>
<path d="M122.424 150.612C122.613 150.485 123.231 149.78 124.845 148.25C127.516 145.718 129.808 145.142 131.553 144.332C134.937 142.759 139.065 143.545 140.248 144.016C141.525 144.524 143.788 146.282 146.862 149.879C148.69 152.898 149.753 155.158 150 155.788C150.113 156.084 150.2 156.331 150.242 156.383" stroke="black" stroke-width="12" stroke-linecap="round"/>
</svg>
