<svg width="303" height="315" viewBox="0 0 303 315" fill="none" xmlns="http://www.w3.org/2000/svg">
<path d="M53.5373 229.656C49.9463 236.576 46.3554 243.495 43.7179 253.218C41.0791 262.941 39.3952 275.466 39.6879 283.938C39.9821 292.411 42.2514 296.829 45.6989 298.335C46.6075 298.732 47.5973 298.926 48.6812 298.926C51.7201 298.926 55.5182 297.406 60.4149 294.538C67.0664 290.644 75.7438 284.267 85.311 279.474C94.8753 274.684 105.326 271.478 113.762 271.045C114.411 271.011 115.046 270.996 115.672 270.996C123.196 270.996 129.231 273.436 136.603 279.243C144.591 285.532 154.135 295.773 162.66 302.311C170.288 308.161 177.099 311.05 182.07 311.05C182.657 311.05 183.216 311.01 183.746 310.929C188.804 310.17 191.411 305.811 193.185 300.906C194.961 296 195.908 290.55 196.25 282.471C196.59 274.392 196.326 263.686 195.196 253.286C194.067 242.884 192.072 232.788 190.079 222.69C198.022 227.998 205.965 233.306 215.02 237.05C221.134 239.577 227.757 241.391 232.468 241.391C234.739 241.391 236.563 240.969 237.676 240.004C241.1 237.034 237.769 228.914 231.881 220.677C225.997 212.442 217.555 204.087 209.111 195.735C221.494 191.45 233.878 187.164 243.26 178.717C252.646 170.272 259.029 157.663 260.648 146.416C262.265 135.171 259.119 125.286 255.357 116.823C251.592 108.361 247.214 101.321 242.836 94.2793C249.443 79.243 256.054 64.2068 259.894 53.7107C263.73 43.2132 264.798 37.2558 262.546 33.3286C260.298 29.4029 254.729 27.5089 247.63 26.9379C246.116 26.8162 244.528 26.7553 242.874 26.7553C236.775 26.7553 229.714 27.5871 221.65 29.2986C211.396 31.4752 199.513 35.0734 187.634 38.6716C178.546 32.8403 169.457 27.0104 159.685 23.7832C152.726 21.4848 145.417 20.5081 138.206 20.5081C135.293 20.5081 132.396 20.6675 129.543 20.9631C119.627 21.9935 110.249 24.6758 100.87 27.3596C88.3643 20.8907 75.8554 14.4217 64.6594 9.77292C55.0357 5.7762 46.3843 3.12573 40.6863 3.12573C39.7517 3.12573 38.8981 3.19674 38.1344 3.34455C32.6915 4.39517 31.6901 9.32513 32.277 20.7443C32.8625 32.1635 35.0333 50.0719 37.2026 67.9789C26.9312 78.4286 16.6582 88.8783 10.0806 100.583C3.50732 112.289 0.63224 125.249 4.15943 136.936C7.68808 148.622 17.6234 159.034 26.8819 166.191C36.1462 173.35 44.7381 177.254 53.3257 181.159C48.5247 188.348 43.7208 195.536 40.8124 201.725C37.904 207.915 36.8882 213.104 39.3213 217.593C41.7587 222.081 47.6465 225.869 53.5373 229.656Z" fill="#FFD6BE"/>
<path d="M195.529 261.688C204.64 266.484 213.752 271.281 221.928 272.469C223.327 272.672 224.692 272.769 226.045 272.769C232.627 272.769 238.867 270.457 246.23 266.654C255.112 262.069 265.625 255.319 274.993 254.257C275.898 254.154 276.792 254.104 277.671 254.104C285.908 254.104 292.966 258.443 296.662 264.292C300.75 270.765 300.713 279.088 296.94 286.611C293.163 294.135 285.651 300.858 275.998 305.411C267.043 309.638 256.239 311.997 246.13 311.997C245.348 311.997 244.569 311.983 243.797 311.954C233.036 311.558 223.298 308.382 215.472 303.788C207.648 299.193 201.739 293.18 195.826 287.169L195.529 261.688Z" fill="#FFD6BE"/>
<path d="M123.032 161.825C126.682 158.586 130.33 155.347 133.628 154.362C134.422 154.126 135.193 154.018 135.947 154.018C138.313 154.018 140.451 155.078 142.29 156.431C144.708 158.215 146.605 160.513 148.501 162.812C144.553 164.77 140.61 166.729 136.539 166.729C136.377 166.729 136.213 166.726 136.054 166.719C131.809 166.555 127.421 164.19 123.032 161.825Z" fill="#F656A0"/>
<path d="M115.512 140.718L157.374 146.561C156.843 149.455 156.313 152.349 154.9 155.021C153.486 157.695 151.193 160.147 148.898 162.599C144.931 158.235 140.962 153.872 136.622 153.779C136.573 153.778 136.525 153.778 136.477 153.778C132.173 153.778 127.507 157.911 122.836 162.042C120.606 159.561 118.373 157.082 117.153 153.527C115.933 149.974 115.724 145.347 115.512 140.718Z" fill="black"/>
<path d="M91.5076 192.96C105.106 195.329 118.703 197.7 131.146 199.036C143.588 200.37 154.87 200.673 166.151 200.976C161.663 216.486 157.171 231.996 149.506 243.93C142.272 255.191 132.211 263.267 122.891 263.267C122.339 263.267 121.786 263.238 121.237 263.18C111.469 262.141 102.78 251.708 98.0026 238.438C93.2277 225.168 92.3669 209.064 91.5076 192.96Z" fill="#FFECE1"/>
<path d="M49.5187 56.8293C48.1362 50.3574 46.748 43.8856 45.2858 36.7848C43.825 29.6826 42.2846 21.9486 46.3321 19.9024C47.145 19.4923 48.1797 19.3112 49.3781 19.3112C54.1458 19.3112 61.4494 22.1964 67.1518 24.9889C74.2815 28.4827 78.9115 31.8302 83.5386 35.1763C77.858 38.2253 72.1745 41.2743 66.5069 44.8826C60.8379 48.4909 55.1805 52.6601 49.5187 56.8293Z" fill="#745B54"/>
<path d="M201.891 49.4546C206.11 47.5809 210.331 45.7057 219.413 43.1595C225.177 41.5438 232.906 39.657 238.874 39.657C242.313 39.657 245.17 40.283 246.739 41.9452C251.028 46.4955 245.656 58.8146 241.79 66.8486C237.928 74.8826 235.569 78.63 233.21 82.3789C228.702 76.4534 224.19 70.5265 218.972 65.04C213.752 59.5522 207.82 54.5034 201.891 49.4546Z" fill="#745B54"/>
<path d="M45.2944 60.4348C43.4424 49.4648 41.5947 38.4949 40.8122 29.6392C40.034 20.7835 40.3224 14.0436 43.1192 11.5279C44.0959 10.6512 45.3755 10.2874 46.971 10.2874C49.949 10.2874 54.0225 11.5511 59.2612 13.0959C67.301 15.4667 78.0767 18.4982 88.8583 21.5298C78.0999 16.2188 67.3415 10.9062 58.1598 7.53554C50.491 4.71987 43.9249 3.25769 39.5326 3.25769C38.6646 3.25769 37.8821 3.31566 37.1923 3.43014C33.0144 4.12717 32.2609 6.95154 32.1841 14.0871C32.1058 21.2212 32.7072 32.6664 33.7375 42.2713C34.7722 51.8762 36.2416 59.6406 37.7067 67.4051L45.2944 60.4348Z" fill="#DAB097"/>
<path d="M198.371 47.0259C209.548 43.2046 220.723 39.3817 230.991 37.324C235.65 36.3907 240.121 35.8198 243.923 35.8198C248.508 35.8198 252.122 36.6501 253.921 38.6746C257.207 42.3814 254.418 50.0879 252.377 57.9915C250.334 65.8966 249.039 73.9972 247.74 82.0979C252.051 72.622 256.358 63.1461 259.341 55.2556C262.32 47.365 263.975 41.0584 263.155 36.9907C262.339 32.9229 259.048 31.0941 255.758 29.2653C249.933 28.5813 244.106 27.8973 237.909 27.8973C234.037 27.8973 230.019 28.164 225.767 28.8639C214.709 30.6869 202.055 35.443 189.404 40.199L198.371 47.0259Z" fill="#DAB097"/>
<path d="M74.2339 212.627C79.3349 216.201 84.4358 219.774 88.8687 223.42C93.306 227.066 97.0723 230.785 95.0536 233.051C93.3176 235.002 87.2892 235.876 80.6072 235.876C79.5319 235.876 78.4335 235.854 77.335 235.809C69.4445 235.487 61.4612 234.031 54.146 230.185C46.8293 226.34 40.185 220.106 38.6011 214.01C37.0143 207.915 40.4893 201.957 43.9658 196C43.6803 202.311 43.3977 208.623 46.9858 213.621C50.5695 218.619 58.0268 222.303 65.0565 225.03C69.8604 226.895 74.4672 228.314 77.3684 228.314C78.7117 228.314 79.6913 228.01 80.1507 227.306C81.6085 225.078 77.9219 218.853 74.2339 212.627Z" fill="#DAB097"/>
<path d="M108.701 196.349C87.2918 188.412 65.8794 180.475 50.3983 171.873C34.9215 163.273 25.3688 154.007 21.2431 140.646C17.1145 127.285 18.413 109.83 23.1835 95.9299C27.9512 82.0298 36.1895 71.6858 44.4293 61.3419C33.9158 70.8845 23.4023 80.427 16.2465 90.6985C9.08632 100.97 5.27654 111.972 4.23462 121.955C3.19124 131.939 4.90846 140.907 9.80944 148.4C14.7104 155.892 22.7864 161.912 29.4496 167.369C36.1083 172.825 41.3499 177.722 54.324 182.458C67.2966 187.194 88.0004 191.771 108.701 196.349Z" fill="#DAB097"/>
<path d="M42.3412 264.234C46.1321 271.387 49.9202 278.54 55.4703 282.047C59.9366 284.868 65.5418 285.329 71.3703 285.329C72.7875 285.329 74.2149 285.301 75.6438 285.275C69.7226 289.624 63.8014 293.973 58.4817 296.045C54.7574 297.497 51.3258 297.832 47.9798 297.832C46.5553 297.832 45.1424 297.771 43.728 297.709C42.1296 291.924 40.5341 286.139 40.3008 280.56C40.0704 274.981 41.2051 269.607 42.3412 264.234Z" fill="#DAB097"/>
<path d="M145.74 286.567C156.684 292.608 167.632 298.651 174.353 300.891C176.557 301.624 178.308 301.951 179.748 301.951C182.7 301.951 184.348 300.583 185.921 298.564C188.265 295.561 190.454 291.118 192.224 284.957C193.99 278.795 195.336 270.914 196.683 263.034C202.963 266.219 209.241 269.404 215.091 271.427C218.396 272.572 221.564 273.345 225.122 273.345C227.859 273.345 230.827 272.888 234.27 271.791C242.187 269.27 252.6 263.362 260.855 259.314C268.003 255.806 273.53 253.693 278.688 253.693C279.482 253.693 280.267 253.744 281.047 253.846C286.901 254.616 292.521 258.345 295.367 263.279C298.212 268.212 298.283 274.35 298.357 280.487C295.222 275.489 292.088 270.491 288.048 266.731C285.41 264.273 282.383 262.346 278.039 262.346C275.734 262.346 273.059 262.889 269.873 264.185C260.681 267.922 247.243 277.92 235.761 281.089C232.582 281.966 229.555 282.319 226.706 282.319C219.26 282.319 213.036 279.9 208.561 278.08C202.381 275.563 199.546 274.191 196.713 272.82C196.226 281.138 195.741 289.458 194.345 295.905C192.954 302.35 190.651 306.925 186.429 308.874C184.945 309.56 183.22 309.921 181.306 309.921C177.767 309.921 173.56 308.689 168.952 305.992C161.851 301.837 153.794 294.202 145.74 286.567Z" fill="#DAB097"/>
<path d="M189.934 220.954C198.383 224.472 206.83 227.991 214.456 230.705C219.065 232.346 223.371 233.692 226.313 233.692C228.246 233.692 229.588 233.112 230.045 231.654C231.198 227.975 226.699 218.705 222.195 209.435C227.296 215.071 232.401 220.708 236.066 226.262C239.731 231.815 241.957 237.287 238.718 239.365C237.495 240.151 235.491 240.451 233.153 240.451C229.31 240.451 224.573 239.636 220.956 238.829C215.136 237.529 212.197 236.248 207.512 233.272C202.823 230.295 196.378 225.625 189.934 220.954Z" fill="#DAB097"/>
<path d="M126.323 201.053C126.327 201.054 117.85 200.06 113.602 199.51C104.628 198.345 95.6245 197.017 86.6877 195.248C62.6146 190.482 38.1605 180.393 19.5782 163.912C11.0675 156.366 1.91182 145.928 0.353996 133.583C-2.88482 107.936 16.706 82.9006 34.3913 66.3689C61.6655 40.8728 99.5763 17.8098 137.678 17.8098C140.298 17.8098 142.921 17.9185 145.54 18.1446C180.816 21.1791 210.383 50.1444 232.423 75.9651C250.037 96.5979 270.455 127.621 261.89 155.495C258.191 167.534 249.978 178.932 239.416 185.931C219.22 199.313 193.392 203.18 169.839 203.524H169.832C168.586 203.541 167.342 203.55 166.096 203.55C156.955 203.55 147.832 203.076 138.765 202.306C134.596 201.953 126.337 201.056 126.349 201.056L126.323 201.053ZM127.036 194.961L127.01 194.958C127.029 194.961 135.2 195.848 139.281 196.194C148.218 196.952 157.166 197.416 166.096 197.416C167.313 197.416 168.529 197.407 169.742 197.39H169.749C192.888 197.053 217.294 193.231 236.025 180.819C245.34 174.645 252.722 164.449 256.028 153.694C263.5 129.379 245.593 100.841 227.76 79.9473C205.627 54.0208 177.525 27.0524 145.012 24.2556C142.572 24.0454 140.127 23.944 137.678 23.944C101.853 23.944 65.3897 45.7897 38.5793 70.8496C20.9201 87.3567 3.6189 110.462 6.43747 132.815C7.69531 142.795 15.3192 151.936 23.6474 159.322C41.2022 174.893 64.5623 184.613 87.8789 189.229C96.6302 190.963 105.482 192.27 114.392 193.426C118.599 193.971 127.024 194.959 127.036 194.961Z" fill="black"/>
<path d="M39.911 67.5123C39.911 69.1426 38.6343 70.4888 37.0069 70.5758C35.381 70.6627 33.9681 69.46 33.7942 67.8398C32.2943 53.8354 30.7886 39.7759 29.7612 27.9437C28.8627 17.5418 27.4832 4.59666 35.778 0.968022C37.4141 0.255047 39.2357 0 41.0572 0C48.2246 0 58.4903 4.07062 67.7387 8.08907C79.5274 13.2103 90.9683 18.8677 102.332 24.486C103.85 25.2367 104.473 27.0756 103.719 28.5943C102.97 30.113 101.13 30.7347 99.6124 29.9841C88.2266 24.3556 76.9233 18.7663 65.294 13.7146C55.708 9.5498 46.6958 6.13274 41.0572 6.13274C39.7631 6.13274 38.8502 6.32113 38.2343 6.58922C35.0216 7.99488 34.7317 14.216 35.8751 27.4133C36.891 39.1716 38.3894 53.1644 39.8921 67.1863L33.7782 67.5123C33.7782 65.8183 35.1476 64.4459 36.8431 64.4459C38.5386 64.4459 39.911 65.8183 39.911 67.5123Z" fill="black"/>
<path d="M192.859 38.5368L188.889 35.6038C201.406 31.7607 214.126 27.8509 228.246 25.4569C234.014 24.4802 240.125 23.7354 245.664 23.7354C253.186 23.7354 261.333 25.0932 264.746 31.1303C269.754 39.9918 262.116 56.9205 257.635 67.3471L257.226 68.2948V68.2934C252.322 79.7169 249.402 87.0089 246.479 94.3126C245.852 95.8849 244.068 96.65 242.496 96.0211C240.922 95.3907 240.158 93.6069 240.784 92.0331C243.712 84.7237 246.658 77.3606 251.588 65.8733H251.592L251.999 64.9256C257.283 52.6326 262.505 39.6338 259.404 34.1488C257.894 31.4781 253.39 29.8695 245.664 29.8695C240.618 29.8695 234.886 30.5535 229.274 31.5056C215.603 33.8213 203.249 37.6123 190.688 41.4684C189.76 41.7539 188.747 41.5815 187.965 41.0032C187.182 40.425 186.721 39.5092 186.721 38.5368C186.721 36.8428 188.095 35.469 189.791 35.469C191.482 35.469 192.859 36.8428 192.859 38.5368Z" fill="black"/>
<path d="M54.995 183.179C54.995 183.81 54.8023 184.423 54.4386 184.939C47.5972 194.713 41.7181 203.315 41.45 210.597C41.2138 217.107 45.7611 223.589 57.4021 228.068C65.894 231.336 77.6508 233.293 85.5225 233.293C88.557 233.293 90.638 232.996 91.6929 232.595C92.4784 232.295 91.9335 232.325 91.9596 232.828C91.9596 232.821 91.948 232.714 91.8625 232.488C91.0843 230.443 87.7556 227.185 83.6531 223.606C77.5175 218.251 71.8891 213.962 66.1766 209.609C64.826 208.583 64.5695 206.658 65.594 205.311C66.6215 203.963 68.543 203.704 69.8936 204.729C75.5959 209.075 81.3751 213.478 87.6861 218.983C91.3292 222.163 96.1476 226.501 97.5938 230.302C97.8503 230.969 98.0431 231.715 98.0836 232.511C98.2329 235.396 96.3925 237.368 93.8768 238.326C91.7263 239.146 88.7063 239.428 85.5225 239.428C76.9422 239.428 64.4362 237.348 55.1994 233.793C42.4078 228.872 34.9434 220.661 35.3216 210.372C35.6665 200.856 43.0237 190.553 49.4159 181.42L48.8623 183.179C48.8623 181.485 50.2361 180.113 51.9272 180.113C53.6227 180.113 54.995 181.485 54.995 183.179Z" fill="black"/>
<path d="M212.802 196.226V196.227L211.871 194.026C218.292 200.259 224.882 206.647 231.459 215.355C236.663 222.245 245.243 234.734 240.97 240.874C240.658 241.323 240.285 241.73 239.857 242.085C238.014 243.618 235.45 243.96 233.243 243.96C226.442 243.96 216.1 240.58 208.78 237.442C198.697 233.118 193.318 228.81 188.129 224.658L193.047 221.635C196.008 235.789 199.028 250.205 199.648 266.91C200.241 282.944 198.728 303.15 191.156 310.635C188.576 313.184 185.42 314.23 182.141 314.23C174.926 314.23 166.812 309.15 160.479 304.153C155.954 300.583 151.942 296.726 148.17 293.101C144.587 289.653 141.229 286.435 137.705 283.651C137.252 283.294 136.796 282.944 136.34 282.605C129.25 277.32 121.453 274.016 113.024 274.016C112.23 274.016 111.417 274.044 110.609 274.105C101.026 274.82 90.2309 279.832 81.2796 285.061C77.6394 287.187 74.3672 289.308 71.2632 291.324C68.5692 293.072 65.9767 294.754 63.4349 296.238C61.7989 297.194 60.1628 298.08 58.505 298.861C55.3024 300.367 51.7303 301.626 48.3697 301.626C43.8919 301.626 40.0749 299.365 38.2606 294.132C35.4072 285.919 37.3664 269.394 40.0227 257.578C42.7674 245.353 46.5264 237.007 50.1797 228.881C50.8738 227.336 52.6882 226.646 54.2344 227.34C55.7777 228.036 56.4675 229.85 55.7748 231.396C52.1389 239.48 48.6074 247.346 46.0062 258.923C43.3094 270.909 41.8515 285.777 44.0557 292.121C44.9903 294.819 46.4366 295.492 48.3697 295.492C50.3579 295.492 52.936 294.702 55.8893 293.311C57.3399 292.628 58.8166 291.833 60.341 290.941C62.7336 289.544 65.2043 287.942 67.9244 286.178C71.0183 284.17 74.4006 281.973 78.1857 279.764V279.763C87.2921 274.446 99.104 268.812 110.152 267.989C111.117 267.916 112.074 267.881 113.024 267.881C123.134 267.881 132.188 271.859 140.004 277.686C140.513 278.063 141.01 278.444 141.504 278.835C145.307 281.836 148.879 285.272 152.422 288.678C156.225 292.331 160.027 295.98 164.277 299.338C170.641 304.359 177.254 308.096 182.141 308.096C184.032 308.096 185.568 307.534 186.845 306.273C192.146 301.03 194.138 283.93 193.515 267.138C192.921 251.019 190.013 237.083 187.045 222.891C186.778 221.625 187.337 220.328 188.44 219.65C189.542 218.973 190.952 219.06 191.96 219.869C197.021 223.919 201.888 227.811 211.199 231.804C218.433 234.905 227.786 237.826 233.243 237.826C235.12 237.826 235.814 237.47 235.936 237.368C235.94 237.364 235.94 237.365 235.936 237.37C237.008 235.828 233.488 228.221 226.561 219.051C220.307 210.765 214.033 204.673 207.598 198.429C207.004 197.85 206.666 197.056 206.666 196.227V196.226C206.666 194.532 208.038 193.16 209.734 193.16C211.429 193.16 212.802 194.532 212.802 196.226Z" fill="black"/>
<path d="M199.943 262.101V262.102L198.356 259.416L198.359 259.418L198.416 259.45C207.593 264.774 215.918 269.52 225.431 269.52C227.567 269.52 229.778 269.278 232.078 268.735C237.961 267.347 244.487 264.011 251.447 260.431C258.151 256.984 265.288 253.292 271.906 251.728C273.135 251.44 274.362 251.218 275.582 251.083C276.528 250.979 277.463 250.928 278.388 250.928C291.884 250.928 301.532 261.733 302.704 272.955C303.974 285.112 295.463 297.067 284.019 304.484C272.945 311.658 258.622 315 246.134 315C245.552 315 244.974 314.993 244.398 314.978C231.395 314.651 220.592 310.627 212.523 305.836C204.433 301.036 199.094 295.46 194.019 290.173C192.842 288.952 192.884 287.01 194.105 285.836C195.325 284.664 197.269 284.703 198.442 285.925C203.531 291.224 208.361 296.232 215.655 300.561C222.963 304.9 232.753 308.549 244.553 308.847C245.076 308.86 245.604 308.866 246.134 308.866C257.687 308.866 270.793 305.743 280.683 299.335C291.175 292.538 297.529 282.486 296.602 273.591C295.715 265.115 288.374 257.062 278.388 257.062C277.689 257.062 276.981 257.1 276.25 257.181C275.316 257.284 274.336 257.458 273.316 257.698C267.58 259.053 261.159 262.333 254.251 265.887C247.492 269.362 240.251 273.108 233.488 274.705C230.72 275.359 228.038 275.655 225.431 275.655C213.988 275.655 204.235 269.916 195.339 264.757L195.396 264.789L195.391 264.788C194.39 264.206 193.807 263.195 193.807 262.102V262.101C193.807 260.407 195.18 259.034 196.875 259.034C198.568 259.034 199.943 260.407 199.943 262.101Z" fill="black"/>
<path d="M100.117 87.3321C98.3662 95.685 90.1641 101.032 81.7982 99.2759C73.4367 97.5196 68.0792 89.3247 69.8341 80.9719C71.589 72.6205 79.7911 67.2732 88.1527 69.0296C96.5156 70.7845 101.872 78.9793 100.117 87.3321Z" fill="black"/>
<path d="M215.558 102.496C214.623 110.95 207.004 117.045 198.538 116.109C190.076 115.173 183.97 107.561 184.904 99.105C185.839 90.6507 193.463 84.5571 201.924 85.4932C210.39 86.4294 216.497 94.0417 215.558 102.496Z" fill="black"/>
<path d="M95.368 81.8529C94.3 85.5163 90.4612 87.6176 86.7949 86.5467C83.1257 85.4772 81.023 81.6399 82.091 77.9765C83.1605 74.3145 86.9992 72.2133 90.6641 73.2827C94.3333 74.3536 96.4403 78.1909 95.368 81.8529Z" fill="white"/>
<path d="M84.5762 91.1362C83.7937 92.4838 82.0649 92.9418 80.7143 92.1563C79.3651 91.3724 78.9043 89.6435 79.6912 88.2958C80.4737 86.9481 82.2025 86.4917 83.5531 87.2757C84.9037 88.0596 85.3631 89.7885 84.5762 91.1362Z" fill="white"/>
<path d="M209.912 100.602C208.131 104.306 203.679 105.862 199.969 104.078C196.264 102.294 194.702 97.8456 196.483 94.1431C198.267 90.4391 202.715 88.8842 206.421 90.6666C210.131 92.4505 211.693 96.8994 209.912 100.602Z" fill="white"/>
<path d="M198.407 109.204C197.618 110.85 195.541 111.496 193.774 110.646C192.005 109.797 191.215 107.772 192.008 106.125C192.802 104.477 194.876 103.831 196.642 104.681C198.412 105.532 199.201 107.556 198.407 109.204Z" fill="white"/>
<path d="M115.69 130.868L115.788 130.848H115.79C120.958 129.744 126.375 128.586 131.758 128.377H131.761C132.358 128.354 132.953 128.343 133.545 128.343C138.38 128.343 143.136 129.103 147.387 130.605C152.139 132.284 156.16 134.864 159.922 137.266C160.731 137.782 161.161 138.723 161.024 139.672C160.037 146.544 158.983 154.259 154.777 159.992C150.755 165.469 144.004 169.007 136.784 169.007C136.351 169.007 135.916 168.994 135.478 168.968C127.878 168.517 119.857 164.058 116.114 157.057C112.418 150.146 113.172 141.089 113.769 133.074C113.847 131.993 114.634 131.095 115.69 130.868ZM116.711 135.643L118.637 133.438C118.006 141.918 117.531 149.355 120.418 154.755C123.255 160.063 129.628 163.731 135.768 164.094C136.106 164.115 136.446 164.125 136.784 164.125C142.441 164.125 147.735 161.331 150.841 157.102C154.187 152.546 155.155 146.183 156.194 138.976L157.297 141.382C153.468 138.937 149.902 136.672 145.759 135.209C142.086 133.91 137.883 133.225 133.545 133.225C133.015 133.225 132.484 133.235 131.951 133.255H131.947C127.053 133.445 122.054 134.501 116.811 135.623L116.715 135.643H116.711Z" fill="black"/>
<path d="M126.209 161.252L122.19 159.389C126.249 155.959 131.438 151.388 136.463 151.368C136.463 151.368 136.492 151.368 136.499 151.368C141.704 151.368 145.933 156.147 149.057 159.486C149.977 160.471 149.925 162.016 148.941 162.936C147.954 163.858 146.412 163.806 145.492 162.82C141.745 158.815 139.107 156.25 136.499 156.25C136.506 156.25 136.48 156.25 136.48 156.25H136.484C133.672 156.262 130.073 159.119 125.343 163.118C124.617 163.73 123.6 163.868 122.739 163.467C121.879 163.067 121.326 162.203 121.326 161.252C121.326 159.905 122.421 158.812 123.767 158.812C125.117 158.812 126.209 159.905 126.209 161.252Z" fill="black"/>
<path d="M116.919 138.811L156.324 143.741C157.663 143.908 158.613 145.128 158.446 146.466C158.279 147.803 157.059 148.752 155.72 148.586L116.314 143.656C114.975 143.488 114.028 142.267 114.195 140.93C114.363 139.592 115.583 138.643 116.919 138.811Z" fill="black"/>
<path d="M70.8542 131.613C56.4527 135.294 43.2569 132.326 41.3803 124.984C39.5022 117.641 49.6534 108.703 64.0505 105.02C78.452 101.338 91.6479 104.307 93.5245 111.65C95.4026 118.993 85.2514 127.931 70.8542 131.613Z" fill="#FFBBC7"/>
<path d="M194.69 142.457C182.519 135.671 175.225 125.563 178.393 119.878C181.565 114.195 193.997 115.087 206.169 121.874C218.337 128.659 225.634 138.768 222.466 144.451C219.294 150.135 206.859 149.242 194.69 142.457Z" fill="#FFBBC7"/>
<path d="M151.72 119.655C151.041 123.478 145.588 125.704 139.54 124.627C133.498 123.55 129.146 119.58 129.828 115.757C130.508 111.934 135.961 109.708 142.008 110.785C148.051 111.862 152.403 115.832 151.72 119.655Z" fill="black"/>
<path d="M143.626 115.253C143.362 116.618 141.24 117.358 138.881 116.907C136.525 116.457 134.822 114.984 135.082 113.621C135.345 112.256 137.467 111.514 139.827 111.964C142.182 112.415 143.885 113.888 143.626 115.253Z" fill="white"/>
</svg>
