<svg width="369" height="315" viewBox="0 0 369 315" fill="none" xmlns="http://www.w3.org/2000/svg">
<path d="M90.3134 79.6015C86.8787 61.2621 83.4466 42.9227 82.6519 31.8317C81.8558 20.7407 83.7023 16.8969 87.0597 15.1815C88.2885 14.5507 89.718 14.2084 91.5881 14.2084C94.8222 14.2084 99.3637 15.2392 106.429 17.6024C117.571 21.3322 134.992 28.3865 152.413 35.4382C163.647 31.214 174.884 26.9898 186.463 26.1295C188.034 26.0128 189.609 25.959 191.184 25.959C201.222 25.959 211.184 28.1937 218.932 30.9058C227.893 34.0442 233.889 37.8185 239.885 41.5942C252.925 36.3025 265.962 31.0108 278.625 27.7452C286.008 25.8449 293.26 24.6292 299.213 24.6292C303.474 24.6292 307.066 25.2508 309.563 26.6869C315.543 30.1334 315.22 38.2605 312.252 50.061C309.287 61.8601 303.681 77.3327 298.07 92.8039C306.149 105.189 314.226 117.573 316.946 130.615C319.662 143.656 317.02 157.353 311.241 167.365C305.464 177.378 296.553 183.708 287.895 188.32C279.237 192.931 270.833 195.827 262.43 198.721C269.839 210.22 277.248 221.72 280.227 232.5C283.201 243.279 281.744 253.339 278.535 256.007C277.904 256.529 277.209 256.767 276.46 256.767C273.391 256.767 269.449 252.747 265.71 247.817C261.06 241.686 256.719 234.15 252.381 226.614C255.318 239.818 258.26 253.023 259.243 265.944C260.234 278.866 259.267 291.504 256.94 300.181C254.614 308.857 250.927 313.571 246.832 314.721C246.167 314.907 245.491 315 244.794 315C241.174 315 236.867 312.52 229.826 307.682C221.424 301.912 209.125 292.784 198.68 286.547C189.324 280.959 181.454 277.69 174.361 277.69C173.534 277.69 172.721 277.735 171.916 277.826C164.194 278.688 157.335 283.761 148.905 289.006C140.475 294.249 130.466 299.664 122.301 302.725C117.523 304.515 113.374 305.5 110.081 305.5C107.744 305.5 105.837 305.005 104.444 303.95C101.079 301.408 100.683 295.615 102.342 285.896C104.004 276.177 107.718 262.53 110.88 250.267C114.039 238.002 116.645 227.119 119.249 216.238C107.802 219.445 96.3526 222.651 85.979 223.858C82.9168 224.213 79.945 224.395 77.2028 224.395C70.6625 224.395 65.418 223.361 63.3066 221.193C60.3086 218.116 63.6082 212.756 69.5609 208.253C75.5175 203.748 84.1181 200.098 91.3062 197.229C98.4943 194.361 104.269 192.273 110.04 190.185C97.4438 184.241 84.8433 178.299 75.7484 170.249C66.6508 162.2 61.0535 152.044 60.285 140.894C59.5165 129.744 63.578 117.6 69.3865 107.218C75.1949 96.838 82.7555 88.2191 90.3134 79.6015Z" fill="#FFD6BE"/>
<path d="M248.79 252.294C257.401 256.193 266.013 260.091 272.25 261.566C274.118 262.008 275.776 262.232 277.364 262.232C281.067 262.232 284.384 261.01 289.138 258.484C295.926 254.878 305.647 248.613 315.53 245.343C320.589 243.669 325.696 242.779 330.302 242.779C334.701 242.779 338.641 243.589 341.667 245.299C347.865 248.8 350.201 256.08 350.14 262.916C350.08 269.751 347.622 276.142 341.493 281.858C335.362 287.574 325.558 292.616 315.11 295.829C308.66 297.815 301.963 299.103 295.147 299.103C290.931 299.103 286.667 298.609 282.387 297.482C271.2 294.533 259.912 287.251 248.626 279.968L248.79 252.294Z" fill="#FFD6BE"/>
<path d="M215.894 192.325C210.329 208.626 204.761 224.928 196.291 237C189.298 246.967 180.326 254.051 171.595 254.051C169.751 254.051 167.915 253.735 166.115 253.064C155.779 249.211 146.482 233.662 141.577 220.886C136.675 208.111 136.162 198.11 135.652 188.109C149.946 189.724 164.239 191.342 177.614 192.043C184.564 192.409 191.269 192.527 197.849 192.527C203.933 192.527 209.915 192.426 215.894 192.325Z" fill="#FFECE1"/>
<path d="M94.1269 55.2032C91.5184 49.4406 88.9073 43.6781 86.9362 36.5254C84.9624 29.3727 83.6221 20.8312 87.6378 18.3159C88.5912 17.7165 89.8502 17.4595 91.3073 17.4595C95.9669 17.4595 102.649 20.0889 107.885 22.5676C114.755 25.8226 119.136 28.818 123.518 31.8147C116.978 36.6487 110.437 41.4827 105.539 45.3804C100.641 49.278 97.3872 52.2406 94.1269 55.2032Z" fill="#745B54"/>
<path d="M245.291 41.3922C252.295 37.8827 259.298 34.372 267.537 31.5904C272.435 29.9366 277.766 28.5399 281.822 28.5399C284.592 28.5399 286.768 29.1917 287.799 30.8573C290.343 34.9608 285.952 45.223 282.957 52.5802C279.955 59.9388 278.347 64.3925 276.739 68.8449C271.189 63.7158 265.64 58.5854 260.396 54.0097C255.158 49.4353 250.223 45.4131 245.291 41.3922Z" fill="#745B54"/>
<path d="M229.431 29.871C219.027 27.6861 208.62 25.5026 196.727 25.5026C190.613 25.5026 184.107 26.0796 177.007 27.5301C156.093 31.8054 130.024 43.6623 109.964 60.8857C89.904 78.1077 75.8531 100.698 71.5699 115.594C67.2853 130.493 72.7646 137.698 78.2478 144.904C75.7127 144.221 73.1816 143.539 71.1161 143.539C69.5922 143.539 68.3227 143.91 67.4899 144.924C65.5332 147.315 66.0132 153.282 66.4906 159.249C60.1208 152.004 53.7485 144.759 50.9525 136.782C48.159 128.807 48.9407 120.101 51.7406 111.2C54.5419 102.299 59.3589 93.2026 66.4499 83.6814C73.5436 74.1602 82.9074 64.2155 94.3026 54.0307C105.694 43.8459 119.113 33.4225 135.48 25.9327C150.161 19.2155 167.217 14.8601 182.227 14.8601C183.952 14.8601 185.652 14.9165 187.316 15.0345C203.466 16.1794 216.449 23.0252 229.431 29.871Z" fill="#DAB097"/>
<path d="M242.099 39.4434C254.058 33.391 266.02 27.3386 276.135 23.5944C281.208 21.7164 285.817 20.4194 289.508 20.4194C293.18 20.4194 295.941 21.702 297.353 24.9714C300.187 31.5287 297.581 46.078 294.977 60.626C298.414 50.8189 301.853 41.0119 303.226 33.4513C304.599 25.8895 303.908 20.5728 301.657 17.327C299.761 14.5978 296.763 13.3323 291.475 13.3323C290.474 13.3323 289.394 13.3756 288.225 13.466C280.859 14.0234 269.941 16.3198 259.449 19.2942C248.962 22.2685 238.899 25.9262 228.84 29.5838L242.099 39.4434Z" fill="#DAB097"/>
<path d="M302.991 108.076C302.591 123.615 302.191 139.155 292.321 151.526C282.451 163.897 263.112 173.099 245.177 179.452C227.243 185.805 210.718 189.309 194.193 192.812C205.017 192.532 215.841 192.254 223.919 191.769C231.997 191.284 237.332 190.594 246.823 188.134C256.314 185.673 269.965 181.444 279.57 176.539C289.172 171.633 294.728 166.051 299.391 158.848C304.052 151.644 307.819 142.819 308.272 134.087C308.722 125.354 305.858 116.716 302.991 108.076Z" fill="#DAB097"/>
<path d="M253.789 189.478C257.293 200.337 260.796 211.196 263.018 219.837C265.083 227.86 266.046 233.973 263.323 233.973C263.116 233.973 262.884 233.938 262.628 233.863C259.073 232.823 251.015 224.319 242.955 215.816C243.293 227.077 243.629 238.339 242.669 252.361C241.709 266.384 239.453 283.167 232.476 287.577C231.05 288.48 229.425 288.864 227.665 288.864C220.829 288.864 211.977 283.063 204.845 279.331C195.882 274.637 189.647 273.214 183.41 271.79C190.671 276.772 197.933 281.753 206.199 287.442C214.461 293.13 223.724 299.526 229.965 302.316C232.44 303.422 234.437 303.961 236.126 303.961C238.698 303.961 240.551 302.71 242.267 300.308C245.11 296.326 247.574 289.18 248.944 280.526C250.314 271.871 250.586 261.708 249.525 251.112C248.467 240.516 246.08 229.488 243.693 218.46C248.964 226.439 254.235 234.419 258.58 239.183C262.031 242.963 264.898 244.72 267.083 244.72C267.655 244.72 268.178 244.6 268.656 244.365C270.952 243.232 272.119 239.413 271.901 233.425C271.68 227.435 270.072 219.277 266.822 211.592C263.572 203.905 258.683 196.692 253.789 189.478Z" fill="#DAB097"/>
<path d="M89.0109 59.3971C85.828 47.893 82.6425 36.389 80.9468 27.5497C79.255 18.7105 79.0504 12.5362 83.529 10.1729C85.247 9.26673 87.6549 8.9205 90.485 8.9205C95.0371 8.9205 100.684 9.8136 106.331 10.7067C99.6835 7.75199 93.0358 4.79466 87.4529 3.26026C85.0792 2.60846 82.9008 2.2124 80.9769 2.2124C78.3789 2.2124 76.2491 2.93501 74.7554 4.72384C72.1574 7.8333 71.4728 14.1611 72.0866 22.2593C72.7016 30.3589 74.6111 40.225 76.3173 48.0176C78.0222 55.809 79.5199 61.5269 81.0202 67.2436L89.0109 59.3971Z" fill="#DAB097"/>
<path d="M78.261 186.295C71.3417 192.882 64.4251 199.47 66.2821 203.369C68.1391 207.268 78.7711 208.478 89.4044 209.687C80.1744 211.218 70.9457 212.748 64.7071 212.748C64.328 212.748 63.9582 212.742 63.6028 212.73C57.3852 212.527 54.7361 210.498 52.0869 208.468C55.0075 203.361 57.9295 198.254 62.29 194.559C66.6546 190.863 72.4565 188.58 78.261 186.295Z" fill="#DAB097"/>
<path d="M95.0672 260.93C97.8514 267.89 100.637 274.85 105.449 278.994C110.259 283.138 117.092 284.468 123.927 285.796C116.369 289.31 108.815 292.825 103.964 293.958C102.625 294.271 101.491 294.404 100.506 294.404C97.9275 294.404 96.3734 293.501 94.8194 292.599C93.3112 288.456 91.8043 284.315 91.8476 279.036C91.8882 273.757 93.4764 267.344 95.0672 260.93Z" fill="#DAB097"/>
<path d="M248.944 269.575C262.568 277.332 276.189 285.09 288.604 287.516C291.817 288.143 294.946 288.413 297.968 288.413C306.626 288.413 314.385 286.191 320.572 283.778C328.92 280.523 334.405 276.919 337.406 271.466C340.408 266.013 340.925 258.71 338.555 253.725C336.181 248.739 330.917 246.073 325.653 243.405C332.699 244.062 339.75 244.72 344.295 247.465C348.838 250.209 350.883 255.039 350.607 261.594C350.332 268.148 347.736 276.427 342.227 282.117C336.721 287.806 328.301 290.906 320.516 293.728C312.727 296.55 305.576 299.095 296.961 299.11C296.933 299.11 296.907 299.11 296.879 299.11C288.281 299.11 278.24 296.603 270.075 293.062C261.883 289.509 255.582 284.918 249.28 280.326L248.944 269.575Z" fill="#DAB097"/>
<path d="M177.631 195.37C177.638 195.37 169.113 194.903 164.843 194.618C155.818 194.012 146.751 193.246 137.722 192.034C113.409 188.771 88.3802 180.22 68.8133 164.927C59.8561 157.926 50.0726 148.079 47.7526 135.856C42.9357 110.465 60.9275 84.2716 77.5489 66.6797C104.448 38.2093 143.245 11.6405 183.328 11.6405C184.043 11.6405 184.753 11.6471 185.467 11.6667C202.982 12.0798 219.839 20.2987 233.953 29.517C249.061 39.3896 263.189 50.9881 275.745 63.9729C294.6 83.4677 316.9 113.159 310.081 141.504C307.136 153.746 299.647 165.629 289.541 173.267C270.219 187.871 244.687 193.334 221.206 195.136C213.725 195.71 206.225 195.947 198.748 195.947C195.871 195.947 192.994 195.913 190.124 195.848C185.943 195.753 177.645 195.37 177.658 195.372L177.631 195.37ZM177.967 189.246L177.94 189.244C177.954 189.246 186.172 189.625 190.262 189.717C193.088 189.781 195.925 189.815 198.748 189.815C206.098 189.815 213.441 189.582 220.736 189.022C243.801 187.25 267.923 181.921 285.841 168.375C294.755 161.638 301.489 151.008 304.119 140.07C310.065 115.344 290.431 87.9778 271.338 68.2351C259.11 55.5887 245.335 44.2813 230.596 34.6513C216.807 25.6429 201.122 18.1716 185.319 17.7965C184.658 17.7807 183.993 17.7729 183.328 17.7729C145.763 17.7729 108.484 42.8702 82.0079 70.8908C65.4088 88.4564 49.5795 112.583 53.7762 134.713C55.6528 144.593 63.8245 153.242 72.5903 160.096C91.0753 174.544 114.987 182.795 138.538 185.955C147.375 187.141 156.291 187.898 165.253 188.498C169.479 188.782 177.957 189.246 177.967 189.246Z" fill="black"/>
<path d="M83.1318 67.6685C83.1318 69.2619 81.9135 70.5891 80.3253 70.7229C78.7371 70.858 77.3142 69.7537 77.0453 68.1839V68.1852L77.0427 68.1695V68.1682C74.6755 54.289 72.3044 40.3679 70.5497 28.6238C69.0048 18.3001 66.8291 5.46877 74.8762 1.33637C76.8303 0.33311 79.1201 0 81.4138 0C88.4366 0 98.2306 3.20258 107.211 6.4563C119.294 10.8379 131.058 15.7729 142.745 20.6725C144.306 21.3282 145.042 23.1249 144.387 24.6869C143.729 26.2475 141.932 26.9832 140.372 26.3275C128.664 21.4187 117.038 16.5414 105.12 12.2241C95.9106 8.88381 87.1645 6.13106 81.4138 6.13106C79.6276 6.13106 78.4289 6.40646 77.6801 6.79203C74.5575 8.39332 74.6545 14.6175 76.6125 27.7176C78.3581 39.3883 80.7187 53.2399 83.0859 67.1387V67.1374L83.0885 67.1439V67.1518L77.0021 67.6685C77.0021 65.9741 78.3751 64.601 80.0669 64.601C81.7626 64.601 83.1318 65.9741 83.1318 67.6685Z" fill="black"/>
<path d="M233.95 29.2691L229.804 26.3996C242.051 21.7885 254.504 17.0974 268.447 13.8319C275.286 12.2346 282.675 10.9283 289.06 10.9283C295.355 10.9283 301.943 12.1939 305.219 17.2312C310.769 25.7622 304.192 43.1285 300.368 53.8117L300.019 54.7808C295.835 66.4843 293.375 73.9373 290.911 81.4086C290.38 83.0178 288.647 83.8912 287.039 83.3601C285.432 82.8302 284.558 81.0965 285.085 79.4887C287.556 72.0029 290.035 64.4922 294.245 52.7153V52.714L294.593 51.7435C299.102 39.1496 303.51 25.854 300.079 20.5741C298.672 18.4154 295.164 17.0594 289.06 17.0594C283.387 17.0594 276.541 18.2371 269.846 19.8043C256.35 22.9636 244.257 27.5117 231.962 32.1385C231.022 32.4939 229.965 32.3641 229.139 31.791C228.31 31.2179 227.819 30.2763 227.819 29.2691C227.819 27.576 229.19 26.2029 230.886 26.2029C232.577 26.2029 233.95 27.576 233.95 29.2691Z" fill="black"/>
<path d="M101.9 179.113C101.9 180.417 101.074 181.576 99.845 182.008C87.8898 186.195 76.3135 190.262 67.612 195.248C57.7774 200.882 54.7729 205.757 55.1388 206.911C55.4011 207.737 58.8318 209.834 67.8402 209.834C69.3445 209.834 70.9353 209.774 72.5798 209.651C82.9744 208.87 95.5172 205.615 108.44 202.25C109.484 201.979 110.592 202.274 111.361 203.027C112.129 203.779 112.445 204.881 112.196 205.927C108.893 219.813 105.58 233.732 101.037 251.226V251.228L100.621 252.833L100.194 254.472V254.471C95.3638 273.09 92.4326 288.057 97.2903 290.784C97.8778 291.116 98.8142 291.366 100.232 291.366C109.078 291.366 125.778 282.199 137.964 274.742C139.364 273.885 140.703 273.05 141.969 272.264C143.118 271.55 144.226 270.863 145.287 270.211C151.965 266.126 157.554 263.089 164.323 263.089C166.871 263.089 169.496 263.515 172.33 264.376C183.658 267.816 199.581 278.701 211.788 287.014C212.924 287.787 213.971 288.501 215.049 289.231C225.392 296.245 231.711 300.102 235.922 300.102C236.938 300.102 237.745 299.857 238.466 299.373C242.628 296.579 245.644 285.528 246.339 272.443C247.001 260.037 245.48 247.628 243.956 238.129C242.434 228.668 240.934 222.271 239.419 215.799C239.03 214.15 240.054 212.5 241.703 212.114C243.354 211.727 245.002 212.751 245.389 214.399C246.913 220.898 248.454 227.469 250.008 237.156C251.559 246.803 253.158 259.716 252.463 272.768C251.807 285.143 249.001 299.689 241.884 304.465C240.061 305.689 238.042 306.234 235.922 306.234C229.354 306.234 221.152 300.779 211.607 294.307C210.546 293.587 209.451 292.842 208.338 292.082C195.757 283.515 180.757 273.344 170.547 270.244C168.19 269.528 166.169 269.222 164.323 269.222C159.472 269.222 155.228 271.319 148.49 275.443C147.439 276.085 146.372 276.75 145.21 277.471C143.947 278.256 142.584 279.104 141.164 279.972C129.578 287.063 111.2 297.499 100.232 297.499C98.1703 297.499 96.0916 297.145 94.2884 296.132C84.0997 290.415 90.4038 267.781 94.2582 252.93L94.6844 251.291L95.1015 249.684V249.686C99.6273 232.256 102.927 218.393 106.23 204.508L109.988 208.186C97.2365 211.505 84.0997 214.936 73.0375 215.766C71.2513 215.9 69.5084 215.967 67.8402 215.967C60.1879 215.967 51.127 214.557 49.2936 208.762C47.1625 202.031 56.4017 194.602 64.5629 189.926C73.8559 184.602 86.0262 180.35 97.8175 176.22L95.7664 179.113C95.7664 177.42 97.1395 176.047 98.8312 176.047C100.527 176.047 101.9 177.42 101.9 179.113Z" fill="black"/>
<path d="M256.223 188.309L255.769 186.7C262.507 197.63 269.581 209.057 272.711 220.332C275.538 230.53 275.702 243.278 270.303 246.968C270.206 247.034 270.109 247.098 270.008 247.158H270.005C269.303 247.581 268.548 247.839 267.772 247.947C267.477 247.987 267.184 248.006 266.896 248.006C261.46 248.006 255.326 240.815 251.586 235.861C246.672 229.346 243.216 222.864 239.876 216.607C239.08 215.112 239.645 213.255 241.139 212.457C242.632 211.66 244.489 212.225 245.288 213.719C248.648 220.015 251.895 226.088 256.481 232.167C260.977 238.124 265.18 241.873 266.896 241.873C266.915 241.873 266.926 241.872 266.926 241.872C266.913 241.874 266.879 241.884 266.848 241.902C266.848 241.903 266.846 241.903 266.846 241.905C268.174 240.994 269.863 233.013 266.799 221.972C263.951 211.703 257.415 201.059 250.548 189.919C250.251 189.435 250.092 188.877 250.092 188.309C250.092 186.615 251.465 185.243 253.158 185.243C254.853 185.243 256.223 186.615 256.223 188.309Z" fill="black"/>
<path d="M253.759 253.484L252.13 250.774C260.456 255.191 267.909 259.069 275.541 259.069C276.914 259.069 278.293 258.941 279.684 258.664C284.874 257.626 290.386 254.508 296.78 250.85C301.614 248.083 306.867 245.068 312.387 242.979C318.058 240.832 324.007 239.653 329.557 239.653C336.352 239.653 342.909 241.434 347.381 245.839C355.421 253.763 355.271 268.53 347.766 279.146C340.223 289.817 325.266 296.573 312.639 299.767C306.54 301.311 300.774 302.081 295.235 302.081C289.101 302.081 283.29 301.138 277.656 299.302C267.029 295.841 257.109 289.204 247.625 282.884C246.214 281.943 245.832 280.041 246.771 278.631C247.712 277.222 249.616 276.841 251.026 277.78C260.671 284.208 269.88 290.318 279.556 293.471C284.579 295.108 289.749 295.947 295.235 295.947C300.2 295.947 305.458 295.259 311.135 293.823C323.316 290.741 336.496 284.463 342.758 275.605C349.06 266.694 348.384 255.438 343.077 250.208C340.169 247.343 335.439 245.785 329.557 245.785C324.844 245.785 319.625 246.795 314.559 248.714C309.574 250.601 304.739 253.36 299.825 256.173C293.698 259.679 287.255 263.405 280.882 264.677C279.079 265.038 277.301 265.201 275.541 265.201C266.099 265.201 257.243 260.428 249.256 256.192C248.252 255.661 247.628 254.618 247.628 253.484C247.628 251.789 249.001 250.417 250.694 250.417C252.386 250.417 253.759 251.789 253.759 253.484Z" fill="black"/>
<path d="M174.226 144.987L172.294 143.352L172.298 143.352C173.883 143.589 175.167 143.774 176.426 143.774C177.107 143.774 177.76 143.719 178.405 143.586C180.36 143.189 182.634 142.03 183.985 140.934C185.193 139.952 185.57 139.098 186.044 137.964C186.36 137.219 187.381 136.718 188.52 136.752C189.655 136.786 190.613 137.347 190.827 138.108C191.237 139.559 191.599 140.804 192.443 142.075C193.337 143.417 194.616 144.559 195.865 145.04C196.733 145.375 197.842 145.488 199.431 145.488C199.935 145.488 200.458 145.477 201.016 145.466C202.373 145.437 203.508 146.164 203.548 147.088C203.592 148.013 202.524 148.785 201.167 148.813C200.62 148.825 200.019 148.837 199.431 148.837C197.633 148.837 195.456 148.732 193.44 147.955C190.871 146.963 189.033 145.067 187.962 143.456C186.843 141.775 186.396 140.156 185.994 138.742L190.777 138.886C190.279 140.064 189.685 141.522 187.753 143.087C185.963 144.539 182.926 146.162 179.818 146.795C178.647 147.034 177.512 147.123 176.426 147.123C174.542 147.123 172.738 146.847 171.243 146.623H171.239C170.111 146.454 169.305 145.774 169.305 144.987C169.305 144.063 170.406 143.312 171.767 143.312C173.123 143.312 174.226 144.063 174.226 144.987Z" fill="black"/>
<g filter="url(#filter0_f_58_5810)">
<path d="M287.672 137.021C282.865 143.399 258.221 144.689 232.618 139.904C207.02 135.119 190.161 126.07 194.967 119.693C199.771 113.317 224.423 112.026 250.021 116.811C275.619 121.596 292.478 130.645 287.672 137.021Z" fill="#FF002F"/>
</g>
<g filter="url(#filter1_f_58_5810)">
<path d="M131.027 130.046C104.672 131.536 81.8709 127.779 80.109 121.655C78.3415 115.532 98.2866 109.359 124.65 107.868C151.008 106.378 173.808 110.134 175.576 116.258C177.335 122.382 157.393 128.555 131.027 130.046Z" fill="#FF002F"/>
</g>
<path d="M146.979 87.9449C146.025 95.4792 139.143 100.817 131.602 99.8648C124.061 98.9139 118.717 92.0341 119.67 84.4997C120.62 76.9654 127.502 71.6278 135.043 72.5799C142.584 73.5307 147.928 80.4106 146.979 87.9449Z" fill="black"/>
<path d="M250.434 93.0491C250.217 100.614 243.902 106.571 236.331 106.354C228.76 106.137 222.797 99.828 223.016 92.2622C223.231 84.6964 229.545 78.7398 237.116 78.9562C244.69 79.1739 250.649 85.4833 250.434 93.0491Z" fill="black"/>
<path d="M142.373 83.4308C141.687 86.7567 138.437 88.8983 135.108 88.215C131.78 87.5318 129.635 84.282 130.319 80.9561C131.001 77.6303 134.255 75.4887 137.582 76.1719C140.912 76.8552 143.054 80.105 142.373 83.4308Z" fill="white"/>
<path d="M133.476 92.4432C132.878 93.6943 131.378 94.2255 130.125 93.6274C128.869 93.0307 128.339 91.5304 128.933 90.2793C129.531 89.0269 131.031 88.4957 132.284 89.0937C133.539 89.6905 134.073 91.1908 133.476 92.4432Z" fill="white"/>
<path d="M245.288 91.7783C243.979 95.1907 240.145 96.8943 236.73 95.5815C233.312 94.2687 231.607 90.438 232.92 87.0242C234.233 83.6105 238.063 81.9083 241.481 83.221C244.895 84.5338 246.601 88.3646 245.288 91.7783Z" fill="white"/>
<path d="M235.713 100.237C235.128 101.755 233.335 102.479 231.708 101.853C230.079 101.227 229.233 99.4885 229.814 97.9711C230.398 96.4525 232.194 95.7285 233.819 96.3541C235.451 96.981 236.297 98.7186 235.713 100.237Z" fill="white"/>
<path d="M266.579 75.8654C263.725 75.9782 253.681 74.9942 246.741 72.6125C242.238 71.0671 238.434 66.8919 235.571 62.7026C235.057 61.7195 234.831 61.0195 234.664 60.3445C234.498 59.6695 234.398 59.0406 234.101 58.1893" stroke="black" stroke-width="14" stroke-linecap="round"/>
<path d="M113.255 64.0661C116.042 64.6913 126.099 65.5331 133.354 64.4407C138.062 63.7319 142.556 60.3103 146.127 56.7053C146.81 55.831 147.158 55.1832 147.444 54.5493C147.729 53.9153 147.941 53.3147 148.386 52.5308" stroke="black" stroke-width="14" stroke-linecap="round"/>
<path d="M180.378 104.754C198.705 105.556 214.141 107.152 226.687 109.543C239.232 111.933 248.711 115.051 255.125 118.896C258.106 120.685 260.371 122.617 261.92 124.691L280.879 118.896C286.754 117.652 291.36 119.46 295.377 121.049C299.352 122.608 302.517 124.854 304.455 127.49C306.492 130.196 307.432 133.37 307.272 137.014C307.03 142.546 304.777 147.346 300.513 151.411C296.248 155.477 290.285 160.948 282.832 163.015C275.917 164.934 267.784 170.584 258.855 170.351L255.994 170.251C251.714 173.5 245.854 176.212 238.414 178.387C230.676 180.647 221.593 182.254 211.163 183.211C200.741 184.165 189.326 184.371 176.919 183.829C164.461 183.284 153.081 182.081 142.778 180.219C132.475 178.358 123.567 175.963 116.052 173.035C109.116 170.332 103.677 167.261 99.734 163.823L99.2551 163.389L98.5479 163.358C89.4169 162.958 81.1835 158.413 74.2263 154.711L72.0441 153.537C63.3544 150.239 60.4395 145.163 56.5464 140.74C52.6533 136.317 50.8278 131.34 51.0698 125.807C51.2291 122.164 52.442 119.083 54.7083 116.566C56.8682 114.109 60.2177 112.148 64.3133 110.942C68.041 109.835 72.3389 111.733 77.4172 111.829L79.1347 111.882L97.3249 117.494C99.0523 115.561 101.477 113.834 104.6 112.312C111.322 109.039 121.051 106.762 133.787 105.479C146.524 104.196 162.056 103.955 180.383 104.754M94.1488 125.67L78.7717 120.181C74.3001 119.985 70.9344 118.256 68.4642 119.801C65.987 121.347 64.6861 123.546 64.5614 126.397C64.393 130.247 65.6829 133.738 68.4311 136.87C71.1573 139.994 75.997 144.296 80.3633 146.735C87.9985 151.516 89.0608 152.365 94.1488 152.866C93.896 151.879 93.0863 152.73 93.0497 151.737L93.0579 150.727L94.1488 125.67ZM280.207 127.49L264.365 133.115L263.269 158.172C263.209 159.527 262.952 160.837 262.496 162.101C268.792 158.172 267.282 160.793 277.018 155.59C282.054 152.232 286.032 149.388 289.016 146.519C292.017 143.638 293.604 140.273 293.776 136.424C293.9 133.57 292.798 131.266 290.469 129.512C288.332 127.902 286.766 127.788 282.832 127.49L280.207 127.49ZM216.924 150.461L139.981 147.095C138.082 147.012 136.429 147.361 135.022 148.141C133.619 148.926 132.891 149.919 132.838 151.121C132.787 152.29 133.426 153.325 134.756 154.227C135.896 155.001 137.246 155.473 138.806 155.642L139.605 155.702L216.542 159.068C218.496 159.153 220.176 158.806 221.583 158.025C222.986 157.242 223.714 156.267 223.765 155.099C223.817 153.895 223.179 152.843 221.849 151.942C220.706 151.168 219.335 150.694 217.737 150.521L216.924 150.461ZM217.792 130.614L140.849 127.248C138.95 127.165 137.297 127.514 135.89 128.294C134.487 129.079 133.76 130.055 133.709 131.221C133.656 132.425 134.295 133.478 135.624 134.381C136.764 135.155 138.114 135.626 139.674 135.796L140.473 135.856L217.41 139.221C219.364 139.307 221.045 138.959 222.451 138.179C223.854 137.396 224.582 136.402 224.635 135.198C224.686 134.03 224.047 132.996 222.717 132.096C221.574 131.321 220.203 130.848 218.606 130.675L217.792 130.614Z" fill="white"/>
<defs>
<filter id="filter0_f_58_5810" x="114.149" y="33.921" width="254.341" height="188.873" filterUnits="userSpaceOnUse" color-interpolation-filters="sRGB">
<feFlood flood-opacity="0" result="BackgroundImageFix"/>
<feBlend mode="normal" in="SourceGraphic" in2="BackgroundImageFix" result="shape"/>
<feGaussianBlur stdDeviation="40" result="effect1_foregroundBlur_58_5810"/>
</filter>
<filter id="filter1_f_58_5810" x="0" y="27.542" width="255.684" height="182.83" filterUnits="userSpaceOnUse" color-interpolation-filters="sRGB">
<feFlood flood-opacity="0" result="BackgroundImageFix"/>
<feBlend mode="normal" in="SourceGraphic" in2="BackgroundImageFix" result="shape"/>
<feGaussianBlur stdDeviation="40" result="effect1_foregroundBlur_58_5810"/>
</filter>
</defs>
</svg>
