<svg width="305" height="287" viewBox="0 0 305 287" fill="none" xmlns="http://www.w3.org/2000/svg">
<path d="M58.3688 171.825C44.3257 165.635 30.2801 159.443 20.1249 151.768C9.96598 144.094 3.69124 134.931 2.40146 124.691C1.11044 114.451 4.80189 103.131 10.1501 92.7856C15.5007 82.4418 22.513 73.0768 29.5216 63.7117C26.3329 49.9652 23.1455 36.215 21.4505 25.5071C19.758 14.7993 19.5591 7.13366 23.2999 4.04694C24.7071 2.88432 26.6776 2.37213 29.1892 2.37213C33.3415 2.37213 38.975 3.76924 46.0145 5.94883C57.3211 9.44654 72.2525 14.9511 87.1839 20.4543C100.814 15.5694 114.442 10.6857 127.565 10.6857C128.264 10.6857 128.962 10.7017 129.658 10.7301C143.419 11.2917 156.591 17.5602 169.765 23.8286C186.122 17.2356 202.479 10.6412 214.892 7.77544C219.527 6.70786 223.61 6.15741 227.072 6.15741C232.895 6.15741 236.972 7.70633 238.983 10.9449C242.193 16.11 240.141 25.5763 237.165 36.3372C234.185 47.0994 230.28 59.1563 226.371 71.2131C234.859 83.5884 243.348 95.9649 246.349 107.674C249.353 119.376 246.874 130.413 242.778 138.785C238.679 147.162 232.968 152.874 227.354 157.048C221.74 161.218 216.23 163.851 210.715 166.482C218.833 175.626 226.946 184.773 231.886 191.452C236.82 198.132 238.578 202.346 234.929 204.315C233.297 205.193 230.584 205.626 227.379 205.626C223.417 205.626 218.701 204.965 214.336 203.683C206.448 201.364 199.719 197 192.991 192.637C197.039 203.718 201.085 214.801 203.517 227.894C205.952 240.99 206.771 256.097 205.765 265.177C204.759 274.261 201.925 277.323 196.897 277.692C196.553 277.72 196.198 277.73 195.835 277.73C190.866 277.73 183.965 275.357 174.718 270.078C164.79 264.409 152.167 255.395 142.47 251.516C137.881 249.679 133.95 248.994 130.446 248.994C126.546 248.994 123.182 249.843 120.031 250.906C114.057 252.918 108.873 255.695 100.711 262.419C92.5444 269.139 81.4058 279.812 74.0426 282.759C72.5119 283.373 71.1456 283.65 69.925 283.65C65.2662 283.65 62.7076 279.597 61.2115 274.504C59.3238 268.075 59.1335 259.99 60.7494 246.773C62.3691 233.557 65.8036 215.209 69.2319 196.864C58.6023 203.455 47.9727 210.049 40.502 213.36C36.7476 215.029 33.7912 215.866 31.7194 215.866C29.6698 215.866 28.4875 215.045 28.2565 213.395C27.7944 210.077 31.1783 203.408 36.8402 195.92C42.5009 188.432 50.4324 180.128 58.3688 171.825Z" fill="#FFD6BE"/>
<path d="M203.656 230.448C211.733 234.798 219.814 239.151 227.243 239.151C227.936 239.151 228.619 239.114 229.302 239.035C237.282 238.11 244.414 231.496 251.52 226.157C258.63 220.817 265.714 216.753 272.966 215.088C275.421 214.523 277.894 214.235 280.297 214.235C285.004 214.235 289.45 215.339 292.996 217.654C298.357 221.158 301.655 227.427 302.104 233.948C302.553 240.47 300.147 247.247 294.45 253.383C288.751 259.518 279.76 265.013 268.991 267.593C264.086 268.77 258.807 269.341 253.503 269.341C247.168 269.341 240.789 268.527 234.945 266.959C224.21 264.077 215.282 258.653 206.353 253.225L203.656 230.448Z" fill="#FFD6BE"/>
<path d="M90.7728 177.364C101.842 178.352 112.912 179.342 124.263 179.484C125.266 179.497 126.274 179.503 127.28 179.503C137.673 179.503 148.281 178.861 158.888 178.223C155.744 191.679 152.603 205.139 147.278 216.956C142.126 228.4 134.925 238.302 126.505 238.302C126.227 238.302 125.952 238.292 125.67 238.27C116.891 237.588 106.84 226.043 100.812 214.081C94.783 202.122 92.7779 189.743 90.7728 177.364Z" fill="#FFECE1"/>
<path d="M41.7794 51.8251C39.9201 46.7736 38.0571 41.7245 36.0582 35.2375C34.0568 28.7518 31.9183 20.8271 35.3663 18.5241C36.1755 17.981 37.2948 17.7502 38.6204 17.7502C42.9308 17.7502 49.4267 20.2112 54.5414 22.4229C61.2275 25.3171 65.554 27.7941 69.8829 30.2687C64.9882 33.3998 60.0946 36.531 55.4111 40.1225C50.7276 43.7152 46.2517 47.772 41.7794 51.8251Z" fill="#745B54"/>
<path d="M183.2 32.1224C189.566 28.8148 195.936 25.5071 203.963 22.3279C209.441 20.1606 215.687 18.0538 220.131 18.0538C222.199 18.0538 223.875 18.5117 224.899 19.6336C228.123 23.1622 224.875 33.2665 222.002 40.6816C219.128 48.0979 216.626 52.8236 214.128 57.5506C208.672 52.6792 203.216 47.8066 198.061 43.5671C192.909 39.3301 188.054 35.7251 183.2 32.1224Z" fill="#745B54"/>
<path d="M37.9027 55.4784C35.0242 45.39 32.1469 35.298 30.1442 27.1054C28.1428 18.9128 27.0161 12.6184 30.0997 10.4833C31.0584 9.8168 32.431 9.55392 34.0877 9.55392C37.7507 9.55392 42.8234 10.8338 48.0073 11.8545C55.5409 13.3367 63.308 14.2809 71.0789 15.2226C63.0807 12.1581 55.085 9.09603 47.9603 6.84979C40.8344 4.60356 34.5819 3.17806 30.0182 2.72388C29.1485 2.63501 28.3417 2.58441 27.5918 2.58441C24.4168 2.58441 22.3264 3.51006 21.238 6.58074C19.8939 10.3759 20.078 17.4503 21.8014 27.7435C23.5211 38.0379 26.7851 51.5536 30.0491 65.0705L37.9027 55.4784Z" fill="#DAB097"/>
<path d="M225.027 66.9848C226.722 56.325 228.417 45.664 230.454 36.4829C232.49 27.3017 234.866 19.6015 231.928 16.1865C230.584 14.6215 228.117 13.9588 224.893 13.9588C221.096 13.9588 216.247 14.8782 210.937 16.3284C201.126 19.0042 189.749 23.4843 178.373 27.9644L172.234 24.2742C177.007 21.5664 181.779 18.8622 187.973 16.442C194.165 14.0254 201.777 11.8952 208.473 10.1488C215.166 8.40119 220.94 7.03863 226.035 6.60913C226.994 6.53015 227.93 6.48325 228.831 6.48325C232.721 6.48325 235.997 7.36446 237.965 10.287C240.384 13.886 240.814 20.5778 239.831 26.5019C238.85 32.4261 236.459 37.5825 233.755 44.2015C231.054 50.8242 228.04 58.9033 225.027 66.9848Z" fill="#DAB097"/>
<path d="M3.14162 120.877C10.2737 130.078 17.4022 139.282 29.4995 147.266C41.5931 155.251 58.6494 162.014 72.1798 166.928C85.7064 171.845 95.701 174.905 105.694 177.967C96.1878 177.281 86.6775 176.596 80.7919 176.214C74.9063 175.829 72.6443 175.743 70.3834 175.661C63.2068 180.536 56.034 185.415 49.3639 191.569C42.6938 197.724 36.5266 205.158 37.5075 207.408C37.7533 207.971 38.4402 208.208 39.4298 208.208C42.4183 208.208 48.1717 206.031 52.8589 203.914C59.0991 201.099 63.4539 198.393 67.8088 195.689C59.2473 201.607 50.6858 207.525 44.1776 211.461C39.2408 214.448 35.4863 216.289 32.9438 216.289C32.1334 216.289 31.4477 216.103 30.8844 215.708C28.5568 214.068 28.3542 208.836 31.4378 202.707C34.5215 196.577 40.8913 189.55 46.0715 184.119C51.2529 178.688 55.2408 174.855 59.2288 171.023C46.6571 166.299 34.0854 161.576 24.575 155.709C15.0647 149.844 8.6195 142.84 5.55441 136.843C2.49302 130.85 2.81547 125.863 3.14162 120.877Z" fill="#DAB097"/>
<path d="M245.23 107.08C243.918 115.137 242.602 123.194 238.282 131.352C233.964 139.51 226.636 147.772 215.738 155.314C204.839 162.855 190.369 169.68 175.897 176.505L199.484 170.818C202.302 172.868 205.114 174.912 211.49 180.286C217.866 185.661 227.8 194.359 225.767 197.209C225.187 198.018 223.65 198.356 221.42 198.356C215.788 198.356 205.759 196.204 195.73 194.053C201.274 197.427 206.815 200.798 213.398 202.716C219.979 204.633 227.594 205.095 231.843 205.178C232.224 205.184 232.579 205.19 232.907 205.19C236.234 205.19 236.94 204.745 236.725 202.527C236.488 200.09 235.144 195.513 232.007 190.757C228.873 186.002 223.944 181.07 220.165 176.979C216.389 172.886 213.761 169.633 211.133 166.381C218.641 161.534 226.152 156.685 232.244 152.009C238.332 147.336 243.006 142.83 244.932 135.37C246.862 127.911 246.045 117.494 245.23 107.08Z" fill="#DAB097"/>
<path d="M157.189 260.555C168.544 263.3 179.898 266.046 188.133 266.046C189.477 266.046 190.74 265.973 191.904 265.815C200.202 264.687 203.596 259.24 206.986 253.79L205.311 247.135C215.196 251.692 225.08 256.245 235.504 258.76C240.577 259.982 245.777 260.725 251.018 260.725C256.549 260.725 262.125 259.897 267.647 257.942C278.397 254.135 288.935 246.039 292.66 238.52C296.383 231.001 293.293 224.056 290.2 217.111C295.054 221.449 299.91 225.784 301.428 231.888C302.945 237.993 301.13 245.863 295.561 252.334C289.994 258.801 280.67 263.869 271.129 267.095C264.972 269.177 258.722 270.491 252.212 270.491C248.639 270.491 244.986 270.093 241.226 269.212C230.618 266.716 219.16 260.346 207.705 253.977C206.351 259.8 205 265.622 204.001 269.963C203.004 274.305 202.359 277.161 198.529 277.518C198.248 277.546 197.947 277.56 197.627 277.56C193.665 277.56 187.176 275.575 180.686 273.588L157.189 260.555Z" fill="#DAB097"/>
<path d="M96.9722 265.904C90.4627 268.984 83.9545 272.065 78.5236 272.065C76.6012 272.065 74.8173 271.68 73.2137 270.773C67.0786 267.3 63.6181 256.182 60.1577 245.063C59.7092 252.612 59.2571 260.162 60.2751 266.396C61.2943 272.63 63.7824 277.55 66.2656 282.466C70.5254 282.317 74.7827 282.172 79.9035 279.411C85.0207 276.652 90.9977 271.275 96.9722 265.904Z" fill="#DAB097"/>
<path d="M125.819 181.797C125.816 181.797 121.856 181.718 119.857 181.668H119.841C117.795 181.617 115.736 181.563 113.68 181.493C105.112 181.212 96.4978 180.776 87.9078 179.92C66.5498 177.791 44.6012 171.493 26.412 159.667C15.9788 152.887 3.89139 142.978 0.88683 129.649C-1.26775 120.087 0.807763 109.898 3.85556 101.197C8.7738 87.1429 17.1488 74.2554 26.8901 63.2316C43.7846 44.1102 64.8202 27.5004 88.3316 17.1714C100.429 11.8569 113.816 7.85072 127.34 7.71249C127.533 7.71249 127.719 7.71249 127.91 7.71249C144.315 7.71249 160.334 14.8721 173.842 23.0523C188.469 31.9077 202.223 42.4292 214.533 54.312C226.984 66.3343 239.117 80.1006 246.282 96.3377C250.381 105.624 251.587 116.628 249.544 126.578C247.149 138.255 240.435 149.74 231.109 157.295C213.277 171.733 189.266 177.718 167.083 180.179C157.301 181.263 147.462 181.737 137.666 181.85C136.275 181.863 134.884 181.872 133.495 181.872C132.893 181.872 132.325 181.87 131.724 181.866C129.747 181.86 125.832 181.797 125.822 181.797L125.879 178.893L125.819 181.797ZM125.936 175.993L125.879 178.893L125.933 175.993C125.929 175.993 129.816 176.053 131.746 176.062C132.331 176.066 132.913 176.066 133.495 176.066C134.864 176.066 136.237 176.059 137.6 176.043C147.253 175.932 156.893 175.464 166.444 174.407C188.234 171.993 210.908 166.176 227.449 152.782C235.675 146.123 241.712 135.844 243.851 125.412C245.647 116.65 244.579 106.874 240.966 98.6814C234.258 83.4847 222.774 70.3443 210.497 58.4898C198.507 46.913 185.098 36.6569 170.827 28.015C157.633 20.0285 142.724 13.5157 127.91 13.5157C127.742 13.5157 127.571 13.5194 127.401 13.5194C114.945 13.6453 102.361 17.3516 90.6715 22.4858C68.0681 32.4199 47.691 48.4644 31.245 67.0736C21.8767 77.6803 13.9539 89.9297 9.33962 103.111C6.43637 111.405 4.75125 120.369 6.55744 128.372C9.00853 139.244 19.2008 148.053 29.5846 154.802C46.8052 165.999 67.8025 172.078 88.4836 174.141C96.8931 174.982 105.366 175.411 113.874 175.693C115.908 175.758 117.944 175.812 119.987 175.863H120.003C121.986 175.914 125.923 175.993 125.936 175.993Z" fill="black"/>
<path d="M32.2124 64.0881C32.2124 65.5765 31.0832 66.8268 29.6007 66.9761C28.1169 67.1279 26.7604 66.1319 26.4602 64.6719V64.6694L26.4565 64.6632L26.4256 64.5077C23.7497 51.5005 21.0676 38.4613 19.0365 27.4473C17.2402 17.728 14.7706 5.65509 22.2598 1.48474C24.2871 0.356683 26.7505 0 29.214 0C35.7741 0 44.747 2.60292 53.0516 5.2947C64.6362 9.0516 75.9403 13.3429 87.1642 17.6083C88.664 18.176 89.4201 19.8545 88.8468 21.3516C88.2773 22.8499 86.5983 23.6052 85.0998 23.0363C73.8524 18.7647 62.6817 14.524 51.2552 10.8177C42.7852 8.07288 34.6981 5.80689 29.214 5.80689C27.2027 5.80689 25.8783 6.12038 25.0877 6.55852C22.1869 8.17655 22.4747 14.0624 24.7516 26.3945C26.7728 37.3394 29.4388 50.3157 32.1185 63.339L32.1494 63.4969H32.1531V63.5031L26.3997 64.0881C26.3997 62.4824 27.6994 61.184 29.3066 61.184C30.9127 61.184 32.2124 62.4824 32.2124 64.0881Z" fill="black"/>
<path d="M173.832 22.9129L169.812 20.2334L169.878 20.205C181.311 15.4595 192.934 10.6314 206.012 7.1028C212.923 5.23793 220.478 3.66803 226.858 3.66803C232.301 3.66803 237.921 4.81213 240.95 9.13675C246.479 17.0331 240.808 33.6775 237.528 43.9115V43.9078L237.231 44.8371C233.641 56.0473 231.551 63.1785 229.457 70.3282C229.008 71.8672 227.393 72.7485 225.852 72.2967C224.311 71.8475 223.429 70.2332 223.878 68.6941C225.978 61.5321 228.084 54.3466 231.697 43.0673L231.993 42.1392C235.861 30.0749 239.61 17.3516 236.188 12.4678C234.906 10.6351 231.956 9.47245 226.858 9.47245C221.269 9.47245 214.32 10.8745 207.527 12.7073C194.87 16.126 183.579 20.8048 172.108 25.5664L172.042 25.5948C171.144 25.9675 170.122 25.8675 169.315 25.3294C168.506 24.7925 168.022 23.8829 168.022 22.9129C168.022 21.3109 169.321 20.0125 170.925 20.0125C172.532 20.0125 173.832 21.3109 173.832 22.9129Z" fill="black"/>
<path d="M212.966 166.789V166.792L212.129 164.75C217.866 170.559 223.685 176.454 229.562 183.427C234.11 188.823 243.31 199.657 238.104 205.351C235.887 207.771 231.798 208.239 228.401 208.239C223.224 208.239 216.838 207.088 211.645 205.518C202.552 202.766 196.887 198.659 191.537 194.788L195.987 191.487C200.015 203.139 204.131 215.013 206.594 228.838C209.042 242.562 209.899 258.4 208.346 267.917C207.081 275.66 203.833 280.685 196.502 280.685C194.867 280.685 193.118 280.428 191.267 279.992C182.475 277.906 169.29 271.117 158.515 264.539C156.611 263.373 154.777 262.214 153.009 261.098C151.338 260.039 149.729 259.022 148.163 258.068C141.826 254.194 136.587 251.591 131.446 251.279C131.091 251.256 130.734 251.247 130.377 251.247C122.83 251.247 114.626 255.945 105.789 262.615C101.852 265.588 97.9173 268.845 94.1134 271.998C90.6752 274.846 87.3223 277.625 84.2486 279.944C82.8797 280.981 81.5442 281.939 80.2631 282.782C76.5284 285.246 72.8752 287 69.4593 287C66.0309 287 63.3525 285.256 61.4611 282.248C57.8685 276.523 56.5206 265.244 57.1507 252.814C57.7857 240.182 60.5036 225.642 62.3654 215.907C64.2346 206.132 65.2946 200.941 66.3571 195.762L70.8392 198.741C62.1344 204.659 53.1813 210.754 45.4364 214.539C40.8184 216.795 36.1855 218.456 32.6744 218.456C31.4155 218.456 30.0405 218.248 28.8224 217.543C27.7377 216.915 26.9025 215.957 26.438 214.732C26.4318 214.713 26.4281 214.703 26.4219 214.685C24.5527 209.61 29.7712 200.192 35.233 192.884C41.1915 184.906 49.1241 177.24 56.8307 169.777C57.9821 168.663 59.8229 168.691 60.9398 169.841C62.0553 170.994 62.0269 172.829 60.8767 173.949C53.0837 181.49 45.5179 188.823 39.8918 196.356C33.7653 204.552 31.308 211.139 31.8739 212.682C31.8553 212.627 31.7824 212.546 31.7355 212.517C31.754 212.526 31.9974 212.65 32.6744 212.65C34.7561 212.65 38.3512 211.534 42.884 209.322C50.1742 205.759 58.7481 199.939 67.5691 193.942C68.5463 193.275 69.8299 193.269 70.8133 193.923C71.7967 194.58 72.2871 195.765 72.0499 196.921C70.9937 202.093 69.9374 207.256 68.0743 216.998C66.2027 226.785 63.5675 240.937 62.9547 253.104C62.3308 265.471 63.8368 275.101 66.3855 279.164C67.4072 280.792 68.3746 281.193 69.4593 281.193C71.0604 281.193 73.483 280.296 77.0633 277.935C78.211 277.18 79.4415 276.298 80.7474 275.313C83.6914 273.088 86.9368 270.4 90.4035 267.528C94.1888 264.393 98.2249 261.047 102.286 257.983C111.103 251.326 120.702 245.44 130.377 245.44C130.851 245.44 131.322 245.456 131.796 245.484C138.523 245.891 144.859 249.243 151.196 253.114C152.806 254.096 154.454 255.139 156.117 256.191C157.889 257.31 159.685 258.447 161.548 259.585C172.279 266.141 184.788 272.488 192.609 274.34C194.171 274.712 195.452 274.876 196.502 274.876C199.547 274.876 201.528 273.623 202.609 266.981C204.013 258.388 203.267 243.281 200.873 229.859C198.497 216.538 194.538 205.073 190.493 193.383C190.079 192.185 190.49 190.859 191.508 190.103C192.526 189.348 193.919 189.342 194.943 190.085C200.246 193.919 205.238 197.512 213.331 199.961C218.128 201.411 223.936 202.432 228.401 202.432C231.962 202.432 233.503 201.771 233.812 201.433C234.628 200.542 232.149 195.515 225.114 187.165C219.409 180.394 213.742 174.652 207.993 168.829C207.458 168.286 207.154 167.553 207.154 166.792V166.789C207.154 165.187 208.457 163.889 210.063 163.889C211.667 163.889 212.966 165.187 212.966 166.789Z" fill="black"/>
<path d="M207.575 230.868L206.104 228.344C213.625 232.609 220.232 236.267 226.659 236.267C227.918 236.267 229.163 236.125 230.403 235.815C235.198 234.615 240.198 230.906 246.188 226.394C249.724 223.726 253.532 220.855 257.56 218.473C264.978 214.094 273.229 211.329 280.791 211.329C284.086 211.329 287.294 211.854 290.247 213.038C299.973 216.943 306.061 227.619 304.846 238.173C303.622 248.773 295.178 258.694 283.409 264.883C274.197 269.726 262.728 272.425 251.646 272.425C248.465 272.425 245.303 272.203 242.225 271.739C228.427 269.669 216.595 262.797 205.317 256.283C203.928 255.48 203.454 253.705 204.254 252.318C205.057 250.927 206.838 250.453 208.226 251.256C219.669 257.866 230.558 264.118 243.089 265.999C245.862 266.416 248.733 266.617 251.646 266.617C261.862 266.617 272.391 264.116 280.702 259.745C291.462 254.086 298.144 245.541 299.071 237.509C300.001 229.424 295.257 221.306 288.08 218.428C285.927 217.563 283.476 217.136 280.791 217.136C274.554 217.136 267.324 219.452 260.518 223.471C256.818 225.658 253.272 228.328 249.686 231.029C244.021 235.297 238.002 239.897 231.817 241.446C230.087 241.882 228.366 242.074 226.659 242.074C218.388 242.074 210.355 237.433 203.235 233.395C202.325 232.877 201.765 231.913 201.765 230.868C201.765 229.266 203.065 227.967 204.668 227.967C206.274 227.967 207.575 229.266 207.575 230.868Z" fill="black"/>
<path d="M227.006 123.007C224.954 131.216 208.445 134.167 190.132 129.598C171.821 125.033 158.639 114.672 160.688 106.464C162.74 98.2557 179.249 95.3047 197.562 99.8725C215.873 104.441 229.055 114.799 227.006 123.007Z" fill="#FFBBC7"/>
<path d="M62.7484 125.357C46.7669 129.787 32.1777 127.494 30.1603 120.229C28.1428 112.966 39.4618 103.487 55.4396 99.0578C71.4174 94.6246 86.0102 96.9214 88.0252 104.186C90.0427 111.447 78.7261 120.928 62.7484 125.357Z" fill="#FFBBC7"/>
<path d="M144.419 122.043C144.419 122.637 144.178 123.206 143.752 123.62L143.739 123.629V123.633L143.748 123.623C140.8 126.467 136.79 130.552 132.581 130.558H132.571C128.285 130.558 124.617 126.372 121.998 123.563L125.297 123.468C122.72 126.574 119.083 131.241 115.079 131.504C114.951 131.51 114.825 131.516 114.702 131.516C110.704 131.516 107.333 127.257 105.066 124.596C104.281 123.674 104.392 122.287 105.315 121.503C106.242 120.717 107.628 120.83 108.411 121.752C111.381 125.238 113.244 127.127 114.702 127.127C114.73 127.127 114.762 127.127 114.791 127.123C116.411 127.016 118.633 124.622 121.913 120.666C122.318 120.182 122.909 119.892 123.541 119.873C124.171 119.856 124.782 120.109 125.212 120.571C128.46 124.056 130.655 126.169 132.571 126.169H132.565H132.577C134.574 126.167 137.1 123.935 140.697 120.466L140.706 120.458L140.709 120.454L140.026 122.043C140.026 120.83 141.009 119.848 142.224 119.848C143.435 119.848 144.419 120.83 144.419 122.043Z" fill="black"/>
<path d="M136.603 139.85C136.603 141.228 135.496 142.356 134.118 142.384L116.318 142.751C114.917 142.783 113.759 141.671 113.728 140.271C113.7 138.868 114.813 137.712 116.214 137.683L134.01 137.313L131.525 139.85C131.525 138.447 132.662 137.313 134.065 137.313C135.466 137.313 136.603 138.447 136.603 139.85Z" fill="black"/>
<path d="M133.852 114.988C133.818 118.58 129.184 121.446 123.501 121.393C117.814 121.339 113.234 118.388 113.266 114.795C113.301 111.206 117.937 108.338 123.62 108.391C129.305 108.445 133.884 111.399 133.852 114.988Z" fill="black"/>
<path d="M125.784 112.217C125.755 113.5 123.93 114.505 121.708 114.457C119.488 114.406 117.71 113.326 117.738 112.04C117.767 110.754 119.588 109.756 121.812 109.803C124.032 109.851 125.813 110.935 125.784 112.217Z" fill="white"/>
<path d="M90.9817 79.2378C90.6494 86.1789 84.7416 91.5378 77.7874 91.2058C70.8294 90.8751 65.4627 84.9756 65.7938 78.0345C66.1262 71.0921 72.034 65.7308 78.9919 66.0628C85.9473 66.3972 91.314 72.2967 90.9817 79.2378Z" fill="black"/>
<path d="M185.838 76.5485C186.179 83.4687 180.834 89.3546 173.901 89.6927C166.971 90.0309 161.077 84.6979 160.739 77.7815C160.396 70.8614 165.742 64.9755 172.674 64.6373C179.604 64.2991 185.499 69.6333 185.838 76.5485Z" fill="black"/>
<path d="M86.4526 75.4463C86.0671 78.5306 83.2491 80.7139 80.1593 80.3276C77.072 79.9388 74.884 77.1273 75.2695 74.043C75.6587 70.96 78.4767 68.7767 81.564 69.1618C84.6501 69.5506 86.8417 72.3621 86.4526 75.4463Z" fill="white"/>
<path d="M78.9696 84.2993C78.5112 85.4841 77.1795 86.0753 75.991 85.6198C74.805 85.162 74.2132 83.8315 74.6691 82.6467C75.1237 81.4618 76.4555 80.8719 77.6452 81.3298C78.8312 81.784 79.4255 83.1144 78.9696 84.2993Z" fill="white"/>
<path d="M181.049 75.7562C180.094 78.9627 176.713 80.7893 173.499 79.8352C170.286 78.8812 168.459 75.5032 169.414 72.2968C170.369 69.0891 173.747 67.2637 176.96 68.2177C180.176 69.1742 182.004 72.5498 181.049 75.7562Z" fill="white"/>
<path d="M172.905 84.1537C172.478 85.5829 170.894 86.3691 169.36 85.9136C167.829 85.4595 166.931 83.9303 167.358 82.5048C167.782 81.0768 169.369 80.2906 170.9 80.7448C172.431 81.2027 173.329 82.7257 172.905 84.1537Z" fill="white"/>
</svg>
