<svg width="329" height="315" viewBox="0 0 329 315" fill="none" xmlns="http://www.w3.org/2000/svg">
<path d="M66.0446 225.15C66.2625 218.266 66.4772 211.386 66.5451 205.533C66.6146 199.677 66.5372 194.85 66.4567 190.028C54.7868 185.88 43.1186 181.737 32.7751 176.601C22.4347 171.463 13.4254 165.327 8.40913 157.397C3.39289 149.458 2.37448 139.721 3.96761 129.814C5.55601 119.907 9.75437 109.825 14.6222 100.574C19.4884 91.3218 25.0178 82.8982 30.5551 74.4747C25.9604 59.0817 21.3642 43.6856 18.4984 32.5337C15.6359 21.3818 14.5006 14.474 19.4395 10.7635C22.3337 8.59249 27.3136 7.51724 33.5503 7.51724C37.965 7.51724 43.0049 8.05565 48.389 9.123C61.3757 11.6966 76.3313 17.3524 91.2837 23.0112C108.393 16.3008 125.499 9.5951 141.672 9.27142C142.087 9.26353 142.499 9.26037 142.916 9.26037C158.623 9.26037 173.467 15.1655 188.309 21.066C203.891 14.9066 219.473 8.75038 232.831 5.52937C238.85 4.0815 244.42 3.22888 249.137 3.22888C254.889 3.22888 259.376 4.49834 261.877 7.49355C266.434 12.9456 264.408 24.1307 261.4 36.3421C258.394 48.5487 254.409 61.7864 250.422 75.0194C258.765 86.5471 267.113 98.0717 272.424 109.402C277.734 120.728 280.014 131.859 277.731 141.301C275.451 150.74 268.608 158.495 260.682 165.537C252.755 172.578 243.737 178.913 235.383 183.367C227.027 187.821 219.331 190.396 211.639 192.974C211.659 196.573 211.683 200.17 211.509 204.737C211.332 209.308 210.957 214.85 210.581 220.392C212.965 228.5 215.349 236.613 216.89 242.966C218.43 249.322 219.124 253.916 219.816 258.512C228.009 262.106 236.202 265.703 241.897 267.353C243.947 267.946 245.669 268.286 247.318 268.286C250.253 268.286 252.945 267.203 256.777 264.523C262.759 260.347 271.523 252.296 280.908 247.143C287.917 243.298 295.281 241.072 301.95 241.072C304.209 241.072 306.388 241.326 308.446 241.863C316.591 243.974 322.868 250.441 324.619 258.722C326.368 267.001 323.592 277.093 317.318 284.843C311.045 292.595 301.276 298.003 291.021 301.083C283.172 303.444 275.039 304.439 267.577 304.439C265.289 304.439 263.066 304.345 260.936 304.167C251.841 303.42 244.387 301.164 237.824 297.624C231.258 294.082 225.588 289.248 219.917 284.418C219.816 291.932 219.715 299.446 217.116 304.203C214.815 308.411 210.56 310.461 206.078 310.461C205.5 310.461 204.912 310.424 204.331 310.356C199.238 309.758 194.149 306.572 182.795 299.495C171.441 292.413 153.826 281.443 142.338 277.049C138.325 275.513 135.058 274.777 132.075 274.777C126.53 274.777 121.962 277.321 115.386 281.956C105.273 289.087 90.4058 301.172 79.8081 307.139C74.1081 310.352 69.6382 311.79 66.1535 311.79C63.1583 311.79 60.8831 310.727 59.1684 308.815C55.4547 304.68 54.3511 296.557 54.2137 288.258C54.0716 279.964 54.9005 271.496 57.0305 260.95C59.1652 250.4 62.6041 237.773 66.0446 225.15Z" fill="#FFD6BE"/>
<path d="M153.72 123.019C152.031 127.643 150.337 132.263 147.504 134.284C146.331 135.121 144.965 135.51 143.595 135.51C141.651 135.51 139.703 134.725 138.296 133.318C135.891 130.913 135.067 126.69 134.238 122.466C137.027 120.44 139.816 118.415 141.55 116.196C143.284 113.978 143.967 111.564 144.65 109.151C145.39 112.299 146.134 115.452 147.645 117.761C149.161 120.072 151.441 121.544 153.72 123.019Z" fill="#F656A0"/>
<path d="M109.468 197.522C119.415 199.159 129.359 200.796 138.85 201.01C139.597 201.027 140.337 201.038 141.081 201.038C149.764 201.038 158.094 199.923 166.424 198.812C165.007 210.752 163.587 222.688 158.563 235.542C153.575 248.306 145.03 261.972 136.311 261.972C136.254 261.972 136.194 261.972 136.137 261.972C127.354 261.787 118.417 247.656 113.95 234.592C109.481 221.528 109.476 209.526 109.468 197.522Z" fill="#FFECE1"/>
<path d="M203.479 29.3853C211.053 25.8801 218.632 22.3765 226.941 19.8897C231.268 18.5965 235.787 17.5781 239.578 17.5781C243.078 17.5781 245.96 18.4465 247.483 20.7628C250.665 25.5896 247.977 36.7052 245.535 44.1388C243.099 51.5676 240.912 55.3144 238.72 59.0612C232.471 52.8497 226.223 46.6366 220.349 41.693C214.476 36.7463 208.975 33.0674 203.479 29.3853Z" fill="#745B54"/>
<path d="M40.7406 61.398C38.5664 57.877 36.3922 54.3576 33.3686 47.044C30.3418 39.732 26.4655 28.629 31.016 24.3975C32.7575 22.7728 35.7369 22.1617 39.2295 22.1617C44.8568 22.1617 51.812 23.7501 57.0793 25.2864C65.6244 27.7764 69.7343 30.1211 73.8411 32.4658C68.3638 36.4226 62.8913 40.3794 57.3745 45.2014C51.8562 50.0234 46.2984 55.7107 40.7406 61.398Z" fill="#745B54"/>
<path d="M107.354 197.405L106.89 211.492C104.553 212.392 102.213 213.298 100.58 215.097C98.9509 216.892 98.0335 219.584 97.1114 222.279C96.9867 216.693 96.8604 211.112 95.6683 202.442C94.4762 193.775 92.2168 182.017 89.6052 171.702C87.1642 162.065 84.42 153.678 81.7643 153.678C81.5748 153.678 81.3885 153.722 81.2022 153.808C78.3728 155.117 75.6775 166.625 73.2791 180.162C70.8871 193.698 68.7887 209.264 66.6919 224.831C66.5056 212.829 66.324 200.828 67.1245 188.932C67.9282 177.037 69.7108 165.242 72.0271 156.192C74.2944 147.328 77.0638 141.091 80.4269 141.091C80.4996 141.091 80.5675 141.096 80.6401 141.099C84.1011 141.371 88.1826 148.225 91.2868 156.386C94.3909 164.548 96.5209 174.01 98.6524 183.476L100.863 206.44L101.829 195.949L107.354 197.405Z" fill="#DAB097"/>
<path d="M77.989 142.801C73.1464 146.423 68.3039 150.044 65.2566 155.829C62.2045 161.617 60.9477 169.567 59.694 177.522C50.0184 174.487 40.3411 171.455 31.646 164.188C22.9556 156.92 15.252 145.42 14.0031 131.779C12.7542 118.137 17.9567 102.357 23.1625 86.5724C16.8657 97.6801 10.5674 108.783 7.10796 117.57C3.64696 126.361 3.02486 132.833 3.47012 139.046C3.91379 145.263 5.4264 151.22 8.42162 156.523C11.4168 161.822 15.8947 166.468 24.1966 171.362C32.4955 176.262 44.6137 181.41 52.3141 184.414C60.0145 187.414 63.2955 188.266 66.5781 189.114C67.1844 181.661 67.7907 174.204 69.6949 166.483C71.5944 158.767 74.7917 150.784 77.989 142.801Z" fill="#DAB097"/>
<path d="M164.678 199.03C166.554 186.447 168.43 173.868 173.664 163.835C178.903 153.803 187.5 146.317 196.097 138.832C198.862 140.371 201.626 141.912 204.508 151.01C207.394 160.109 210.394 176.767 213.397 193.428C207.366 177.029 201.339 160.63 195.854 160.63C195.556 160.63 195.252 160.679 194.957 160.783C189.234 162.74 184.157 183.945 179.217 193.529C176.348 199.094 173.526 200.74 170.721 200.74C168.7 200.74 166.691 199.882 164.678 199.03Z" fill="#DAB097"/>
<path d="M211.288 173.993C222.58 171.08 233.874 168.168 243.972 162.773C254.072 157.376 262.98 149.494 267.427 139.951C271.878 130.403 271.87 119.195 271.862 107.987C275.127 116.693 278.397 125.4 278.174 133.354C277.953 141.306 274.243 148.499 268.538 156.078C262.835 163.662 255.139 171.621 245.281 177.607C235.422 183.589 223.401 187.59 211.376 191.596L211.288 173.993Z" fill="#DAB097"/>
<path d="M208.664 220.97C209.97 235.719 211.279 250.469 210.947 263.938C210.612 277.409 208.635 289.6 202.673 293.077C201.316 293.868 199.756 294.207 198.022 294.207C192.125 294.207 184.225 290.279 175.596 286.755C164.427 282.187 152.031 278.295 139.638 274.401C148.619 278.881 157.601 283.358 166.687 288.711C175.778 294.062 184.974 300.288 192.698 304.882C199.152 308.719 204.581 311.419 208.692 311.419C209.505 311.419 210.265 311.313 210.968 311.091C215.256 309.745 217.58 304.086 219.012 299.184C220.443 294.28 220.984 290.129 221.521 285.978C221.264 273.803 221.005 261.629 218.862 250.791C216.72 239.96 212.69 230.464 208.664 220.97Z" fill="#DAB097"/>
<path d="M221.898 283.977C232.548 289.887 243.195 295.8 256.95 295.8C257.464 295.8 257.985 295.792 258.506 295.777C273.021 295.308 291 288.242 300.859 282.522C310.717 276.803 312.451 272.429 312.84 266.794C313.231 261.163 312.27 254.268 306.473 250.874C301.68 248.063 293.588 247.651 284.916 247.651C283.097 247.651 281.255 247.668 279.407 247.687C287.54 244.624 295.673 241.556 302.932 241.321C303.235 241.31 303.535 241.305 303.838 241.305C310.717 241.305 316.732 243.884 320.297 248.589C324.015 253.496 325.071 260.72 324.149 268.035C323.232 275.347 320.333 282.757 313.64 288.504C306.945 294.256 296.457 298.35 286.55 301.293C279.861 303.283 273.442 304.75 266.659 304.75C263.397 304.75 260.055 304.41 256.554 303.625C245.783 301.221 233.559 294.603 221.331 287.991L221.898 283.977Z" fill="#DAB097"/>
<path d="M106.219 288.266C96.2793 295.409 86.34 302.555 78.9427 307.623C74.0402 310.99 70.2571 313.443 67.205 313.443C65.6561 313.443 64.2982 312.813 63.0729 311.35C59.4477 307.001 57.0351 295.303 54.621 283.602L65.9276 226.77C65.1587 243.225 64.3866 259.676 66.7518 271.426C69.1123 283.182 74.6054 290.235 81.7027 292.256C83.3163 292.717 85.0105 292.914 86.7679 292.914C92.7551 292.914 99.4845 290.59 106.219 288.266Z" fill="#DAB097"/>
<path d="M241.619 63.059C245.617 53.2255 249.613 43.3951 252.277 33.9689C254.945 24.538 256.275 15.5161 252.746 11.8545C251.134 10.1856 248.514 9.63141 245.345 9.63141C241.562 9.63141 236.994 10.4193 232.419 11.0461C224.008 12.2019 215.564 12.8129 207.124 13.4192C216.877 10.0072 226.63 6.59198 235.564 4.92306C240.471 4.0057 245.128 3.61255 249.141 3.61255C252.435 3.61255 255.289 3.87623 257.479 4.33254C262.343 5.34305 263.947 7.2867 264.21 12.5098C264.472 17.7281 263.397 26.2243 261.041 37.2026C258.689 48.1761 255.059 61.6285 251.429 75.0841L241.619 63.059Z" fill="#DAB097"/>
<path d="M78.5225 30.388C70.9105 26.6491 63.2953 22.9102 53.2234 19.6923C46.7277 17.6192 39.2089 15.7592 33.4 15.7592C30.1948 15.7592 27.5122 16.3245 25.8054 17.7313C21.0039 21.6849 23.947 32.2874 26.3643 42.3767C28.7801 52.4613 30.6764 62.028 32.5679 71.5963C29.1606 66.4269 25.7533 61.2559 23.3359 54.3039C20.9155 47.3566 19.4881 38.6252 17.9929 31.0337C16.4976 23.4438 14.9361 16.9955 18.3323 13.2093C21.4523 9.72932 28.7564 8.48828 36.3763 8.48828C37.0505 8.48828 37.7263 8.49933 38.4005 8.51986C46.723 8.75038 55.0218 10.3388 63.5338 13.0877C72.0473 15.8319 80.7819 19.7413 89.5165 23.6459L78.5225 30.388Z" fill="#DAB097"/>
<path d="M104.768 206.196C104.768 207.958 103.369 209.394 101.61 209.438C99.8524 209.479 98.3808 208.112 98.2956 206.357C97.8266 196.855 97.3703 187.587 93.753 174.013C89.9446 159.733 83.9179 145.752 80.7616 145.004C80.7663 145.004 80.79 145.008 80.8342 145.008C80.8579 145.008 80.8863 145.008 80.9116 145.004C80.9637 144.996 80.9921 144.988 80.9921 144.983C77.7822 146.289 73.3975 162.343 71.1333 179.947C68.9797 196.701 69.1818 210.602 69.3918 224.717C69.3949 225.041 69.3507 225.363 69.2623 225.676C65.2439 239.377 61.2998 252.838 59.1682 267.861C56.9704 283.366 56.9293 299.07 60.6682 305.351C62.0103 307.608 63.834 308.52 66.3713 308.52C69.8481 308.52 74.5533 306.766 80.1316 303.472C86.6463 299.62 93.7119 294.062 100.669 288.585C104.343 285.69 107.976 282.825 111.404 280.332C117.884 275.619 124.206 271.755 132.552 271.755C136.788 271.755 141.356 272.745 146.554 274.854C155.309 278.412 166.267 285.34 176.335 291.694C183.709 296.347 190.628 300.708 196.219 303.545C201.691 306.325 205.5 307.434 208.146 307.434C211.198 307.434 213.304 305.97 214.962 300.922C217.924 291.888 218.066 274.741 216.222 259.911C214.403 245.298 210.713 233.423 206.938 221.285C206.809 220.869 206.764 220.437 206.809 220.004C208.135 206.596 209.423 193.513 207.394 177.223C205.22 159.77 199.849 143.242 196.571 142.053C196.571 142.053 196.582 142.057 196.598 142.061C196.626 142.07 196.663 142.073 196.696 142.073C196.74 142.073 196.764 142.065 196.768 142.065C193.858 142.804 188.728 155.586 185.539 169.344C182.471 182.591 182.201 192.062 181.93 201.771C181.877 203.556 180.39 204.968 178.6 204.919C176.812 204.867 175.402 203.375 175.451 201.589C175.726 191.811 176.004 181.794 179.23 167.882C181.849 156.576 187.423 137.752 195.172 135.784C195.661 135.663 196.17 135.593 196.696 135.593C197.136 135.593 197.569 135.642 198.001 135.735C198.268 135.795 198.527 135.873 198.777 135.961C206.723 138.84 211.934 161.229 213.825 176.423C215.952 193.505 214.582 207.235 213.255 220.642L213.126 219.361C216.893 231.475 220.754 243.86 222.653 259.111C224.521 274.152 224.549 292.489 221.117 302.943C218.984 309.45 215.087 313.912 208.146 313.912C203.935 313.912 199.007 312.231 193.288 309.325C187.363 306.318 180.16 301.767 172.879 297.171C162.618 290.696 152.217 284.148 144.116 280.857C139.485 278.977 135.754 278.233 132.552 278.233C126.408 278.233 121.537 280.969 115.22 285.57C111.909 287.978 108.372 290.76 104.674 293.674C97.8156 299.078 90.3899 304.931 83.4253 309.051C77.6164 312.482 71.6544 315 66.3713 315C61.7719 315 57.7172 313.067 55.0994 308.662C50.0058 300.104 50.6168 282.021 52.7547 266.949C54.9573 251.398 59.0404 237.506 63.0461 223.852L62.9119 224.81C62.7019 210.707 62.4871 196.387 64.7071 179.123C66.6429 164.061 70.8791 142.102 78.5543 138.982C79.0074 138.798 79.4922 138.661 80.0053 138.588C80.28 138.549 80.5595 138.528 80.8342 138.528C81.3269 138.528 81.8037 138.593 82.2647 138.702C90.183 140.586 96.8493 160.469 100.013 172.344C103.814 186.605 104.294 196.439 104.768 206.039L98.2877 206.196C98.2877 204.409 99.7387 202.958 101.529 202.958C103.32 202.958 104.768 204.409 104.768 206.196Z" fill="black"/>
<path d="M104.379 195.998L101.728 192.809L101.736 192.813H101.744C113.792 195.065 125.563 197.252 137.9 197.61C139.169 197.651 140.451 197.667 141.736 197.667C152.953 197.667 164.642 196.338 176.55 194.983C178.328 194.778 179.934 196.055 180.136 197.833C180.338 199.612 179.064 201.216 177.286 201.419C165.447 202.769 153.386 204.147 141.736 204.147C140.389 204.147 139.047 204.126 137.71 204.09C124.791 203.714 112.536 201.419 100.555 199.183H100.56H100.552C99.0106 198.897 97.899 197.555 97.899 195.998C97.899 194.208 99.3501 192.757 101.142 192.757C102.928 192.757 104.379 194.208 104.379 195.998Z" fill="black"/>
<path d="M68.9071 189.774C68.9071 190.821 68.4018 191.803 67.5476 192.409C66.695 193.019 65.5992 193.177 64.6092 192.837H64.6171L64.6092 192.834H64.6013C49.6221 187.66 34.1281 182.328 22.2041 174.616C10.1758 166.831 1.35597 156.35 0.143353 141.645C-1.03768 127.275 5.14381 109.547 16.2863 90.4723C27.4998 71.2774 44.1085 50.093 67.5808 33.5364C89.2373 18.2619 116.886 6.83044 144.02 6.83044C146.214 6.83044 148.409 6.90307 150.596 7.06097C179.849 9.1183 207.293 25.2707 229.335 46.0793C251.388 66.8959 268.344 92.6639 276.296 110.957C284.388 129.571 283.401 141.135 275.803 152.707C268.595 163.682 255.616 174.487 244.472 181.524C233.196 188.645 223.552 192.062 214.201 195.379C212.517 195.978 210.664 195.097 210.063 193.412C209.464 191.726 210.345 189.87 212.035 189.272C221.36 185.962 230.398 182.748 241.013 176.047C251.764 169.256 263.89 159.042 270.386 149.151C276.493 139.85 277.811 130.695 270.354 113.54C262.759 96.0665 246.315 71.0184 224.889 50.7924C203.458 30.5569 177.354 15.4403 150.14 13.5203C148.111 13.3782 146.069 13.3103 144.02 13.3103C118.591 13.3103 92.2293 24.0818 71.3149 38.8321C48.7853 54.7239 32.7544 75.1284 21.8804 93.7391C10.94 112.47 5.58748 128.768 6.60273 141.115C7.58798 153.124 14.7026 162.045 25.7251 169.175C36.8533 176.371 51.5263 181.459 66.7155 186.709L66.7108 186.706L66.7203 186.709L62.4272 189.774C62.4272 187.984 63.8782 186.532 65.6687 186.532C67.4545 186.532 68.9071 187.984 68.9071 189.774Z" fill="black"/>
<path d="M192.633 20.7881L188.114 17.8134C200.318 12.5619 212.758 7.20305 226.7 3.49574C234.02 1.55208 241.962 0 248.768 0C254.666 0 260.705 1.15893 264.247 5.40308C270.932 13.4224 265.908 30.2822 262.84 41.4467L262.625 42.2267C259.238 54.555 256.723 64.2843 254.214 74.001V74.0057L254.209 74.0294C253.756 75.7599 251.986 76.7988 250.256 76.3457C248.527 75.8973 247.488 74.1257 247.936 72.3968L247.944 72.3715L247.941 72.381C250.45 62.6627 252.976 52.8892 256.376 40.5136L256.59 39.7289C260.241 26.4549 263.2 14.264 259.27 9.55407C257.694 7.65936 254.29 6.47832 248.768 6.47832C242.799 6.47832 235.491 7.86146 228.366 9.75617C214.95 13.3261 202.932 18.4876 190.677 23.7628C189.674 24.1954 188.526 24.0944 187.614 23.4912C186.704 22.8928 186.158 21.8791 186.158 20.7881C186.158 18.9976 187.604 17.5466 189.396 17.5466C191.187 17.5466 192.633 18.9976 192.633 20.7881Z" fill="black"/>
<path d="M92.9162 22.607C92.9162 23.6854 92.3747 24.6959 91.481 25.299C90.5794 25.9006 89.4442 26.0143 88.4416 25.6022C77.9733 21.2933 67.7182 17.0808 54.6589 13.9766C47.5206 12.2792 39.7223 10.9608 33.2234 10.9608C27.5488 10.9608 23.7325 11.9761 21.8694 13.6892C17.5558 17.6555 20.0821 28.2895 23.8936 41.2241C27.342 52.9428 30.4098 62.9864 33.4855 73.0473C34.0066 74.7572 33.045 76.5683 31.3351 77.0893C29.6219 77.6151 27.8109 76.6488 27.2899 74.9388C24.2173 64.8827 21.1336 54.8012 17.6774 43.0556C14.5732 32.5179 9.42749 16.3292 17.4832 8.92087C21.2789 5.43145 27.3183 4.47778 33.2234 4.47778C40.4581 4.47778 48.8216 5.92881 56.1573 7.6751C69.7708 10.9087 80.4459 15.306 90.9078 19.6118L86.4363 22.607C86.4363 20.8165 87.8874 19.3686 89.6779 19.3686C91.4652 19.3686 92.9162 20.8165 92.9162 22.607Z" fill="black"/>
<path d="M223.91 259.041L222.096 256.128L222.1 256.131C231.162 260.557 239.262 264.438 246.462 264.438C248.159 264.438 249.771 264.216 251.312 263.743C255.649 262.409 259.811 259.005 265.042 254.644C269.497 250.934 274.565 246.689 280.596 243.637C287.067 240.367 294.586 238.489 301.659 238.489C308.644 238.489 315.568 240.331 320.491 244.943C330.257 254.09 330.544 272.397 321.453 285.008C312.298 297.712 293.782 304.81 278.49 306.952C274.743 307.478 271.142 307.716 267.701 307.716C256.841 307.716 247.597 305.364 240.391 302.328C230.846 298.314 224.905 293.113 219.282 288.209C217.932 287.033 217.792 284.988 218.968 283.638C220.143 282.291 222.189 282.15 223.539 283.327C229.133 288.206 234.403 292.781 242.904 296.358C249.395 299.086 257.787 301.237 267.701 301.237C270.847 301.237 274.145 301.019 277.593 300.537C292.184 298.492 308.567 291.81 316.198 281.221C323.898 270.538 322.859 256.035 316.061 249.669C312.739 246.56 307.645 244.967 301.659 244.967C295.661 244.967 289.142 246.581 283.522 249.423C278.252 252.086 273.725 255.841 269.193 259.624C264.266 263.726 259.052 268.141 253.215 269.939C250.988 270.623 248.724 270.918 246.462 270.918C237.448 270.918 227.871 266.164 219.254 261.953C218.139 261.407 217.435 260.279 217.435 259.041C217.435 257.251 218.883 255.8 220.673 255.8C222.464 255.8 223.91 257.251 223.91 259.041Z" fill="black"/>
<path d="M88.0688 85.2019L82.1999 84.6556C82.8347 81.2561 83.5783 77.0199 86.9746 73.1926C90.0503 69.7253 95.3934 66.4995 101.239 66.4995C101.542 66.4995 101.85 66.5074 102.156 66.5279C108.255 66.8879 114.225 70.8684 117.254 74.8015C120.544 79.0772 120.475 83.3956 120.47 86.7255C120.467 88.3629 119.14 89.6844 117.503 89.6797C115.87 89.6797 114.544 88.3502 114.549 86.7176C114.554 83.3308 114.497 80.9293 112.561 78.4156C110.362 75.5578 105.866 72.6794 101.809 72.4363C101.619 72.4252 101.428 72.4205 101.239 72.4205C97.4587 72.4205 93.6266 74.612 91.4035 77.1209C89.2261 79.5793 88.6751 82.243 88.0214 85.7466C87.7388 87.2513 86.3604 88.2902 84.8352 88.1481C83.3115 88.0076 82.1478 86.7303 82.1478 85.2019C82.1478 83.5645 83.4741 82.2382 85.1115 82.2382C86.7472 82.2382 88.0688 83.5645 88.0688 85.2019Z" fill="black"/>
<path d="M177.25 89.3449L171.425 88.5934C172.5 84.4866 173.752 79.4577 177.188 75.6904C180.328 72.2436 185.16 69.9463 190.187 69.9463C190.685 69.9463 191.182 69.9716 191.684 70.0158C197.168 70.521 202.536 73.8636 205.362 78.1362C208.244 82.4972 208.301 87.6113 208.402 91.6565C208.446 93.2938 207.153 94.6517 205.515 94.6928C203.883 94.737 202.523 93.4438 202.484 91.8065C202.37 87.425 202.212 84.1108 200.422 81.4061C198.575 78.6098 194.812 76.2525 191.138 75.913C190.822 75.8846 190.508 75.8688 190.187 75.8688C186.889 75.8688 183.627 77.413 181.566 79.6804C179.286 82.1782 178.307 85.6739 177.152 90.0918C176.776 91.5318 175.386 92.4696 173.91 92.2786C172.431 92.0891 171.327 90.8323 171.327 89.3449C171.327 87.7076 172.653 86.3813 174.286 86.3813C175.923 86.3813 177.25 87.7076 177.25 89.3449Z" fill="black"/>
<path d="M128.434 121.265V121.269L125.976 118.35H125.983H125.98L126.012 118.355C127.698 118.645 129.1 118.876 130.466 118.876C131.473 118.876 132.406 118.746 133.321 118.427C135.632 117.619 138.264 115.453 139.791 113.447C141.166 111.657 141.545 110.128 142.022 108.107C142.338 106.775 143.53 105.832 144.9 105.829C146.271 105.829 147.463 106.765 147.782 108.096C148.393 110.63 148.927 112.805 150.046 114.996C151.222 117.312 152.847 119.251 154.384 120.031C155.244 120.469 156.299 120.65 157.71 120.65C158.599 120.65 159.529 120.578 160.592 120.5L160.633 120.497C162.265 120.391 163.672 121.632 163.773 123.265C163.874 124.899 162.633 126.301 161.004 126.407H161.001L161.04 126.402C160.022 126.483 158.866 126.568 157.71 126.568C155.855 126.568 153.741 126.346 151.707 125.311C148.538 123.706 146.183 120.464 144.768 117.684C143.292 114.781 142.621 111.952 142.027 109.486L142.043 109.555L147.787 109.475C147.289 111.576 146.688 114.18 144.501 117.046C142.467 119.7 138.954 122.728 135.277 124.018C133.611 124.599 131.994 124.798 130.466 124.798C128.51 124.798 126.615 124.467 125.006 124.192L124.978 124.187H124.973C123.55 123.941 122.511 122.708 122.511 121.269V121.265C122.511 119.632 123.838 118.306 125.475 118.306C127.108 118.306 128.434 119.632 128.434 121.265Z" fill="black"/>
<path d="M156.675 123.601C156.675 123.956 156.61 124.309 156.485 124.64L156.498 124.612V124.615L156.485 124.643C154.99 128.633 153.065 134.118 149.367 136.709C147.681 137.886 145.73 138.432 143.818 138.432C141.162 138.432 138.485 137.38 136.547 135.375C133.441 132.17 132.609 126.75 131.914 122.801C131.631 121.192 132.71 119.656 134.319 119.373C135.928 119.09 137.464 120.169 137.747 121.778C138.568 126.451 139.247 129.652 140.799 131.253C141.574 132.053 142.69 132.51 143.818 132.51C144.61 132.51 145.357 132.287 145.971 131.854C147.811 130.569 149.161 127.316 150.94 122.562L150.932 122.591L150.754 123.601C150.754 121.964 152.08 120.642 153.713 120.642C155.35 120.642 156.675 121.964 156.675 123.601Z" fill="black"/>
<path d="M156.695 102.971C156.493 107.263 151.308 110.509 145.107 110.218C138.907 109.931 134.044 106.213 134.246 101.92C134.443 97.6264 139.633 94.3817 145.831 94.6723C152.031 94.9596 156.897 98.678 156.695 102.971Z" fill="black"/>
<path d="M75.9915 131.237C58.1386 134.066 42.5325 129.216 41.1368 120.399C39.7426 111.589 53.0861 102.155 70.939 99.3254C88.7934 96.4991 104.4 101.35 105.794 110.162C107.188 118.974 93.8491 128.411 75.9915 131.237Z" fill="#FFBBC7"/>
<path d="M242.221 123.767C240.733 131.872 226.125 135.982 209.586 132.947C193.05 129.915 180.851 120.886 182.334 112.781C183.821 104.676 198.434 100.565 214.973 103.596C231.509 106.633 243.708 115.663 242.221 123.767Z" fill="#FFBBC7"/>
<path d="M150.725 100.303C150.818 102.077 148.155 103.661 144.779 103.839C141.4 104.013 138.587 102.715 138.498 100.937C138.405 99.1627 141.065 97.579 144.444 97.4006C147.818 97.2269 150.632 98.5248 150.725 100.303Z" fill="white"/>
</svg>
