<svg width="74" height="92" viewBox="0 0 74 92" fill="none" xmlns="http://www.w3.org/2000/svg">
<g filter="url(#filter0_g_7_4397)">
<path d="M12.7182 11.14L12.716 11.1427C12.6801 11.2093 12.6422 11.2758 12.6027 11.3421L12.6074 11.3429C16.9398 15.7223 21.2725 20.1021 25.6052 24.4822L25.611 24.4763C27.8344 22.2281 30.0582 19.9804 32.2816 17.7327L21.2398 14.0115L12.7182 11.14ZM11.2369 12.7254C11.1746 12.7647 11.1114 12.8018 11.0476 12.8374L11.0451 12.8396C13.2181 19.4301 15.3914 26.0205 17.5644 32.6108L17.5703 32.6046C19.7937 30.3569 22.0175 28.1092 24.2409 25.8613C19.9096 21.4828 15.5781 17.1041 11.2468 12.7254L11.2369 12.7254ZM48.6449 1.20001C49.7346 2.30852 50.6426 3.51191 51.3693 4.81062L52.3245 6.80439C52.8703 8.17133 53.2341 9.57652 53.4161 11.0198C53.9619 15.5023 52.8703 19.6414 50.1411 23.4382C49.6595 24.0431 49.1599 24.6072 48.6424 25.1305C48.6366 25.1364 48.6309 25.1419 48.625 25.1479L48.6197 25.1542C48.6263 25.1609 48.6332 25.1679 48.6402 25.1749C47.1514 26.6798 45.6624 28.1851 44.1735 29.6904L44.1671 29.6968C46.0466 31.5035 47.1438 33.6608 47.4584 36.1689C47.7892 38.8846 47.1744 41.4027 45.6144 43.7224L45.6241 43.7228L58.4989 79.0449C58.4991 79.4886 58.4991 79.9323 58.4989 80.376L58.4989 80.3766L63.6703 80.376L72.1999 88.2608C72.2 88.9072 72.2 89.5535 72.1999 90.1999L38.3765 90.1999L4.55321 90.2C4.55321 89.5536 4.55321 88.9072 4.55321 88.2607L13.0829 80.3762L18.2438 80.3762L18.2541 80.3767C18.2541 79.9324 18.2541 79.4887 18.2541 79.0449L30.2941 46.011L29.3403 45.1687C29.2622 45.089 29.1858 45.0089 29.1103 44.9281L29.1007 44.9284C27.7072 46.3369 26.3132 47.7454 24.9199 49.1542C24.9148 49.1492 24.9096 49.1439 24.9045 49.1387L24.8943 49.1395C23.9728 50.0663 22.9948 50.8644 21.9603 51.5336C19.8649 52.7094 18.5659 53.3191 18.0627 53.3625C17.1437 53.6491 16.1904 53.8558 15.2014 53.9826C14.4625 54.0746 13.7329 54.1206 13.0128 54.1206C11.8124 54.1206 10.6385 53.9929 9.49074 53.7375C9.01056 53.7375 7.67089 53.2469 5.4713 52.2658C4.60336 51.8163 3.75233 51.2849 2.91777 50.6718L1.19995 49.1542L1.20683 49.1473C6.21787 44.0814 11.2292 39.0156 16.2402 33.9497C13.9732 27.0737 11.7061 20.1977 9.43872 13.3221L9.44015 13.3203L9.42984 13.321C9.31176 13.3302 9.1944 13.3347 9.07805 13.3347C8.19291 13.3347 7.36538 13.0521 6.59573 12.487L6.17345 12.1138C5.36784 11.2575 4.96546 10.2745 4.96546 9.16525C4.96546 8.05602 5.36784 7.07326 6.17345 6.21697C7.02046 5.40254 7.99258 4.99576 9.08979 4.99576C10.187 4.99576 11.1591 5.40283 12.0061 6.21697C12.2747 6.48989 12.4985 6.78614 12.6775 7.10585L12.9122 7.59608C13.0465 7.93245 13.136 8.2781 13.1807 8.63302C13.2174 8.9352 13.224 9.23116 13.2002 9.52089L13.2094 9.52162L21.7696 12.4053L33.6059 16.3938L33.6117 16.3879C38.6196 11.3255 43.6274 6.26289 48.6353 1.20001L48.6449 1.20001Z" fill="url(#paint0_linear_7_4397)"/>
</g>
<defs>
<filter id="filter0_g_7_4397" x="-4.88758e-05" y="1.21593e-05" width="73.4" height="91.4" filterUnits="userSpaceOnUse" color-interpolation-filters="sRGB">
<feFlood flood-opacity="0" result="BackgroundImageFix"/>
<feBlend mode="normal" in="SourceGraphic" in2="BackgroundImageFix" result="shape"/>
<feTurbulence type="fractalNoise" baseFrequency="1.4285714626312256 1.4285714626312256" numOctaves="3" seed="1376" />
<feDisplacementMap in="shape" scale="2.4000000953674316" xChannelSelector="R" yChannelSelector="G" result="displacedImage" width="100%" height="100%" />
<feMerge result="effect1_texture_7_4397">
<feMergeNode in="displacedImage"/>
</feMerge>
</filter>
<linearGradient id="paint0_linear_7_4397" x1="17.778" y1="1.20002" x2="55.8023" y2="90.1228" gradientUnits="userSpaceOnUse">
<stop stop-color="#938C8C"/>
<stop offset="1" stop-color="#2C2B2B"/>
</linearGradient>
</defs>
</svg>
